<!-- Generated by readme-aura https://github.com/collectioneur/readme-aura -->
<svg width="168" height="48" viewBox="0 0 168 48" xmlns="http://www.w3.org/2000/svg"><defs><clipPath id="satori_bc-id"><path x="0" y="0" width="168" height="48" d="M10,0 h148 a10,10 0 0 1 10,10 v28 a10,10 0 0 1 -10,10 h-148 a10,10 0 0 1 -10,-10 v-28 a10,10 0 0 1 10,-10"/></clipPath></defs><mask id="satori_om-id"><rect x="1" y="1" width="166" height="46" fill="#fff"/><path width="168" height="48" fill="none" stroke="#000" stroke-width="2" d="M2.9290000000000003,2.9290000000000003 A10,10 0 0 1 10,0 h148 a10,10 0 0 1 10,10 v28 a10,10 0 0 1 -10,10 h-148 a10,10 0 0 1 -10,-10 v-28 A10,10 0 0 1 2.9290000000000003,2.9290000000000003"/></mask><path x="0" y="0" width="168" height="48" fill="#16181F" d="M10,0 h148 a10,10 0 0 1 10,10 v28 a10,10 0 0 1 -10,10 h-148 a10,10 0 0 1 -10,-10 v-28 a10,10 0 0 1 10,-10"/><path width="168" height="48" clip-path="url(#satori_bc-id)" fill="none" stroke="#2A2F3B" stroke-width="2" d="M2.9290000000000003,2.9290000000000003 A10,10 0 0 1 10,0 h148 a10,10 0 0 1 10,10 v28 a10,10 0 0 1 -10,10 h-148 a10,10 0 0 1 -10,-10 v-28 A10,10 0 0 1 2.9290000000000003,2.9290000000000003"/><mask id="satori_om-id-0"><rect x="52" y="20" width="9" height="9" fill="#fff"/></mask><path x="52" y="20" width="9" height="9" fill="#ECEEF3" d="M56.5,20 h0 a4.5,4.5 0 0 1 4.5,4.5 v0 a4.5,4.5 0 0 1 -4.5,4.5 h0 a4.5,4.5 0 0 1 -4.5,-4.5 v0 a4.5,4.5 0 0 1 4.5,-4.5"/><mask id="satori_om-id-1"><rect x="71" y="16" width="45" height="16" fill="#fff"/></mask><g  ><path fill="#ECEEF3" d="M76.0 29.1L76.0 29.1Q74.7 29.1 73.7 28.5Q72.7 28.0 72.2 26.9Q71.6 25.8 71.6 24.3L71.6 24.3Q71.6 22.7 72.2 21.7Q72.8 20.6 73.8 20.0Q74.8 19.4 76.0 19.4L76.0 19.4Q76.8 19.4 77.5 19.6Q78.2 19.9 78.7 20.3Q79.3 20.7 79.6 21.3Q79.9 21.9 80.0 22.6L80.0 22.6L78.1 22.6Q78.0 22.3 77.8 22.0Q77.6 21.7 77.3 21.5Q77.1 21.3 76.8 21.2Q76.4 21.1 76.0 21.1L76.0 21.1Q75.3 21.1 74.7 21.5Q74.2 21.9 73.9 22.6Q73.6 23.3 73.6 24.3Q73.6 25.3 73.9 26.0Q74.2 26.7 74.7 27.0Q75.3 27.4 76.1 27.4L76.1 27.4Q76.7 27.4 77.2 27.2Q77.7 26.9 78.0 26.4L78.0 26.4Q78.2 26.0 78.2 25.4L78.2 25.4L76.2 25.4L76.2 24.0L80.1 24.0L80.1 25.1Q80.1 26.4 79.6 27.3Q79.1 28.2 78.2 28.6Q77.2 29.1 76.0 29.1ZM83.5 29L81.6 29L81.6 21.9L83.5 21.9L83.5 29ZM82.5 21.0L82.5 21.0Q82.1 21.0 81.8 20.7Q81.5 20.4 81.5 20.0L81.5 20.0Q81.5 19.6 81.8 19.3Q82.1 19.0 82.5 19.0L82.5 19.0Q83.0 19.0 83.3 19.3Q83.6 19.6 83.6 20.0L83.6 20.0Q83.6 20.4 83.3 20.7Q83.0 21.0 82.5 21.0ZM87.3 21.9L88.6 21.9L88.6 23.4L87.3 23.4L87.3 26.9Q87.3 27.3 87.4 27.4Q87.6 27.6 87.9 27.6L87.9 27.6Q88.0 27.6 88.2 27.6Q88.4 27.5 88.5 27.5L88.5 27.5L88.8 28.9Q88.5 29.0 88.2 29.1Q87.9 29.1 87.6 29.1L87.6 29.1Q86.5 29.1 85.9 28.6Q85.4 28.1 85.4 27.1L85.4 27.1L85.4 23.4L84.4 23.4L84.4 21.9L85.4 21.9L85.4 20.2L87.3 20.2L87.3 21.9ZM91.8 29L89.9 29L89.9 19.5L91.8 19.5L91.8 23.4L96.0 23.4L96.0 19.5L97.9 19.5L97.9 29L96.0 29L96.0 25.0L91.8 25.0L91.8 29ZM102.0 29.1L102.0 29.1Q101.3 29.1 100.7 28.8Q100.2 28.4 99.9 27.8Q99.6 27.2 99.6 26.4L99.6 26.4L99.6 21.9L101.5 21.9L101.5 26.1Q101.5 26.7 101.8 27.1Q102.2 27.5 102.8 27.5L102.8 27.5Q103.2 27.5 103.5 27.3Q103.8 27.1 104.0 26.8Q104.1 26.5 104.1 26.0L104.1 26.0L104.1 21.9L106.0 21.9L106.0 29L104.2 29L104.2 27.5Q103.9 28.2 103.5 28.6L103.5 28.6Q102.9 29.1 102.0 29.1ZM111.6 29.1L111.6 29.1Q111.1 29.1 110.7 28.9Q110.3 28.7 110.0 28.4Q109.8 28.1 109.6 27.9L109.6 27.9L109.5 27.9L109.5 29L107.7 29L107.7 19.5L109.6 19.5L109.6 23.1L109.6 23.1Q109.8 22.8 110.0 22.5Q110.2 22.2 110.6 22.0Q111.0 21.8 111.6 21.8L111.6 21.8Q112.4 21.8 113.1 22.2Q113.7 22.6 114.1 23.4Q114.5 24.3 114.5 25.5L114.5 25.5Q114.5 26.6 114.1 27.5Q113.8 28.3 113.1 28.7Q112.5 29.1 111.6 29.1ZM111.0 27.6L111.0 27.6Q111.5 27.6 111.9 27.3Q112.2 27.0 112.4 26.6Q112.6 26.1 112.6 25.5L112.6 25.5Q112.6 24.8 112.4 24.4Q112.2 23.9 111.9 23.6Q111.5 23.3 111.0 23.3L111.0 23.3Q110.6 23.3 110.2 23.6Q109.9 23.9 109.7 24.3Q109.5 24.8 109.5 25.5L109.5 25.5Q109.5 26.1 109.7 26.6Q109.9 27.1 110.2 27.3Q110.6 27.6 111.0 27.6Z "/></g></svg>