<!-- Generated by readme-aura https://github.com/collectioneur/readme-aura -->
<svg width="150" height="48" viewBox="0 0 150 48" xmlns="http://www.w3.org/2000/svg"><defs><clipPath id="satori_bc-id"><path x="0" y="0" width="150" height="48" d="M10,0 h130 a10,10 0 0 1 10,10 v28 a10,10 0 0 1 -10,10 h-130 a10,10 0 0 1 -10,-10 v-28 a10,10 0 0 1 10,-10"/></clipPath></defs><mask id="satori_om-id"><rect x="1" y="1" width="148" height="46" fill="#fff"/><path width="150" height="48" fill="none" stroke="#000" stroke-width="2" d="M2.9290000000000003,2.9290000000000003 A10,10 0 0 1 10,0 h130 a10,10 0 0 1 10,10 v28 a10,10 0 0 1 -10,10 h-130 a10,10 0 0 1 -10,-10 v-28 A10,10 0 0 1 2.9290000000000003,2.9290000000000003"/></mask><path x="0" y="0" width="150" height="48" fill="#16181F" d="M10,0 h130 a10,10 0 0 1 10,10 v28 a10,10 0 0 1 -10,10 h-130 a10,10 0 0 1 -10,-10 v-28 a10,10 0 0 1 10,-10"/><path width="150" height="48" clip-path="url(#satori_bc-id)" fill="none" stroke="#2A2F3B" stroke-width="2" d="M2.9290000000000003,2.9290000000000003 A10,10 0 0 1 10,0 h130 a10,10 0 0 1 10,10 v28 a10,10 0 0 1 -10,10 h-130 a10,10 0 0 1 -10,-10 v-28 A10,10 0 0 1 2.9290000000000003,2.9290000000000003"/><mask id="satori_om-id-0"><rect x="48" y="20" width="9" height="9" fill="#fff"/></mask><path x="48" y="20" width="9" height="9" fill="#FF7A45" d="M52.5,20 h0 a4.5,4.5 0 0 1 4.5,4.5 v0 a4.5,4.5 0 0 1 -4.5,4.5 h0 a4.5,4.5 0 0 1 -4.5,-4.5 v0 a4.5,4.5 0 0 1 4.5,-4.5"/><mask id="satori_om-id-1"><rect x="67" y="16" width="35" height="16" fill="#fff"/></mask><g  ><path fill="#ECEEF3" d="M74.2 29L67.9 29L67.9 19.5L74.2 19.5L74.2 21.1L69.8 21.1L69.8 23.4L73.9 23.4L73.9 25.0L69.8 25.0L69.8 27.4L74.2 27.4L74.2 29ZM77.6 29L75.7 29L75.7 21.9L77.5 21.9L77.5 23.3Q77.7 22.9 77.9 22.6L77.9 22.6Q78.2 22.2 78.7 22.0Q79.1 21.8 79.6 21.8L79.6 21.8Q80.3 21.8 80.8 22.3L80.8 22.3Q81.2 22.7 81.4 23.4L81.4 23.4Q81.6 23.0 81.8 22.7L81.8 22.7Q82.2 22.2 82.7 22.0Q83.1 21.8 83.7 21.8L83.7 21.8Q84.3 21.8 84.8 22.1Q85.4 22.4 85.7 22.9Q85.9 23.4 85.9 24.2L85.9 24.2L85.9 29L84.0 29L84.0 24.6Q84.0 24.0 83.7 23.7Q83.4 23.4 82.9 23.4L82.9 23.4Q82.6 23.4 82.3 23.5Q82.0 23.7 81.9 24.0Q81.7 24.3 81.7 24.6L81.7 24.6L81.7 29L79.9 29L79.9 24.5Q79.9 24.0 79.6 23.7Q79.3 23.4 78.8 23.4L78.8 23.4Q78.5 23.4 78.2 23.5Q77.9 23.7 77.8 24.0Q77.6 24.3 77.6 24.7L77.6 24.7L77.6 29ZM89.6 29.1L89.6 29.1Q88.9 29.1 88.3 28.9Q87.8 28.7 87.5 28.2Q87.2 27.7 87.2 27.0L87.2 27.0Q87.2 26.4 87.4 26.0Q87.6 25.6 88.0 25.4Q88.4 25.1 88.9 25.0Q89.3 24.9 89.9 24.8L89.9 24.8Q90.5 24.8 90.9 24.7Q91.2 24.7 91.4 24.5Q91.6 24.4 91.6 24.2L91.6 24.2L91.6 24.2Q91.6 23.9 91.5 23.7Q91.3 23.4 91.1 23.3Q90.8 23.2 90.5 23.2L90.5 23.2Q90.1 23.2 89.8 23.3Q89.6 23.4 89.4 23.6Q89.2 23.8 89.1 24.0L89.1 24.0L87.4 23.8Q87.6 23.1 88.0 22.7Q88.4 22.3 89.1 22.0Q89.7 21.8 90.5 21.8L90.5 21.8Q91.1 21.8 91.6 22.0Q92.1 22.1 92.6 22.4Q93.0 22.7 93.2 23.1Q93.5 23.6 93.5 24.2L93.5 24.2L93.5 29L91.7 29L91.7 28.0L91.6 28.0Q91.5 28.3 91.2 28.6Q90.9 28.8 90.5 29.0Q90.1 29.1 89.6 29.1ZM90.1 27.8L90.1 27.8Q90.5 27.8 90.9 27.6Q91.2 27.4 91.4 27.1Q91.6 26.8 91.6 26.5L91.6 26.5L91.6 25.7Q91.5 25.8 91.3 25.8Q91.2 25.9 91.0 25.9Q90.8 25.9 90.6 26.0Q90.4 26.0 90.2 26.0L90.2 26.0Q89.8 26.1 89.6 26.2Q89.3 26.3 89.2 26.5Q89.0 26.7 89.0 27.0L89.0 27.0Q89.0 27.2 89.2 27.4Q89.3 27.6 89.5 27.7Q89.8 27.8 90.1 27.8ZM97.0 29L95.1 29L95.1 21.9L97.0 21.9L97.0 29ZM96.1 21.0L96.1 21.0Q95.6 21.0 95.3 20.7Q95.0 20.4 95.0 20.0L95.0 20.0Q95.0 19.6 95.3 19.3Q95.6 19.0 96.1 19.0L96.1 19.0Q96.5 19.0 96.8 19.3Q97.1 19.6 97.1 20.0L97.1 20.0Q97.1 20.4 96.8 20.7Q96.5 21.0 96.1 21.0ZM98.6 19.5L100.5 19.5L100.5 29L98.6 29L98.6 19.5Z "/></g></svg>