<!-- Generated by readme-aura https://github.com/collectioneur/readme-aura -->
<svg width="180" height="48" viewBox="0 0 180 48" xmlns="http://www.w3.org/2000/svg"><defs><clipPath id="satori_bc-id"><path x="0" y="0" width="180" height="48" d="M10,0 h160 a10,10 0 0 1 10,10 v28 a10,10 0 0 1 -10,10 h-160 a10,10 0 0 1 -10,-10 v-28 a10,10 0 0 1 10,-10"/></clipPath></defs><mask id="satori_om-id"><rect x="1" y="1" width="178" height="46" fill="#fff"/><path width="180" height="48" fill="none" stroke="#000" stroke-width="2" d="M2.9290000000000003,2.9290000000000003 A10,10 0 0 1 10,0 h160 a10,10 0 0 1 10,10 v28 a10,10 0 0 1 -10,10 h-160 a10,10 0 0 1 -10,-10 v-28 A10,10 0 0 1 2.9290000000000003,2.9290000000000003"/></mask><path x="0" y="0" width="180" height="48" fill="#16181F" d="M10,0 h160 a10,10 0 0 1 10,10 v28 a10,10 0 0 1 -10,10 h-160 a10,10 0 0 1 -10,-10 v-28 a10,10 0 0 1 10,-10"/><path width="180" height="48" clip-path="url(#satori_bc-id)" fill="none" stroke="#2A2F3B" stroke-width="2" d="M2.9290000000000003,2.9290000000000003 A10,10 0 0 1 10,0 h160 a10,10 0 0 1 10,10 v28 a10,10 0 0 1 -10,10 h-160 a10,10 0 0 1 -10,-10 v-28 A10,10 0 0 1 2.9290000000000003,2.9290000000000003"/><mask id="satori_om-id-0"><rect x="53" y="20" width="9" height="9" fill="#fff"/></mask><path x="53" y="20" width="9" height="9" fill="#4F8CFF" d="M57.5,20 h0 a4.5,4.5 0 0 1 4.5,4.5 v0 a4.5,4.5 0 0 1 -4.5,4.5 h0 a4.5,4.5 0 0 1 -4.5,-4.5 v0 a4.5,4.5 0 0 1 4.5,-4.5"/><mask id="satori_om-id-1"><rect x="72" y="16" width="55" height="16" fill="#fff"/></mask><g  ><path fill="#ECEEF3" d="M78.9 29L72.9 29L72.9 19.5L74.8 19.5L74.8 27.4L78.9 27.4L78.9 29ZM82.1 29L80.2 29L80.2 21.9L82.1 21.9L82.1 29ZM81.1 21.0L81.1 21.0Q80.7 21.0 80.4 20.7Q80.1 20.4 80.1 20.0L80.1 20.0Q80.1 19.6 80.4 19.3Q80.7 19.0 81.1 19.0L81.1 19.0Q81.5 19.0 81.9 19.3Q82.2 19.6 82.2 20.0L82.2 20.0Q82.2 20.4 81.9 20.7Q81.5 21.0 81.1 21.0ZM85.6 24.9L85.6 24.9L85.6 29L83.7 29L83.7 21.9L85.5 21.9L85.5 23.4Q85.8 22.7 86.3 22.3L86.3 22.3Q86.8 21.8 87.7 21.8L87.7 21.8Q88.5 21.8 89.0 22.1Q89.6 22.5 89.9 23.1Q90.2 23.7 90.2 24.5L90.2 24.5L90.2 29L88.3 29L88.3 24.8Q88.3 24.2 87.9 23.8Q87.6 23.4 87.0 23.4L87.0 23.4Q86.6 23.4 86.3 23.6Q85.9 23.8 85.8 24.1Q85.6 24.4 85.6 24.9ZM93.7 29L91.8 29L91.8 19.5L93.7 19.5L93.7 24.6L93.8 24.6L96.1 21.9L98.3 21.9L95.7 25.0L98.5 29L96.2 29L94.2 26.1L93.7 26.7L93.7 29ZM102.5 29.1L102.5 29.1Q101.4 29.1 100.7 28.7Q99.9 28.3 99.4 27.4Q99.0 26.6 99.0 25.5L99.0 25.5Q99.0 24.4 99.4 23.6Q99.9 22.7 100.6 22.3Q101.4 21.8 102.4 21.8L102.4 21.8Q103.1 21.8 103.7 22.0Q104.3 22.3 104.8 22.7Q105.2 23.2 105.5 23.8Q105.8 24.5 105.8 25.4L105.8 25.4L105.8 25.9L100.9 25.9Q100.9 26.5 101.1 26.9L101.1 26.9Q101.3 27.3 101.7 27.5Q102.1 27.7 102.6 27.7L102.6 27.7Q102.9 27.7 103.2 27.6Q103.4 27.5 103.6 27.3Q103.8 27.1 103.9 26.9L103.9 26.9L105.7 27.2Q105.5 27.8 105.1 28.2Q104.6 28.7 104.0 28.9Q103.4 29.1 102.5 29.1ZM100.9 24.8L100.9 24.8L103.9 24.8Q103.9 24.4 103.8 24.1L103.8 24.1Q103.6 23.7 103.3 23.5Q102.9 23.2 102.4 23.2L102.4 23.2Q102.0 23.2 101.6 23.5Q101.3 23.7 101.1 24.1L101.1 24.1Q101.0 24.4 100.9 24.8ZM109.7 29.1L109.7 29.1Q108.8 29.1 108.2 28.7Q107.5 28.3 107.1 27.5Q106.8 26.6 106.8 25.5L106.8 25.5Q106.8 24.3 107.2 23.4Q107.6 22.6 108.2 22.2Q108.9 21.8 109.6 21.8L109.6 21.8Q110.3 21.8 110.7 22.0Q111.1 22.2 111.3 22.5Q111.5 22.8 111.7 23.1L111.7 23.1L111.7 23.1L111.7 19.5L113.6 19.5L113.6 29L111.8 29L111.8 27.9L111.7 27.9Q111.5 28.1 111.3 28.4Q111.0 28.7 110.6 28.9Q110.2 29.1 109.7 29.1ZM110.2 27.6L110.2 27.6Q110.7 27.6 111.1 27.3Q111.4 27.1 111.6 26.6Q111.8 26.1 111.8 25.5L111.8 25.5Q111.8 24.8 111.6 24.3Q111.4 23.9 111.1 23.6Q110.7 23.3 110.2 23.3L110.2 23.3Q109.7 23.3 109.4 23.6Q109.1 23.9 108.9 24.4Q108.7 24.8 108.7 25.5L108.7 25.5Q108.7 26.1 108.9 26.6Q109.1 27.0 109.4 27.3Q109.7 27.6 110.2 27.6ZM115.3 19.5L117.2 19.5L117.2 29L115.3 29L115.3 19.5ZM120.8 24.9L120.8 24.9L120.8 29L118.9 29L118.9 21.9L120.7 21.9L120.7 23.4Q121.0 22.7 121.5 22.3L121.5 22.3Q122.0 21.8 122.9 21.8L122.9 21.8Q123.7 21.8 124.2 22.1Q124.8 22.5 125.1 23.1Q125.4 23.7 125.4 24.5L125.4 24.5L125.4 29L123.5 29L123.5 24.8Q123.5 24.2 123.1 23.8Q122.8 23.4 122.2 23.4L122.2 23.4Q121.8 23.4 121.5 23.6Q121.2 23.8 121.0 24.1Q120.8 24.4 120.8 24.9Z "/></g></svg>