<!-- Generated by readme-aura https://github.com/collectioneur/readme-aura -->
<svg width="860" height="200" viewBox="0 0 860 200" xmlns="http://www.w3.org/2000/svg"><defs><clipPath id="satori_bc-id"><path x="0" y="0" width="860" height="200" d="M20,0 h820 a20,20 0 0 1 20,20 v160 a20,20 0 0 1 -20,20 h-820 a20,20 0 0 1 -20,-20 v-160 a20,20 0 0 1 20,-20"/></clipPath></defs><clipPath id="satori_cp-id"><path x="0" y="0" width="860" height="200" d="M20,0 h820 a20,20 0 0 1 20,20 v160 a20,20 0 0 1 -20,20 h-820 a20,20 0 0 1 -20,-20 v-160 a20,20 0 0 1 20,-20"/></clipPath><mask id="satori_om-id"><rect x="1" y="1" width="858" height="198" fill="#fff"/><path width="860" height="200" fill="none" stroke="#000" stroke-width="2" d="M5.8580000000000005,5.8580000000000005 A20,20 0 0 1 20,0 h820 a20,20 0 0 1 20,20 v160 a20,20 0 0 1 -20,20 h-820 a20,20 0 0 1 -20,-20 v-160 A20,20 0 0 1 5.8580000000000005,5.8580000000000005"/></mask><path x="0" y="0" width="860" height="200" fill="#0E0F14" d="M20,0 h820 a20,20 0 0 1 20,20 v160 a20,20 0 0 1 -20,20 h-820 a20,20 0 0 1 -20,-20 v-160 a20,20 0 0 1 20,-20"/><path width="860" height="200" clip-path="url(#satori_bc-id)" fill="none" stroke="#20242E" stroke-width="2" d="M5.8580000000000005,5.8580000000000005 A20,20 0 0 1 20,0 h820 a20,20 0 0 1 20,20 v160 a20,20 0 0 1 -20,20 h-820 a20,20 0 0 1 -20,-20 v-160 A20,20 0 0 1 5.8580000000000005,5.8580000000000005"/><mask id="satori_om-id-0"><rect x="1" y="1" width="858" height="198" fill="#fff" mask="url(#satori_om-id)"/></mask><mask id="satori_om-id-0-0"><rect x="35" y="27" width="790" height="15" fill="#fff" mask="url(#satori_om-id)"/></mask><mask id="satori_om-id-0-0-0"><rect x="35" y="31" width="8" height="8" fill="#fff" mask="url(#satori_om-id)"/></mask><path x="35" y="31" width="8" height="8" fill="#FF7A45" d="M37,31 h4 a2,2 0 0 1 2,2 v4 a2,2 0 0 1 -2,2 h-4 a2,2 0 0 1 -2,-2 v-4 a2,2 0 0 1 2,-2" clip-path="url(#satori_cp-id)" mask="url(#satori_om-id)"/><mask id="satori_om-id-0-0-1"><rect x="54" y="27" width="90" height="15" fill="#fff" mask="url(#satori_om-id)"/></mask><g mask="url(#satori_om-id)" clip-path="url(#satori_cp-id)"><path fill="#ECEEF3" d="M60.4 39L55.1 39L55.1 30.3L60.4 30.3L60.4 31.3L56.2 31.3L56.2 34.1L60.1 34.1L60.1 35.1L56.2 35.1L56.2 38.0L60.4 38.0L60.4 39ZM67.0 39L67.0 39L64.3 39L64.3 30.3L67.1 30.3Q68.4 30.3 69.3 30.8Q70.2 31.3 70.7 32.3Q71.2 33.3 71.2 34.6L71.2 34.6Q71.2 36.0 70.7 37.0Q70.2 37.9 69.3 38.5Q68.3 39 67.0 39ZM65.4 31.3L65.4 38.0L66.9 38.0Q68.0 38.0 68.7 37.6Q69.4 37.2 69.7 36.4Q70.1 35.7 70.1 34.6L70.1 34.6Q70.1 33.6 69.7 32.8Q69.4 32.1 68.7 31.7Q68.0 31.3 67.0 31.3L67.0 31.3L65.4 31.3ZM78.3 39.1L78.3 39.1Q77.3 39.1 76.5 38.7Q75.8 38.3 75.3 37.6Q74.9 36.9 74.9 36.0L74.9 36.0L74.9 30.3L76.0 30.3L76.0 35.9Q76.0 36.6 76.3 37.1Q76.6 37.5 77.1 37.8Q77.6 38.1 78.3 38.1L78.3 38.1Q79.1 38.1 79.6 37.8Q80.1 37.5 80.4 37.1Q80.6 36.6 80.6 35.9L80.6 35.9L80.6 30.3L81.7 30.3L81.7 36.0Q81.7 36.9 81.3 37.6Q80.9 38.3 80.1 38.7Q79.4 39.1 78.3 39.1ZM89.4 39.1L89.4 39.1Q88.3 39.1 87.4 38.6Q86.5 38.0 86.0 37.0Q85.5 36.0 85.5 34.6L85.5 34.6Q85.5 33.3 86.0 32.2Q86.5 31.2 87.4 30.7Q88.3 30.2 89.4 30.2L89.4 30.2Q90.1 30.2 90.6 30.3Q91.2 30.5 91.7 30.9Q92.2 31.3 92.5 31.8Q92.8 32.3 92.9 33.0L92.9 33.0L91.8 33.0Q91.7 32.6 91.5 32.2Q91.3 31.9 90.9 31.7Q90.6 31.4 90.2 31.3Q89.8 31.2 89.4 31.2L89.4 31.2Q88.6 31.2 88.0 31.6Q87.3 32.0 87.0 32.8Q86.6 33.5 86.6 34.6L86.6 34.6Q86.6 35.8 87.0 36.5Q87.3 37.3 88.0 37.7Q88.6 38.1 89.4 38.1L89.4 38.1Q89.8 38.1 90.2 38.0Q90.6 37.8 90.9 37.6Q91.3 37.4 91.5 37.0Q91.7 36.7 91.8 36.3L91.8 36.3L92.9 36.3Q92.8 36.9 92.5 37.4Q92.2 38.0 91.7 38.3Q91.2 38.7 90.6 38.9Q90.1 39.1 89.4 39.1ZM97.1 39L95.9 39L99.0 30.3L100.3 30.3L103.5 39L102.4 39L101.5 36.6L97.9 36.6L97.1 39ZM98.2 35.6L101.2 35.6L100.5 33.8Q100.3 33.3 100.1 32.6L100.1 32.6Q99.9 32.0 99.7 31.2L99.7 31.2Q99.4 32.0 99.2 32.6L99.2 32.6Q99.0 33.4 98.9 33.8L98.9 33.8L98.2 35.6ZM109.2 31.3L106.4 31.3L106.4 30.3L113.0 30.3L113.0 31.3L110.3 31.3L110.3 39L109.2 39L109.2 31.3ZM116.6 30.3L117.8 30.3L117.8 39L116.6 39L116.6 30.3ZM125.4 39.1L125.4 39.1Q124.3 39.1 123.4 38.6Q122.5 38.0 122.0 37.0Q121.5 36.0 121.5 34.6L121.5 34.6Q121.5 33.3 122.0 32.2Q122.5 31.2 123.4 30.7Q124.3 30.2 125.4 30.2L125.4 30.2Q126.5 30.2 127.4 30.7Q128.3 31.2 128.8 32.2Q129.3 33.3 129.3 34.6L129.3 34.6Q129.3 36.0 128.8 37.0Q128.3 38.0 127.4 38.6Q126.5 39.1 125.4 39.1ZM125.4 38.1L125.4 38.1Q126.2 38.1 126.8 37.7Q127.4 37.3 127.8 36.5Q128.2 35.8 128.2 34.6L128.2 34.6Q128.2 33.5 127.8 32.7Q127.4 32.0 126.8 31.6Q126.2 31.2 125.4 31.2L125.4 31.2Q124.6 31.2 124.0 31.6Q123.4 32.0 123.0 32.8Q122.6 33.5 122.6 34.6L122.6 34.6Q122.6 35.8 123.0 36.5Q123.4 37.3 124.0 37.7Q124.6 38.1 125.4 38.1ZM134.2 39L133.0 39L133.0 30.3L134.4 30.3L137.9 35.9Q138.1 36.1 138.3 36.4Q138.4 36.8 138.7 37.2L138.7 37.2Q138.8 37.4 138.9 37.7L138.9 37.7Q138.9 37.4 138.9 37.1L138.9 37.1Q138.9 36.7 138.9 36.3Q138.9 35.9 138.9 35.6L138.9 35.6L138.9 30.3L140.0 30.3L140.0 39L138.7 39L135.5 34.0Q135.3 33.7 135.1 33.3Q134.8 33.0 134.6 32.4L134.6 32.4Q134.3 32.1 134.1 31.6L134.1 31.6Q134.1 32.0 134.1 32.4L134.1 32.4Q134.1 33.0 134.2 33.4Q134.2 33.8 134.2 34.0L134.2 34.0L134.2 39Z "/></g><mask id="satori_om-id-0-0-2"><rect x="158" y="34" width="667" height="1" fill="#fff" mask="url(#satori_om-id)"/></mask><rect x="158" y="34" width="667" height="1" fill="#20242E" clip-path="url(#satori_cp-id)" mask="url(#satori_om-id)"/><mask id="satori_om-id-0-1"><rect x="35" y="60" width="790" height="113" fill="#fff" mask="url(#satori_om-id)"/></mask><defs><clipPath id="satori_bc-id-0-1-0" clip-path="url(#satori_cp-id)"><path x="35" y="60" width="387" height="113" d="M47,60 h363 a12,12 0 0 1 12,12 v89 a12,12 0 0 1 -12,12 h-363 a12,12 0 0 1 -12,-12 v-89 a12,12 0 0 1 12,-12"/></clipPath></defs><clipPath id="satori_cp-id-0-1-0" clip-path="url(#satori_cp-id)"><path x="35" y="60" width="387" height="113" d="M47,60 h363 a12,12 0 0 1 12,12 v89 a12,12 0 0 1 -12,12 h-363 a12,12 0 0 1 -12,-12 v-89 a12,12 0 0 1 12,-12"/></clipPath><mask id="satori_om-id-0-1-0"><rect x="36" y="61" width="385" height="111" fill="#fff" mask="url(#satori_om-id)"/><path width="387" height="113" fill="none" stroke="#000" stroke-width="2" d="M38.515,63.515 A12,12 0 0 1 47,60 h363 a12,12 0 0 1 12,12 v89 a12,12 0 0 1 -12,12 h-363 a12,12 0 0 1 -12,-12 v-89 A12,12 0 0 1 38.515,63.515"/></mask><path x="35" y="60" width="387" height="113" fill="#13141B" d="M47,60 h363 a12,12 0 0 1 12,12 v89 a12,12 0 0 1 -12,12 h-363 a12,12 0 0 1 -12,-12 v-89 a12,12 0 0 1 12,-12" clip-path="url(#satori_cp-id)" mask="url(#satori_om-id)"/><path width="387" height="113" clip-path="url(#satori_bc-id-0-1-0)" fill="none" stroke="#20242E" stroke-width="2" d="M38.515,63.515 A12,12 0 0 1 47,60 h363 a12,12 0 0 1 12,12 v89 a12,12 0 0 1 -12,12 h-363 a12,12 0 0 1 -12,-12 v-89 A12,12 0 0 1 38.515,63.515"/><mask id="satori_om-id-0-1-0-0"><rect x="36" y="61" width="3" height="111" fill="#fff" mask="url(#satori_om-id-0-1-0)"/></mask><rect x="36" y="61" width="3" height="111" fill="#FF7A45" clip-path="url(#satori_cp-id-0-1-0)" mask="url(#satori_om-id-0-1-0)"/><mask id="satori_om-id-0-1-0-1"><rect x="39" y="61" width="382" height="111" fill="#fff" mask="url(#satori_om-id-0-1-0)"/></mask><mask id="satori_om-id-0-1-0-1-0"><rect x="59" y="87" width="342" height="18" fill="#fff" mask="url(#satori_om-id-0-1-0)"/></mask><g mask="url(#satori_om-id-0-1-0)" clip-path="url(#satori_cp-id-0-1-0)"><path fill="#ECEEF3" d="M64.4 101L60.0 101L60.0 90.5L64.1 90.5Q65.3 90.5 66.1 90.8Q66.9 91.2 67.2 91.8Q67.6 92.4 67.6 93.2L67.6 93.2Q67.6 93.8 67.4 94.2Q67.1 94.7 66.7 95.0Q66.3 95.3 65.7 95.4L65.7 95.4L65.7 95.5Q66.3 95.6 66.8 95.9Q67.4 96.2 67.7 96.7Q68.0 97.3 68.0 98.1L68.0 98.1Q68.0 98.9 67.6 99.6Q67.2 100.2 66.4 100.6Q65.6 101 64.4 101L64.4 101ZM62.1 96.4L62.1 99.2L64.0 99.2Q64.9 99.2 65.4 98.9Q65.8 98.5 65.8 97.9L65.8 97.9Q65.8 97.4 65.6 97.1Q65.4 96.8 65.0 96.6Q64.6 96.4 64.0 96.4L64.0 96.4L62.1 96.4ZM62.1 92.2L62.1 94.9L63.8 94.9Q64.3 94.9 64.6 94.7Q65.0 94.6 65.2 94.2Q65.4 93.9 65.4 93.5L65.4 93.5Q65.4 92.9 65.0 92.6Q64.6 92.2 63.9 92.2L63.9 92.2L62.1 92.2ZM71.0 101.1L71.0 101.1Q70.5 101.1 70.1 100.8Q69.8 100.4 69.8 99.9L69.8 99.9Q69.8 99.4 70.1 99.0Q70.5 98.7 71.0 98.7L71.0 98.7Q71.5 98.7 71.9 99.0Q72.2 99.4 72.2 99.9L72.2 99.9Q72.2 100.4 71.9 100.8Q71.5 101.1 71.0 101.1ZM77.2 92.2L74.0 92.2L74.0 90.5L82.6 90.5L82.6 92.2L79.4 92.2L79.4 101L77.2 101L77.2 92.2ZM87.6 101.2L87.6 101.2Q86.4 101.2 85.5 100.7Q84.6 100.2 84.2 99.3Q83.7 98.3 83.7 97.1L83.7 97.1Q83.7 95.9 84.2 94.9Q84.6 94.0 85.5 93.5Q86.3 93.0 87.5 93.0L87.5 93.0Q88.3 93.0 88.9 93.2Q89.6 93.5 90.1 94.0Q90.6 94.5 90.9 95.2Q91.2 96.0 91.2 97.0L91.2 97.0L91.2 97.6L85.8 97.6Q85.8 98.2 86.0 98.6L86.0 98.6Q86.3 99.1 86.7 99.3Q87.1 99.6 87.6 99.6L87.6 99.6Q88.0 99.6 88.3 99.4Q88.6 99.3 88.8 99.1Q89.0 98.9 89.2 98.6L89.2 98.6L91.1 99.0Q90.9 99.6 90.4 100.1Q89.9 100.6 89.2 100.9Q88.5 101.2 87.6 101.2ZM85.8 96.3L85.8 96.3L89.2 96.3Q89.1 95.9 89.0 95.5L89.0 95.5Q88.8 95.1 88.4 94.8Q88.1 94.6 87.5 94.6L87.5 94.6Q87.0 94.6 86.6 94.8Q86.2 95.1 86.0 95.5L86.0 95.5Q85.8 95.9 85.8 96.3ZM96.2 101.2L96.2 101.2Q95.0 101.2 94.1 100.6Q93.3 100.1 92.8 99.2Q92.3 98.3 92.3 97.1L92.3 97.1Q92.3 95.8 92.8 94.9Q93.3 94.0 94.1 93.5Q95.0 93.0 96.2 93.0L96.2 93.0Q96.9 93.0 97.5 93.2Q98.1 93.4 98.5 93.7Q99.0 94.0 99.3 94.5Q99.6 95.0 99.7 95.6L99.7 95.6L97.7 96.0Q97.7 95.7 97.5 95.4Q97.4 95.2 97.2 95.0Q97.0 94.8 96.8 94.7Q96.5 94.7 96.2 94.7L96.2 94.7Q95.7 94.7 95.3 95.0Q94.9 95.3 94.7 95.8Q94.5 96.4 94.5 97.1L94.5 97.1Q94.5 97.8 94.7 98.3Q94.9 98.9 95.3 99.2Q95.7 99.5 96.2 99.5L96.2 99.5Q96.5 99.5 96.8 99.4Q97.0 99.3 97.2 99.1Q97.4 98.9 97.6 98.7Q97.7 98.4 97.8 98.1L97.8 98.1L99.7 98.5Q99.6 99.1 99.3 99.6Q99.0 100.1 98.6 100.4Q98.1 100.8 97.5 101.0Q96.9 101.2 96.2 101.2ZM103.3 96.4L103.3 96.4L103.3 101L101.2 101L101.2 90.5L103.3 90.5L103.3 94.6Q103.6 93.9 104.1 93.5L104.1 93.5Q104.7 93.0 105.7 93.0L105.7 93.0Q106.5 93.0 107.1 93.3Q107.7 93.7 108.1 94.4Q108.4 95.0 108.4 96.0L108.4 96.0L108.4 101L106.3 101L106.3 96.3Q106.3 95.6 105.9 95.2Q105.5 94.8 104.9 94.8L104.9 94.8Q104.4 94.8 104.1 95.0Q103.7 95.2 103.5 95.5Q103.3 95.9 103.3 96.4Z M115.2 97.2L115.2 97.2Q114.6 97.2 114.3 96.9Q113.9 96.5 113.9 96.0L113.9 96.0Q113.9 95.5 114.3 95.1Q114.6 94.8 115.2 94.8L115.2 94.8Q115.7 94.8 116.0 95.1Q116.4 95.5 116.4 96.0L116.4 96.0Q116.4 96.5 116.0 96.9Q115.7 97.2 115.2 97.2Z M126.6 101.1L126.6 101.1Q125.2 101.1 124.1 100.5Q123.0 99.9 122.3 98.7Q121.7 97.4 121.7 95.7L121.7 95.7Q121.7 94.0 122.3 92.8Q123.0 91.6 124.1 90.9Q125.2 90.3 126.6 90.3L126.6 90.3Q127.5 90.3 128.3 90.6Q129.0 90.8 129.6 91.3Q130.2 91.8 130.6 92.5Q131.0 93.2 131.1 94.1L131.1 94.1L128.9 94.1Q128.9 93.6 128.7 93.3Q128.5 92.9 128.2 92.7Q127.9 92.5 127.5 92.4Q127.1 92.2 126.6 92.2L126.6 92.2Q125.8 92.2 125.2 92.6Q124.6 93.0 124.2 93.8Q123.9 94.6 123.9 95.7L123.9 95.7Q123.9 96.9 124.2 97.7Q124.6 98.4 125.2 98.8Q125.8 99.2 126.6 99.2L126.6 99.2Q127.1 99.2 127.5 99.1Q127.8 99.0 128.2 98.7Q128.5 98.5 128.7 98.2Q128.9 97.8 128.9 97.4L128.9 97.4L131.1 97.4Q131.0 98.1 130.7 98.8Q130.3 99.5 129.8 100.0Q129.2 100.5 128.4 100.8Q127.6 101.1 126.6 101.1ZM136.2 101.2L136.2 101.2Q135.0 101.2 134.1 100.6Q133.3 100.1 132.8 99.2Q132.3 98.3 132.3 97.1L132.3 97.1Q132.3 95.8 132.8 94.9Q133.3 94.0 134.1 93.5Q135.0 93.0 136.2 93.0L136.2 93.0Q137.4 93.0 138.3 93.5Q139.1 94.0 139.6 94.9Q140.1 95.8 140.1 97.1L140.1 97.1Q140.1 98.3 139.6 99.2Q139.1 100.1 138.3 100.6Q137.4 101.2 136.2 101.2ZM136.2 99.5L136.2 99.5Q136.8 99.5 137.1 99.2Q137.5 98.9 137.7 98.3Q137.9 97.8 137.9 97.1L137.9 97.1Q137.9 96.4 137.7 95.8Q137.5 95.3 137.1 95.0Q136.8 94.7 136.2 94.7L136.2 94.7Q135.6 94.7 135.2 95.0Q134.9 95.3 134.7 95.8Q134.5 96.4 134.5 97.1L134.5 97.1Q134.5 97.8 134.7 98.3Q134.9 98.9 135.2 99.2Q135.6 99.5 136.2 99.5ZM143.7 101L141.5 101L141.5 93.1L143.5 93.1L143.6 94.6Q143.8 94.2 144.0 93.9L144.0 93.9Q144.4 93.4 144.8 93.2Q145.3 93.0 145.9 93.0L145.9 93.0Q146.7 93.0 147.2 93.5L147.2 93.5Q147.7 93.9 147.9 94.7L147.9 94.7Q148.1 94.3 148.3 93.9L148.3 93.9Q148.7 93.4 149.3 93.2Q149.8 93.0 150.4 93.0L150.4 93.0Q151.2 93.0 151.7 93.3Q152.3 93.6 152.6 94.2Q153.0 94.8 153.0 95.7L153.0 95.7L153.0 101L150.8 101L150.8 96.1Q150.8 95.4 150.5 95.1Q150.1 94.7 149.6 94.7L149.6 94.7Q149.2 94.7 148.9 94.9Q148.6 95.1 148.4 95.4Q148.3 95.7 148.3 96.1L148.3 96.1L148.3 101L146.2 101L146.2 96.0Q146.2 95.4 145.9 95.1Q145.5 94.7 145.0 94.7L145.0 94.7Q144.6 94.7 144.3 94.9Q144.0 95.1 143.8 95.4Q143.7 95.7 143.7 96.2L143.7 96.2L143.7 101ZM156.9 104.0L154.8 104.0L154.8 93.1L156.9 93.1L156.9 94.4L157.0 94.4Q157.1 94.1 157.4 93.8Q157.7 93.4 158.1 93.2Q158.6 93.0 159.2 93.0L159.2 93.0Q160.1 93.0 160.8 93.4Q161.6 93.9 162.0 94.8Q162.4 95.7 162.4 97.1L162.4 97.1Q162.4 98.4 162.0 99.3Q161.6 100.2 160.9 100.7Q160.1 101.1 159.2 101.1L159.2 101.1Q158.6 101.1 158.1 100.9Q157.7 100.7 157.4 100.4Q157.1 100.1 157.0 99.7L157.0 99.7L156.9 99.7L156.9 104.0ZM158.6 99.4L158.6 99.4Q159.1 99.4 159.5 99.1Q159.9 98.8 160.1 98.3Q160.3 97.7 160.3 97.0L160.3 97.0Q160.3 96.4 160.1 95.8Q159.9 95.3 159.5 95.0Q159.1 94.7 158.6 94.7L158.6 94.7Q158.0 94.7 157.6 95.0Q157.3 95.3 157.1 95.8Q156.9 96.3 156.9 97.0L156.9 97.0Q156.9 97.8 157.1 98.3Q157.3 98.8 157.6 99.1Q158.0 99.4 158.6 99.4ZM166.6 101.1L166.6 101.1Q165.8 101.1 165.2 100.7Q164.6 100.4 164.3 99.7Q163.9 99.0 163.9 98.1L163.9 98.1L163.9 93.1L166.0 93.1L166.0 97.8Q166.0 98.5 166.4 98.9Q166.8 99.3 167.5 99.3L167.5 99.3Q167.9 99.3 168.3 99.1Q168.6 98.9 168.8 98.6Q169.0 98.2 169.0 97.7L169.0 97.7L169.0 93.1L171.1 93.1L171.1 101L169.1 101L169.1 99.4Q168.8 100.1 168.3 100.6L168.3 100.6Q167.6 101.1 166.6 101.1ZM175.4 93.1L176.9 93.1L176.9 94.7L175.4 94.7L175.4 98.7Q175.4 99.1 175.6 99.2Q175.7 99.4 176.1 99.4L176.1 99.4Q176.2 99.4 176.5 99.4Q176.7 99.4 176.8 99.3L176.8 99.3L177.1 100.9Q176.7 101.0 176.4 101.1Q176.0 101.1 175.7 101.1L175.7 101.1Q174.5 101.1 173.9 100.5Q173.3 100.0 173.3 98.9L173.3 98.9L173.3 94.7L172.2 94.7L172.2 93.1L173.3 93.1L173.3 91.2L175.4 91.2L175.4 93.1ZM181.8 101.2L181.8 101.2Q180.6 101.2 179.7 100.7Q178.9 100.2 178.4 99.3Q177.9 98.3 177.9 97.1L177.9 97.1Q177.9 95.9 178.4 94.9Q178.9 94.0 179.7 93.5Q180.6 93.0 181.7 93.0L181.7 93.0Q182.5 93.0 183.2 93.2Q183.9 93.5 184.4 94.0Q184.9 94.5 185.2 95.2Q185.4 96.0 185.4 97.0L185.4 97.0L185.4 97.6L180.0 97.6Q180.0 98.2 180.3 98.6L180.3 98.6Q180.5 99.1 180.9 99.3Q181.3 99.6 181.9 99.6L181.9 99.6Q182.2 99.6 182.5 99.4Q182.9 99.3 183.1 99.1Q183.3 98.9 183.4 98.6L183.4 98.6L185.3 99.0Q185.1 99.6 184.7 100.1Q184.2 100.6 183.5 100.9Q182.8 101.2 181.8 101.2ZM180.0 96.3L180.0 96.3L183.4 96.3Q183.4 95.9 183.2 95.5L183.2 95.5Q183.0 95.1 182.7 94.8Q182.3 94.6 181.7 94.6L181.7 94.6Q181.2 94.6 180.8 94.8Q180.4 95.1 180.2 95.5L180.2 95.5Q180.1 95.9 180.0 96.3ZM189.0 101L186.9 101L186.9 93.1L188.9 93.1L188.9 94.5L189.0 94.5Q189.3 93.7 189.8 93.4Q190.3 93.0 190.9 93.0L190.9 93.0Q191.1 93.0 191.3 93.0Q191.5 93.0 191.6 93.0L191.6 93.0L191.6 94.9Q191.5 94.9 191.2 94.9Q191.0 94.8 190.7 94.8L190.7 94.8Q190.2 94.8 189.8 95.0Q189.5 95.3 189.2 95.6Q189.0 96.0 189.0 96.5L189.0 96.5L189.0 101Z M200.1 101.2L200.1 101.2Q198.9 101.2 197.9 100.8Q197.0 100.4 196.5 99.6Q196.0 98.8 195.9 97.7L195.9 97.7L198.0 97.7Q198.1 98.3 198.4 98.6Q198.6 99.0 199.1 99.2Q199.5 99.3 200.1 99.3L200.1 99.3Q200.7 99.3 201.1 99.2Q201.6 99.0 201.8 98.7Q202.0 98.4 202.0 98.0L202.0 98.0Q202.0 97.6 201.8 97.4Q201.6 97.1 201.2 97.0Q200.8 96.8 200.2 96.6L200.2 96.6L199.1 96.4Q197.7 96.0 197.0 95.3Q196.2 94.6 196.2 93.5L196.2 93.5Q196.2 92.5 196.7 91.8Q197.2 91.1 198.1 90.7Q199.0 90.3 200.2 90.3L200.2 90.3Q201.3 90.3 202.2 90.7Q203.1 91.1 203.6 91.8Q204.1 92.5 204.1 93.5L204.1 93.5L202.0 93.5Q201.9 92.8 201.4 92.5Q201.0 92.1 200.2 92.1L200.2 92.1Q199.6 92.1 199.2 92.3Q198.8 92.4 198.6 92.7Q198.4 93.0 198.4 93.3L198.4 93.3Q198.4 93.7 198.7 94.0Q198.9 94.3 199.3 94.4Q199.7 94.6 200.1 94.7L200.1 94.7L201.1 94.9Q201.7 95.1 202.3 95.3Q202.9 95.6 203.3 95.9Q203.7 96.3 204.0 96.8Q204.2 97.3 204.2 98.0L204.2 98.0Q204.2 99.0 203.7 99.7Q203.3 100.4 202.3 100.8Q201.4 101.2 200.1 101.2ZM209.3 101.2L209.3 101.2Q208.1 101.2 207.2 100.6Q206.3 100.1 205.9 99.2Q205.4 98.3 205.4 97.1L205.4 97.1Q205.4 95.8 205.9 94.9Q206.3 94.0 207.2 93.5Q208.1 93.0 209.3 93.0L209.3 93.0Q210.0 93.0 210.6 93.2Q211.2 93.4 211.6 93.7Q212.1 94.0 212.4 94.5Q212.7 95.0 212.8 95.6L212.8 95.6L210.8 96.0Q210.7 95.7 210.6 95.4Q210.5 95.2 210.3 95.0Q210.1 94.8 209.8 94.7Q209.6 94.7 209.3 94.7L209.3 94.7Q208.7 94.7 208.3 95.0Q208.0 95.3 207.8 95.8Q207.6 96.4 207.6 97.1L207.6 97.1Q207.6 97.8 207.8 98.3Q208.0 98.9 208.3 99.2Q208.7 99.5 209.3 99.5L209.3 99.5Q209.6 99.5 209.8 99.4Q210.1 99.3 210.3 99.1Q210.5 98.9 210.6 98.7Q210.8 98.4 210.8 98.1L210.8 98.1L212.8 98.5Q212.7 99.1 212.4 99.6Q212.1 100.1 211.6 100.4Q211.2 100.8 210.6 101.0Q210.0 101.2 209.3 101.2ZM216.4 101L214.3 101L214.3 93.1L216.4 93.1L216.4 101ZM215.3 92.1L215.3 92.1Q214.8 92.1 214.5 91.7Q214.2 91.4 214.2 91.0L214.2 91.0Q214.2 90.5 214.5 90.2Q214.8 89.9 215.3 89.9L215.3 89.9Q215.8 89.9 216.1 90.2Q216.5 90.5 216.5 91.0L216.5 91.0Q216.5 91.4 216.1 91.7Q215.8 92.1 215.3 92.1ZM221.8 101.2L221.8 101.2Q220.6 101.2 219.7 100.7Q218.8 100.2 218.3 99.3Q217.9 98.3 217.9 97.1L217.9 97.1Q217.9 95.9 218.3 94.9Q218.8 94.0 219.6 93.5Q220.5 93.0 221.7 93.0L221.7 93.0Q222.4 93.0 223.1 93.2Q223.8 93.5 224.3 94.0Q224.8 94.5 225.1 95.2Q225.4 96.0 225.4 97.0L225.4 97.0L225.4 97.6L220.0 97.6Q220.0 98.2 220.2 98.6L220.2 98.6Q220.4 99.1 220.8 99.3Q221.2 99.6 221.8 99.6L221.8 99.6Q222.2 99.6 222.5 99.4Q222.8 99.3 223.0 99.1Q223.2 98.9 223.3 98.6L223.3 98.6L225.3 99.0Q225.1 99.6 224.6 100.1Q224.1 100.6 223.4 100.9Q222.7 101.2 221.8 101.2ZM220.0 96.3L220.0 96.3L223.3 96.3Q223.3 95.9 223.2 95.5L223.2 95.5Q223.0 95.1 222.6 94.8Q222.2 94.6 221.7 94.6L221.7 94.6Q221.1 94.6 220.7 94.8Q220.4 95.1 220.2 95.5L220.2 95.5Q220.0 95.9 220.0 96.3ZM229.0 96.4L229.0 96.4L229.0 101L226.8 101L226.8 93.1L228.8 93.1L228.9 94.7Q229.2 94.0 229.7 93.5L229.7 93.5Q230.3 93.0 231.3 93.0L231.3 93.0Q232.1 93.0 232.8 93.3Q233.4 93.7 233.7 94.4Q234.0 95.0 234.0 96.0L234.0 96.0L234.0 101L231.9 101L231.9 96.3Q231.9 95.6 231.5 95.2Q231.2 94.8 230.5 94.8L230.5 94.8Q230.0 94.8 229.7 95.0Q229.3 95.2 229.1 95.5Q229.0 95.9 229.0 96.4ZM239.4 101.2L239.4 101.2Q238.2 101.2 237.3 100.6Q236.5 100.1 236.0 99.2Q235.5 98.3 235.5 97.1L235.5 97.1Q235.5 95.8 236.0 94.9Q236.5 94.0 237.3 93.5Q238.2 93.0 239.4 93.0L239.4 93.0Q240.1 93.0 240.7 93.2Q241.3 93.4 241.7 93.7Q242.2 94.0 242.5 94.5Q242.8 95.0 242.9 95.6L242.9 95.6L240.9 96.0Q240.9 95.7 240.7 95.4Q240.6 95.2 240.4 95.0Q240.2 94.8 240.0 94.7Q239.7 94.7 239.4 94.7L239.4 94.7Q238.8 94.7 238.5 95.0Q238.1 95.3 237.9 95.8Q237.7 96.4 237.7 97.1L237.7 97.1Q237.7 97.8 237.9 98.3Q238.1 98.9 238.5 99.2Q238.8 99.5 239.4 99.5L239.4 99.5Q239.7 99.5 240.0 99.4Q240.2 99.3 240.4 99.1Q240.6 98.9 240.8 98.7Q240.9 98.4 241.0 98.1L241.0 98.1L242.9 98.5Q242.8 99.1 242.5 99.6Q242.2 100.1 241.8 100.4Q241.3 100.8 240.7 101.0Q240.1 101.2 239.4 101.2ZM248.0 101.2L248.0 101.2Q246.7 101.2 245.9 100.7Q245.0 100.2 244.5 99.3Q244.1 98.3 244.1 97.1L244.1 97.1Q244.1 95.9 244.5 94.9Q245.0 94.0 245.8 93.5Q246.7 93.0 247.9 93.0L247.9 93.0Q248.6 93.0 249.3 93.2Q250.0 93.5 250.5 94.0Q251.0 94.5 251.3 95.2Q251.6 96.0 251.6 97.0L251.6 97.0L251.6 97.6L246.2 97.6Q246.2 98.2 246.4 98.6L246.4 98.6Q246.6 99.1 247.0 99.3Q247.4 99.6 248.0 99.6L248.0 99.6Q248.4 99.6 248.7 99.4Q249.0 99.3 249.2 99.1Q249.4 98.9 249.5 98.6L249.5 98.6L251.5 99.0Q251.3 99.6 250.8 100.1Q250.3 100.6 249.6 100.9Q248.9 101.2 248.0 101.2ZM246.2 96.3L246.2 96.3L249.5 96.3Q249.5 95.9 249.4 95.5L249.4 95.5Q249.2 95.1 248.8 94.8Q248.4 94.6 247.9 94.6L247.9 94.6Q247.3 94.6 246.9 94.8Q246.6 95.1 246.4 95.5L246.4 95.5Q246.2 95.9 246.2 96.3Z M259.6 101.2L259.6 101.2Q258.6 101.2 257.8 100.8Q257.0 100.4 256.5 99.7Q256.1 99.0 256.1 98.2L256.1 98.2Q256.1 97.6 256.4 97.1Q256.6 96.6 257.1 96.2L257.1 96.2Q257.5 95.8 258.1 95.4L258.1 95.4Q258.0 95.4 258.0 95.3L258.0 95.3Q257.6 94.8 257.3 94.2Q257.0 93.7 257.0 93.0L257.0 93.0Q257.0 92.2 257.4 91.6Q257.8 91.0 258.4 90.7Q259.0 90.3 259.9 90.3L259.9 90.3Q260.7 90.3 261.4 90.7Q262.0 91.0 262.3 91.6Q262.6 92.1 262.6 92.8L262.6 92.8Q262.6 93.3 262.5 93.7Q262.3 94.2 262.0 94.5Q261.7 94.9 261.2 95.2L261.2 95.2L260.6 95.7L262.4 97.7Q262.5 97.5 262.6 97.3L262.6 97.3Q262.8 96.7 262.8 95.9L262.8 95.9L264.6 95.9Q264.6 96.9 264.4 97.6Q264.2 98.4 263.8 99.0L263.8 99.0Q263.7 99.1 263.6 99.2L263.6 99.2L265.2 101L263.0 101L262.4 100.3Q261.8 100.7 261.1 100.9L261.1 100.9Q260.4 101.2 259.6 101.2ZM261.2 99.0L259.2 96.7L259.1 96.8Q258.6 97.1 258.4 97.4Q258.2 97.7 258.2 98.1L258.2 98.1Q258.2 98.5 258.4 98.8Q258.6 99.1 258.9 99.3Q259.3 99.4 259.7 99.4L259.7 99.4Q260.3 99.4 260.8 99.2L260.8 99.2Q261.0 99.1 261.2 99.0L261.2 99.0ZM259.6 94.4L259.6 94.4L260.1 94.1Q260.3 93.9 260.5 93.7Q260.7 93.6 260.8 93.4Q260.9 93.1 260.9 92.9L260.9 92.9Q260.9 92.5 260.6 92.3Q260.4 92.0 259.9 92.0L259.9 92.0Q259.6 92.0 259.4 92.2Q259.1 92.3 259.0 92.5Q258.9 92.7 258.9 93.0L258.9 93.0Q258.9 93.4 259.1 93.7Q259.2 94.0 259.5 94.4L259.5 94.4Q259.5 94.4 259.6 94.4Z M276.8 101L269.7 101L269.7 90.5L276.7 90.5L276.7 92.2L271.8 92.2L271.8 94.8L276.4 94.8L276.4 96.6L271.8 96.6L271.8 99.2L276.8 99.2L276.8 101ZM280.6 96.4L280.6 96.4L280.6 101L278.4 101L278.4 93.1L280.4 93.1L280.5 94.7Q280.8 94.0 281.3 93.5L281.3 93.5Q281.9 93.0 282.9 93.0L282.9 93.0Q283.8 93.0 284.4 93.3Q285.0 93.7 285.3 94.4Q285.7 95.0 285.7 96.0L285.7 96.0L285.7 101L283.5 101L283.5 96.3Q283.5 95.6 283.2 95.2Q282.8 94.8 282.1 94.8L282.1 94.8Q281.7 94.8 281.3 95.0Q281.0 95.2 280.8 95.5Q280.6 95.9 280.6 96.4ZM291.0 104.1L291.0 104.1Q290.0 104.1 289.3 103.9Q288.5 103.6 288.1 103.2Q287.6 102.7 287.4 102.2L287.4 102.2L289.3 101.7Q289.4 101.9 289.6 102.1Q289.8 102.3 290.1 102.5Q290.5 102.6 291.0 102.6L291.0 102.6Q291.8 102.6 292.2 102.2Q292.7 101.8 292.7 101.1L292.7 101.1L292.7 99.6L292.6 99.6Q292.4 99.9 292.1 100.2Q291.9 100.5 291.4 100.7Q291 100.9 290.4 100.9L290.4 100.9Q289.5 100.9 288.7 100.5Q288.0 100.1 287.6 99.2Q287.1 98.3 287.1 97.0L287.1 97.0Q287.1 95.7 287.6 94.8Q288.0 93.9 288.8 93.4Q289.5 93.0 290.4 93.0L290.4 93.0Q291.0 93.0 291.5 93.2Q291.9 93.4 292.2 93.8Q292.5 94.1 292.6 94.4L292.6 94.4L292.7 94.4L292.7 93.1L294.8 93.1L294.8 100.9Q294.8 102.0 294.3 102.7Q293.8 103.4 293.0 103.8Q292.1 104.1 291.0 104.1ZM291.0 99.3L291.0 99.3Q291.6 99.3 291.9 99.0Q292.3 98.7 292.5 98.2Q292.7 97.7 292.7 97.0L292.7 97.0Q292.7 96.3 292.5 95.8Q292.3 95.3 291.9 95.0Q291.6 94.7 291.0 94.7L291.0 94.7Q290.5 94.7 290.1 95.0Q289.7 95.3 289.5 95.8Q289.3 96.3 289.3 97.0L289.3 97.0Q289.3 97.7 289.5 98.2Q289.7 98.7 290.1 99.0Q290.5 99.3 291.0 99.3ZM298.8 101L296.6 101L296.6 93.1L298.8 93.1L298.8 101ZM297.7 92.1L297.7 92.1Q297.2 92.1 296.9 91.7Q296.5 91.4 296.5 91.0L296.5 91.0Q296.5 90.5 296.9 90.2Q297.2 89.9 297.7 89.9L297.7 89.9Q298.2 89.9 298.5 90.2Q298.9 90.5 298.9 91.0L298.9 91.0Q298.9 91.4 298.5 91.7Q298.2 92.1 297.7 92.1ZM302.7 96.4L302.7 96.4L302.7 101L300.6 101L300.6 93.1L302.6 93.1L302.6 94.7Q302.9 94.0 303.4 93.5L303.4 93.5Q304.0 93.0 305.1 93.0L305.1 93.0Q305.9 93.0 306.5 93.3Q307.1 93.7 307.4 94.4Q307.8 95.0 307.8 96.0L307.8 96.0L307.8 101L305.6 101L305.6 96.3Q305.6 95.6 305.3 95.2Q304.9 94.8 304.2 94.8L304.2 94.8Q303.8 94.8 303.4 95.0Q303.1 95.2 302.9 95.5Q302.7 95.9 302.7 96.4ZM313.2 101.2L313.2 101.2Q311.9 101.2 311.1 100.7Q310.2 100.2 309.7 99.3Q309.3 98.3 309.3 97.1L309.3 97.1Q309.3 95.9 309.7 94.9Q310.2 94.0 311.0 93.5Q311.9 93.0 313.1 93.0L313.1 93.0Q313.8 93.0 314.5 93.2Q315.2 93.5 315.7 94.0Q316.2 94.5 316.5 95.2Q316.8 96.0 316.8 97.0L316.8 97.0L316.8 97.6L311.4 97.6Q311.4 98.2 311.6 98.6L311.6 98.6Q311.8 99.1 312.2 99.3Q312.6 99.6 313.2 99.6L313.2 99.6Q313.6 99.6 313.9 99.4Q314.2 99.3 314.4 99.1Q314.6 98.9 314.7 98.6L314.7 98.6L316.7 99.0Q316.5 99.6 316.0 100.1Q315.5 100.6 314.8 100.9Q314.1 101.2 313.2 101.2ZM311.4 96.3L311.4 96.3L314.7 96.3Q314.7 95.9 314.6 95.5L314.6 95.5Q314.4 95.1 314.0 94.8Q313.6 94.6 313.1 94.6L313.1 94.6Q312.5 94.6 312.1 94.8Q311.8 95.1 311.6 95.5L311.6 95.5Q311.4 95.9 311.4 96.3ZM321.8 101.2L321.8 101.2Q320.6 101.2 319.7 100.7Q318.8 100.2 318.4 99.3Q317.9 98.3 317.9 97.1L317.9 97.1Q317.9 95.9 318.4 94.9Q318.8 94.0 319.7 93.5Q320.5 93.0 321.7 93.0L321.7 93.0Q322.5 93.0 323.1 93.2Q323.8 93.5 324.3 94.0Q324.8 94.5 325.1 95.2Q325.4 96.0 325.4 97.0L325.4 97.0L325.4 97.6L320.0 97.6Q320.0 98.2 320.2 98.6L320.2 98.6Q320.5 99.1 320.9 99.3Q321.3 99.6 321.8 99.6L321.8 99.6Q322.2 99.6 322.5 99.4Q322.8 99.3 323.0 99.1Q323.2 98.9 323.4 98.6L323.4 98.6L325.3 99.0Q325.1 99.6 324.6 100.1Q324.1 100.6 323.4 100.9Q322.7 101.2 321.8 101.2ZM320.0 96.3L320.0 96.3L323.4 96.3Q323.3 95.9 323.2 95.5L323.2 95.5Q323.0 95.1 322.6 94.8Q322.3 94.6 321.7 94.6L321.7 94.6Q321.2 94.6 320.8 94.8Q320.4 95.1 320.2 95.5L320.2 95.5Q320.0 95.9 320.0 96.3ZM329.0 101L326.9 101L326.9 93.1L328.9 93.1L328.9 94.5L329.0 94.5Q329.2 93.7 329.7 93.4Q330.2 93.0 330.9 93.0L330.9 93.0Q331.1 93.0 331.3 93.0Q331.5 93.0 331.6 93.0L331.6 93.0L331.6 94.9Q331.5 94.9 331.2 94.9Q330.9 94.8 330.7 94.8L330.7 94.8Q330.2 94.8 329.8 95.0Q329.4 95.3 329.2 95.6Q329.0 96.0 329.0 96.5L329.0 96.5L329.0 101ZM334.9 101L332.8 101L332.8 93.1L334.9 93.1L334.9 101ZM333.8 92.1L333.8 92.1Q333.3 92.1 333.0 91.7Q332.7 91.4 332.7 91.0L332.7 91.0Q332.7 90.5 333.0 90.2Q333.3 89.9 333.8 89.9L333.8 89.9Q334.3 89.9 334.7 90.2Q335.0 90.5 335.0 91.0L335.0 91.0Q335.0 91.4 334.7 91.7Q334.3 92.1 333.8 92.1ZM338.8 96.4L338.8 96.4L338.8 101L336.7 101L336.7 93.1L338.7 93.1L338.7 94.7Q339.0 94.0 339.6 93.5L339.6 93.5Q340.2 93.0 341.2 93.0L341.2 93.0Q342.0 93.0 342.6 93.3Q343.2 93.7 343.6 94.4Q343.9 95.0 343.9 96.0L343.9 96.0L343.9 101L341.8 101L341.8 96.3Q341.8 95.6 341.4 95.2Q341.0 94.8 340.4 94.8L340.4 94.8Q339.9 94.8 339.6 95.0Q339.2 95.2 339.0 95.5Q338.8 95.9 338.8 96.4ZM349.2 104.1L349.2 104.1Q348.2 104.1 347.5 103.9Q346.8 103.6 346.3 103.2Q345.9 102.7 345.7 102.2L345.7 102.2L347.5 101.7Q347.6 101.9 347.8 102.1Q348.0 102.3 348.4 102.5Q348.7 102.6 349.2 102.6L349.2 102.6Q350.0 102.6 350.5 102.2Q351.0 101.8 351.0 101.1L351.0 101.1L351.0 99.6L350.8 99.6Q350.7 99.9 350.4 100.2Q350.1 100.5 349.7 100.7Q349.3 100.9 348.6 100.9L348.6 100.9Q347.7 100.9 347.0 100.5Q346.3 100.1 345.8 99.2Q345.4 98.3 345.4 97.0L345.4 97.0Q345.4 95.7 345.8 94.8Q346.3 93.9 347.0 93.4Q347.7 93.0 348.6 93.0L348.6 93.0Q349.3 93.0 349.7 93.2Q350.2 93.4 350.5 93.8Q350.7 94.1 350.9 94.4L350.9 94.4L351.0 94.4L351.0 93.1L353.1 93.1L353.1 100.9Q353.1 102.0 352.6 102.7Q352.1 103.4 351.2 103.8Q350.4 104.1 349.2 104.1ZM349.3 99.3L349.3 99.3Q349.8 99.3 350.2 99.0Q350.6 98.7 350.8 98.2Q351.0 97.7 351.0 97.0L351.0 97.0Q351.0 96.3 350.8 95.8Q350.6 95.3 350.2 95.0Q349.8 94.7 349.3 94.7L349.3 94.7Q348.7 94.7 348.3 95.0Q348.0 95.3 347.8 95.8Q347.6 96.3 347.6 97.0L347.6 97.0Q347.6 97.7 347.8 98.2Q348.0 98.7 348.3 99.0Q348.7 99.3 349.3 99.3Z "/></g><mask id="satori_om-id-0-1-0-1-1"><rect x="59" y="111" width="342" height="15" fill="#fff" mask="url(#satori_om-id-0-1-0)"/></mask><g mask="url(#satori_om-id-0-1-0)" clip-path="url(#satori_cp-id-0-1-0)"><path fill="#98A2B3" d="M63.0 123.2L63.0 123.2Q62.0 123.2 61.3 122.8Q60.6 122.5 60.2 122.0Q59.8 121.4 59.7 120.6L59.7 120.6L60.9 120.6Q60.9 121.1 61.2 121.5Q61.5 121.8 62.0 122.0Q62.5 122.1 63.0 122.1L63.0 122.1Q63.6 122.1 64.1 121.9Q64.6 121.7 64.9 121.4Q65.2 121.0 65.2 120.5L65.2 120.5Q65.2 120.1 64.9 119.8Q64.7 119.5 64.3 119.3Q63.9 119.2 63.4 119.0L63.4 119.0L62.3 118.7Q61.2 118.4 60.6 117.8Q60.0 117.2 60.0 116.3L60.0 116.3Q60.0 115.6 60.4 115.0Q60.8 114.4 61.5 114.1Q62.2 113.8 63.1 113.8L63.1 113.8Q64.0 113.8 64.7 114.1Q65.4 114.4 65.8 115.0Q66.2 115.5 66.2 116.2L66.2 116.2L65.1 116.2Q65.0 115.5 64.4 115.2Q63.9 114.8 63.1 114.8L63.1 114.8Q62.5 114.8 62.0 115.0Q61.6 115.2 61.3 115.5Q61.1 115.9 61.1 116.3L61.1 116.3Q61.1 116.8 61.4 117.1Q61.7 117.3 62.1 117.5Q62.5 117.7 62.8 117.8L62.8 117.8L63.7 118.0Q64.1 118.1 64.5 118.3Q65.0 118.4 65.4 118.7Q65.8 119.0 66.1 119.5Q66.3 119.9 66.3 120.5L66.3 120.5Q66.3 121.3 65.9 121.9Q65.5 122.5 64.8 122.8Q64.1 123.2 63.0 123.2ZM69.3 123L68.1 123L68.1 113.9L71.2 113.9Q72.3 113.9 73.0 114.3Q73.7 114.6 74.0 115.3Q74.3 115.9 74.3 116.7Q74.3 117.5 74.0 118.1Q73.7 118.8 73.0 119.1L73.0 119.1Q72.8 119.2 72.6 119.3L72.6 119.3L74.7 123L73.3 123L71.5 119.5Q71.3 119.5 71.2 119.5L71.2 119.5L69.3 119.5L69.3 123ZM69.3 114.9L69.3 118.4L71.2 118.4Q71.9 118.4 72.3 118.2Q72.8 118.0 73.0 117.6Q73.2 117.2 73.2 116.7L73.2 116.7Q73.2 116.2 73.0 115.8Q72.8 115.4 72.3 115.1Q71.9 114.9 71.2 114.9L71.2 114.9L69.3 114.9ZM77.3 123L76.2 123L76.2 113.9L77.8 113.9L80.1 119.6Q80.1 119.8 80.2 120.1Q80.3 120.4 80.4 120.8Q80.6 121.2 80.7 121.5L80.7 121.5Q80.7 121.6 80.7 121.7L80.7 121.7Q80.7 121.6 80.8 121.5L80.8 121.5Q80.9 121.2 81.0 120.8Q81.1 120.5 81.2 120.2Q81.3 119.9 81.4 119.6L81.4 119.6L83.6 113.9L85.3 113.9L85.3 123L84.1 123L84.1 117.8Q84.1 117.5 84.1 117.2Q84.1 116.8 84.1 116.4Q84.1 116.0 84.2 115.6L84.2 115.6Q84.2 115.4 84.2 115.1L84.2 115.1Q84.1 115.4 84.0 115.7L84.0 115.7Q83.8 116.1 83.7 116.5Q83.6 116.9 83.5 117.3Q83.3 117.6 83.2 117.8L83.2 117.8L81.2 123L80.2 123L78.1 117.8Q78.1 117.6 77.9 117.3Q77.8 116.9 77.7 116.5Q77.5 116.1 77.4 115.7L77.4 115.7Q77.3 115.4 77.2 115.2L77.2 115.2Q77.2 115.4 77.2 115.5L77.2 115.5Q77.2 115.9 77.2 116.4Q77.3 116.8 77.3 117.1Q77.3 117.5 77.3 117.8L77.3 117.8L77.3 123Z M91.0 113.9L92.1 113.9L92.1 123L91.0 123L91.0 113.9ZM95.3 118.9L95.3 118.9L95.3 123L94.2 123L94.2 116.2L95.2 116.2L95.3 117.4Q95.5 116.8 96.0 116.5L96.0 116.5Q96.6 116.1 97.3 116.1L97.3 116.1Q98.0 116.1 98.6 116.4Q99.1 116.7 99.4 117.2Q99.6 117.8 99.6 118.7L99.6 118.7L99.6 123L98.6 123L98.6 118.8Q98.6 118.0 98.1 117.5Q97.7 117.1 97.0 117.1L97.0 117.1Q96.5 117.1 96.1 117.3Q95.7 117.5 95.5 117.9Q95.3 118.3 95.3 118.9ZM103.9 123.1L103.9 123.1Q103.2 123.1 102.6 122.9Q102.1 122.7 101.7 122.3Q101.4 121.9 101.3 121.3L101.3 121.3L102.3 121.1Q102.5 121.7 102.9 121.9Q103.3 122.2 103.9 122.2L103.9 122.2Q104.6 122.2 105.0 121.9Q105.4 121.6 105.4 121.2L105.4 121.2Q105.4 120.8 105.2 120.6Q105.0 120.3 104.4 120.2L104.4 120.2L103.3 119.9Q102.4 119.7 101.9 119.3Q101.5 118.8 101.5 118.1L101.5 118.1Q101.5 117.5 101.8 117.0Q102.1 116.6 102.7 116.3Q103.3 116.1 104.0 116.1L104.0 116.1Q104.7 116.1 105.2 116.3Q105.7 116.5 106.0 116.9Q106.3 117.3 106.5 117.7L106.5 117.7L105.5 118.0Q105.3 117.6 105.0 117.3Q104.7 117.0 104.0 117.0L104.0 117.0Q103.4 117.0 103.0 117.3Q102.6 117.6 102.6 118.0L102.6 118.0Q102.6 118.4 102.9 118.6Q103.1 118.8 103.7 119.0L103.7 119.0L104.8 119.2Q105.7 119.5 106.1 119.9Q106.6 120.4 106.6 121.1L106.6 121.1Q106.6 121.7 106.3 122.1Q105.9 122.6 105.3 122.9Q104.7 123.1 103.9 123.1ZM109.5 116.2L110.9 116.2L110.9 117.1L109.5 117.1L109.5 121.2Q109.5 121.7 109.6 121.9Q109.8 122.1 110.3 122.1L110.3 122.1Q110.4 122.1 110.5 122.1Q110.7 122.1 110.8 122.0L110.8 122.0L111.1 123.0Q110.9 123.0 110.7 123.1Q110.4 123.1 110.2 123.1L110.2 123.1Q109.3 123.1 108.9 122.6Q108.4 122.2 108.4 121.3L108.4 121.3L108.4 117.1L107.3 117.1L107.3 116.2L108.4 116.2L108.4 114.6L109.5 114.6L109.5 116.2ZM113.4 123L112.3 123L112.3 116.2L113.4 116.2L113.4 123ZM112.8 115.1L112.8 115.1Q112.5 115.1 112.3 114.8Q112.1 114.6 112.1 114.3L112.1 114.3Q112.1 114.0 112.3 113.8Q112.5 113.6 112.8 113.6L112.8 113.6Q113.1 113.6 113.4 113.8Q113.6 114.0 113.6 114.3L113.6 114.3Q113.6 114.6 113.4 114.8Q113.1 115.1 112.8 115.1ZM116.6 116.2L118.0 116.2L118.0 117.1L116.6 117.1L116.6 121.2Q116.6 121.7 116.8 121.9Q116.9 122.1 117.4 122.1L117.4 122.1Q117.5 122.1 117.6 122.1Q117.8 122.1 117.9 122.0L117.9 122.0L118.2 123.0Q118.0 123.0 117.8 123.1Q117.6 123.1 117.3 123.1L117.3 123.1Q116.5 123.1 116.0 122.6Q115.5 122.2 115.5 121.3L115.5 121.3L115.5 117.1L114.5 117.1L114.5 116.2L115.5 116.2L115.5 114.6L116.6 114.6L116.6 116.2ZM121.7 123.1L121.7 123.1Q121.0 123.1 120.5 122.8Q120.0 122.5 119.7 121.9Q119.4 121.4 119.4 120.5L119.4 120.5L119.4 116.2L120.5 116.2L120.5 120.4Q120.5 121.2 120.9 121.7Q121.3 122.1 122.0 122.1L122.0 122.1Q122.5 122.1 122.9 121.9Q123.3 121.7 123.5 121.3Q123.7 120.8 123.7 120.3L123.7 120.3L123.7 116.2L124.8 116.2L124.8 123L123.8 123L123.8 121.7Q123.5 122.4 123.0 122.7L123.0 122.7Q122.4 123.1 121.7 123.1ZM128.1 116.2L129.5 116.2L129.5 117.1L128.1 117.1L128.1 121.2Q128.1 121.7 128.2 121.9Q128.4 122.1 128.9 122.1L128.9 122.1Q129.0 122.1 129.1 122.1Q129.3 122.1 129.4 122.0L129.4 122.0L129.6 123.0Q129.5 123.0 129.3 123.1Q129.0 123.1 128.8 123.1L128.8 123.1Q127.9 123.1 127.5 122.6Q127.0 122.2 127.0 121.3L127.0 121.3L127.0 117.1L125.9 117.1L125.9 116.2L127.0 116.2L127.0 114.6L128.1 114.6L128.1 116.2ZM133.7 123.1L133.7 123.1Q132.7 123.1 132.0 122.7Q131.3 122.3 130.9 121.5Q130.5 120.7 130.5 119.6Q130.5 118.6 130.9 117.8Q131.3 117.0 132.0 116.5Q132.7 116.1 133.6 116.1L133.6 116.1Q134.1 116.1 134.7 116.3Q135.2 116.5 135.6 116.9Q136.1 117.3 136.3 117.9Q136.6 118.6 136.6 119.5L136.6 119.5L136.6 120.0L131.6 120.0Q131.7 120.6 131.9 121.1L131.9 121.1Q132.2 121.6 132.6 121.9Q133.1 122.2 133.7 122.2L133.7 122.2Q134.1 122.2 134.5 122.1Q134.8 121.9 135.0 121.7Q135.3 121.5 135.4 121.1L135.4 121.1L136.5 121.4Q136.3 121.9 135.9 122.3Q135.6 122.7 135.0 122.9Q134.4 123.1 133.7 123.1ZM131.7 119.0L131.7 119.0L135.5 119.0Q135.4 118.6 135.3 118.2L135.3 118.2Q135.0 117.7 134.6 117.4Q134.2 117.1 133.6 117.1Q133.0 117.1 132.5 117.4Q132.1 117.7 131.9 118.2L131.9 118.2Q131.7 118.6 131.7 119.0Z M144.4 123.1L144.4 123.1Q143.5 123.1 142.8 122.7Q142.1 122.3 141.7 121.5Q141.3 120.7 141.3 119.6L141.3 119.6Q141.3 118.6 141.7 117.8Q142.1 117.0 142.8 116.5Q143.5 116.1 144.4 116.1L144.4 116.1Q145.4 116.1 146.1 116.5Q146.8 117.0 147.2 117.8Q147.6 118.6 147.6 119.6L147.6 119.6Q147.6 120.7 147.2 121.5Q146.8 122.3 146.1 122.7Q145.4 123.1 144.4 123.1ZM144.4 122.2L144.4 122.2Q145.1 122.2 145.6 121.8Q146.0 121.5 146.2 120.9Q146.5 120.3 146.5 119.6L146.5 119.6Q146.5 119.0 146.2 118.4Q146.0 117.8 145.6 117.4Q145.1 117.1 144.4 117.1L144.4 117.1Q143.8 117.1 143.3 117.4Q142.9 117.8 142.7 118.4Q142.5 118.9 142.5 119.6L142.5 119.6Q142.5 120.3 142.7 120.9Q142.9 121.5 143.3 121.8Q143.8 122.2 144.4 122.2ZM150.8 116.2L152.3 116.2L152.3 117.1L150.8 117.1L150.8 123L149.7 123L149.7 117.1L148.3 117.1L148.3 116.2L149.7 116.2L149.7 115.3Q149.7 114.7 149.9 114.3Q150.2 113.9 150.7 113.7Q151.1 113.5 151.6 113.5L151.6 113.5Q152.0 113.5 152.2 113.5Q152.5 113.6 152.6 113.7L152.6 113.7L152.3 114.6Q152.2 114.6 152.1 114.5Q152.0 114.5 151.7 114.5L151.7 114.5Q151.2 114.5 151.0 114.8Q150.8 115.0 150.8 115.5L150.8 115.5L150.8 116.2Z M160.3 123.2L160.3 123.2Q159.4 123.2 158.6 122.8Q157.9 122.5 157.5 122.0Q157.1 121.4 157.0 120.6L157.0 120.6L158.2 120.6Q158.3 121.1 158.6 121.5Q158.9 121.8 159.4 122.0Q159.8 122.1 160.3 122.1L160.3 122.1Q161.0 122.1 161.5 121.9Q161.9 121.7 162.2 121.4Q162.5 121.0 162.5 120.5L162.5 120.5Q162.5 120.1 162.3 119.8Q162.0 119.5 161.6 119.3Q161.2 119.2 160.7 119.0L160.7 119.0L159.6 118.7Q158.5 118.4 157.9 117.8Q157.3 117.2 157.3 116.3L157.3 116.3Q157.3 115.6 157.7 115.0Q158.1 114.4 158.8 114.1Q159.5 113.8 160.4 113.8L160.4 113.8Q161.3 113.8 162.0 114.1Q162.7 114.4 163.1 115.0Q163.5 115.5 163.5 116.2L163.5 116.2L162.4 116.2Q162.3 115.5 161.8 115.2Q161.2 114.8 160.4 114.8L160.4 114.8Q159.8 114.8 159.4 115.0Q158.9 115.2 158.7 115.5Q158.4 115.9 158.4 116.3L158.4 116.3Q158.4 116.8 158.7 117.1Q159.0 117.3 159.4 117.5Q159.8 117.7 160.2 117.8L160.2 117.8L161.1 118.0Q161.4 118.1 161.9 118.3Q162.3 118.4 162.7 118.7Q163.1 119.0 163.4 119.5Q163.7 119.9 163.7 120.5L163.7 120.5Q163.7 121.3 163.3 121.9Q162.9 122.5 162.1 122.8Q161.4 123.2 160.3 123.2ZM168.1 123.1L168.1 123.1Q167.2 123.1 166.5 122.7Q165.8 122.3 165.4 121.5Q165.0 120.7 165.0 119.6L165.0 119.6Q165.0 118.6 165.4 117.8Q165.8 117.0 166.5 116.5Q167.2 116.1 168.1 116.1L168.1 116.1Q168.6 116.1 169.0 116.2Q169.5 116.3 169.8 116.6Q170.2 116.8 170.5 117.2Q170.7 117.5 170.9 118.0L170.9 118.0L169.8 118.3Q169.7 118.0 169.6 117.8Q169.4 117.6 169.2 117.4Q169.0 117.3 168.7 117.2Q168.4 117.1 168.1 117.1L168.1 117.1Q167.4 117.1 167.0 117.4Q166.5 117.8 166.3 118.4Q166.1 118.9 166.1 119.6L166.1 119.6Q166.1 120.3 166.3 120.9Q166.5 121.5 167.0 121.8Q167.4 122.2 168.1 122.2L168.1 122.2Q168.4 122.2 168.7 122.1Q169.0 122.0 169.2 121.8Q169.5 121.6 169.6 121.4Q169.8 121.2 169.8 120.9L169.8 120.9L170.9 121.2Q170.8 121.7 170.5 122.0Q170.2 122.4 169.9 122.6Q169.5 122.9 169.0 123.0Q168.6 123.1 168.1 123.1ZM173.6 123L172.5 123L172.5 116.2L173.6 116.2L173.6 123ZM173.0 115.1L173.0 115.1Q172.7 115.1 172.5 114.8Q172.3 114.6 172.3 114.3L172.3 114.3Q172.3 114.0 172.5 113.8Q172.7 113.6 173.0 113.6L173.0 113.6Q173.3 113.6 173.6 113.8Q173.8 114.0 173.8 114.3L173.8 114.3Q173.8 114.6 173.6 114.8Q173.3 115.1 173.0 115.1ZM178.4 123.1L178.4 123.1Q177.4 123.1 176.7 122.7Q175.9 122.3 175.5 121.5Q175.2 120.7 175.2 119.6Q175.2 118.6 175.5 117.8Q175.9 117.0 176.6 116.5Q177.3 116.1 178.2 116.1L178.2 116.1Q178.8 116.1 179.3 116.3Q179.8 116.5 180.3 116.9Q180.7 117.3 180.9 117.9Q181.2 118.6 181.2 119.5L181.2 119.5L181.2 120.0L176.3 120.0Q176.3 120.6 176.5 121.1L176.5 121.1Q176.8 121.6 177.3 121.9Q177.7 122.2 178.4 122.2L178.4 122.2Q178.8 122.2 179.1 122.1Q179.4 121.9 179.7 121.7Q179.9 121.5 180.0 121.1L180.0 121.1L181.1 121.4Q180.9 121.9 180.6 122.3Q180.2 122.7 179.6 122.9Q179.1 123.1 178.4 123.1ZM176.3 119.0L176.3 119.0L180.1 119.0Q180.0 118.6 179.9 118.2L179.9 118.2Q179.7 117.7 179.3 117.4Q178.8 117.1 178.2 117.1Q177.6 117.1 177.2 117.4Q176.7 117.7 176.5 118.2L176.5 118.2Q176.3 118.6 176.3 119.0ZM183.9 118.9L183.9 118.9L183.9 123L182.8 123L182.8 116.2L183.8 116.2L183.8 117.4Q184.1 116.8 184.6 116.5L184.6 116.5Q185.2 116.1 185.9 116.1L185.9 116.1Q186.6 116.1 187.1 116.4Q187.7 116.7 187.9 117.2Q188.2 117.8 188.2 118.7L188.2 118.7L188.2 123L187.1 123L187.1 118.8Q187.1 118.0 186.7 117.5Q186.3 117.1 185.6 117.1L185.6 117.1Q185.1 117.1 184.7 117.3Q184.3 117.5 184.1 117.9Q183.9 118.3 183.9 118.9ZM192.9 123.1L192.9 123.1Q192.0 123.1 191.3 122.7Q190.6 122.3 190.2 121.5Q189.8 120.7 189.8 119.6L189.8 119.6Q189.8 118.6 190.2 117.8Q190.6 117.0 191.3 116.5Q192.0 116.1 192.9 116.1L192.9 116.1Q193.4 116.1 193.9 116.2Q194.3 116.3 194.7 116.6Q195.0 116.8 195.3 117.2Q195.6 117.5 195.7 118.0L195.7 118.0L194.7 118.3Q194.6 118.0 194.4 117.8Q194.3 117.6 194.1 117.4Q193.8 117.3 193.6 117.2Q193.3 117.1 192.9 117.1L192.9 117.1Q192.3 117.1 191.8 117.4Q191.4 117.8 191.2 118.4Q191.0 118.9 191.0 119.6L191.0 119.6Q191.0 120.3 191.2 120.9Q191.4 121.5 191.8 121.8Q192.3 122.2 192.9 122.2L192.9 122.2Q193.3 122.2 193.6 122.1Q193.9 122.0 194.1 121.8Q194.3 121.6 194.5 121.4Q194.6 121.2 194.7 120.9L194.7 120.9L195.7 121.2Q195.6 121.7 195.3 122.0Q195.1 122.4 194.7 122.6Q194.3 122.9 193.9 123.0Q193.4 123.1 192.9 123.1ZM200.2 123.1L200.2 123.1Q199.2 123.1 198.5 122.7Q197.8 122.3 197.4 121.5Q197.0 120.7 197.0 119.6Q197.0 118.6 197.4 117.8Q197.7 117.0 198.4 116.5Q199.1 116.1 200.0 116.1L200.0 116.1Q200.6 116.1 201.1 116.3Q201.6 116.5 202.1 116.9Q202.5 117.3 202.8 117.9Q203.0 118.6 203.0 119.5L203.0 119.5L203.0 120.0L198.1 120.0Q198.1 120.6 198.3 121.1L198.3 121.1Q198.6 121.6 199.1 121.9Q199.6 122.2 200.2 122.2L200.2 122.2Q200.6 122.2 200.9 122.1Q201.2 121.9 201.5 121.7Q201.7 121.5 201.8 121.1L201.8 121.1L202.9 121.4Q202.8 121.9 202.4 122.3Q202.0 122.7 201.4 122.9Q200.9 123.1 200.2 123.1ZM198.1 119.0L198.1 119.0L201.9 119.0Q201.9 118.6 201.7 118.2L201.7 118.2Q201.5 117.7 201.1 117.4Q200.7 117.1 200.0 117.1Q199.4 117.1 199.0 117.4Q198.6 117.7 198.3 118.2L198.3 118.2Q198.1 118.6 198.1 119.0Z M210.0 123.2L210.0 123.2Q209.4 123.2 208.8 122.9Q208.3 122.7 208.0 122.2Q207.7 121.7 207.7 121.1L207.7 121.1Q207.7 120.5 207.9 120.1Q208.2 119.7 208.5 119.5Q208.9 119.3 209.4 119.2Q209.9 119.1 210.3 119.1L210.3 119.1Q211.0 119.0 211.3 118.9Q211.7 118.9 211.9 118.8Q212.1 118.7 212.1 118.4L212.1 118.4L212.1 118.4Q212.1 118.0 211.9 117.7Q211.8 117.4 211.5 117.2Q211.1 117.1 210.7 117.1L210.7 117.1Q210.2 117.1 209.8 117.2Q209.5 117.4 209.3 117.6Q209.1 117.8 208.9 118.1L208.9 118.1L207.9 117.7Q208.2 117.1 208.6 116.7Q209.0 116.4 209.6 116.2Q210.1 116.1 210.6 116.1L210.6 116.1Q211.0 116.1 211.4 116.2Q211.9 116.3 212.3 116.5Q212.7 116.7 212.9 117.2Q213.2 117.7 213.2 118.5L213.2 118.5L213.2 123L212.1 123L212.1 122.1L212.0 122.1Q211.9 122.3 211.7 122.6Q211.4 122.8 211.0 123.0Q210.6 123.2 210.0 123.2ZM210.2 122.2L210.2 122.2Q210.8 122.2 211.2 122.0Q211.7 121.7 211.9 121.3Q212.1 120.9 212.1 120.5L212.1 120.5L212.1 119.6Q212.0 119.7 211.8 119.7Q211.6 119.8 211.3 119.8Q211.0 119.9 210.7 119.9Q210.5 120.0 210.3 120.0L210.3 120.0Q209.9 120.0 209.6 120.1Q209.2 120.3 209.0 120.5Q208.8 120.7 208.8 121.1L208.8 121.1Q208.8 121.5 209.0 121.7Q209.2 121.9 209.5 122.1Q209.8 122.2 210.2 122.2ZM216.2 118.9L216.2 118.9L216.2 123L215.1 123L215.1 116.2L216.2 116.2L216.2 117.4Q216.5 116.8 216.9 116.5L216.9 116.5Q217.5 116.1 218.3 116.1L218.3 116.1Q219.0 116.1 219.5 116.4Q220.0 116.7 220.3 117.2Q220.6 117.8 220.6 118.7L220.6 118.7L220.6 123L219.5 123L219.5 118.8Q219.5 118.0 219.1 117.5Q218.7 117.1 217.9 117.1L217.9 117.1Q217.5 117.1 217.1 117.3Q216.7 117.5 216.5 117.9Q216.2 118.3 216.2 118.9ZM225.1 123.1L225.1 123.1Q224.2 123.1 223.6 122.7Q222.9 122.3 222.5 121.5Q222.2 120.7 222.2 119.6L222.2 119.6Q222.2 118.5 222.6 117.7Q222.9 116.9 223.6 116.5Q224.2 116.1 225.1 116.1L225.1 116.1Q225.7 116.1 226.1 116.3Q226.5 116.5 226.7 116.8Q226.9 117.1 227.1 117.3L227.1 117.3L227.1 117.3L227.1 113.9L228.2 113.9L228.2 123L227.2 123L227.2 121.9L227.1 121.9Q226.9 122.1 226.7 122.4Q226.5 122.7 226.1 122.9Q225.7 123.1 225.1 123.1ZM225.2 122.2L225.2 122.2Q225.9 122.2 226.3 121.8Q226.7 121.5 226.9 120.9Q227.2 120.4 227.2 119.6L227.2 119.6Q227.2 118.8 226.9 118.3Q226.7 117.7 226.3 117.4Q225.9 117.1 225.2 117.1L225.2 117.1Q224.6 117.1 224.2 117.4Q223.7 117.7 223.5 118.3Q223.3 118.9 223.3 119.6L223.3 119.6Q223.3 120.3 223.5 120.9Q223.7 121.5 224.2 121.8Q224.6 122.2 225.2 122.2Z M236.2 114.9L233.3 114.9L233.3 113.9L240.2 113.9L240.2 114.9L237.3 114.9L237.3 123L236.2 123L236.2 114.9ZM244.6 123.1L244.6 123.1Q243.6 123.1 242.9 122.7Q242.2 122.3 241.8 121.5Q241.4 120.7 241.4 119.6Q241.4 118.6 241.8 117.8Q242.2 117.0 242.9 116.5Q243.6 116.1 244.5 116.1L244.5 116.1Q245.0 116.1 245.6 116.3Q246.1 116.5 246.5 116.9Q247.0 117.3 247.2 117.9Q247.5 118.6 247.5 119.5L247.5 119.5L247.5 120.0L242.5 120.0Q242.6 120.6 242.8 121.1L242.8 121.1Q243.1 121.6 243.5 121.9Q244.0 122.2 244.6 122.2L244.6 122.2Q245.0 122.2 245.4 122.1Q245.7 121.9 245.9 121.7Q246.2 121.5 246.3 121.1L246.3 121.1L247.4 121.4Q247.2 121.9 246.8 122.3Q246.4 122.7 245.9 122.9Q245.3 123.1 244.6 123.1ZM242.5 119.0L242.5 119.0L246.3 119.0Q246.3 118.6 246.2 118.2L246.2 118.2Q245.9 117.7 245.5 117.4Q245.1 117.1 244.5 117.1Q243.9 117.1 243.4 117.4Q243.0 117.7 242.8 118.2L242.8 118.2Q242.6 118.6 242.5 119.0ZM251.8 123.1L251.8 123.1Q250.9 123.1 250.2 122.7Q249.5 122.3 249.1 121.5Q248.7 120.7 248.7 119.6L248.7 119.6Q248.7 118.6 249.1 117.8Q249.5 117.0 250.2 116.5Q250.9 116.1 251.8 116.1L251.8 116.1Q252.3 116.1 252.8 116.2Q253.2 116.3 253.6 116.6Q253.9 116.8 254.2 117.2Q254.4 117.5 254.6 118.0L254.6 118.0L253.5 118.3Q253.5 118.0 253.3 117.8Q253.1 117.6 252.9 117.4Q252.7 117.3 252.4 117.2Q252.2 117.1 251.8 117.1L251.8 117.1Q251.1 117.1 250.7 117.4Q250.3 117.8 250.0 118.4Q249.8 118.9 249.8 119.6L249.8 119.6Q249.8 120.3 250.0 120.9Q250.3 121.5 250.7 121.8Q251.1 122.2 251.8 122.2L251.8 122.2Q252.2 122.2 252.4 122.1Q252.7 122.0 253.0 121.8Q253.2 121.6 253.3 121.4Q253.5 121.2 253.6 120.9L253.6 120.9L254.6 121.2Q254.5 121.7 254.2 122.0Q253.9 122.4 253.6 122.6Q253.2 122.9 252.8 123.0Q252.3 123.1 251.8 123.1ZM257.3 118.9L257.3 118.9L257.3 123L256.2 123L256.2 113.9L257.3 113.9L257.3 117.4Q257.6 116.8 258.0 116.5L258.0 116.5Q258.6 116.1 259.3 116.1L259.3 116.1Q260.0 116.1 260.5 116.4Q261.1 116.7 261.4 117.2Q261.6 117.8 261.6 118.7L261.6 118.7L261.6 123L260.5 123L260.5 118.8Q260.5 118.0 260.1 117.5Q259.7 117.1 259 117.1L259 117.1Q258.5 117.1 258.1 117.3Q257.7 117.5 257.5 117.9Q257.3 118.3 257.3 118.9ZM264.7 118.9L264.7 118.9L264.7 123L263.6 123L263.6 116.2L264.6 116.2L264.6 117.4Q264.9 116.8 265.4 116.5L265.4 116.5Q265.9 116.1 266.7 116.1L266.7 116.1Q267.4 116.1 267.9 116.4Q268.4 116.7 268.7 117.2Q269.0 117.8 269.0 118.7L269.0 118.7L269.0 123L267.9 123L267.9 118.8Q267.9 118.0 267.5 117.5Q267.1 117.1 266.4 117.1L266.4 117.1Q265.9 117.1 265.5 117.3Q265.1 117.5 264.9 117.9Q264.7 118.3 264.7 118.9ZM273.7 123.1L273.7 123.1Q272.8 123.1 272.1 122.7Q271.4 122.3 271.0 121.5Q270.6 120.7 270.6 119.6L270.6 119.6Q270.6 118.6 271.0 117.8Q271.4 117.0 272.1 116.5Q272.8 116.1 273.7 116.1L273.7 116.1Q274.7 116.1 275.4 116.5Q276.1 117.0 276.5 117.8Q276.9 118.6 276.9 119.6L276.9 119.6Q276.9 120.7 276.5 121.5Q276.1 122.3 275.4 122.7Q274.7 123.1 273.7 123.1ZM273.7 122.2L273.7 122.2Q274.4 122.2 274.9 121.8Q275.3 121.5 275.5 120.9Q275.7 120.3 275.7 119.6L275.7 119.6Q275.7 119.0 275.5 118.4Q275.3 117.8 274.9 117.4Q274.4 117.1 273.7 117.1L273.7 117.1Q273.1 117.1 272.6 117.4Q272.2 117.8 272.0 118.4Q271.7 118.9 271.7 119.6L271.7 119.6Q271.7 120.3 272.0 120.9Q272.2 121.5 272.6 121.8Q273.1 122.2 273.7 122.2ZM278.5 113.9L279.6 113.9L279.6 123L278.5 123L278.5 113.9ZM284.3 123.1L284.3 123.1Q283.3 123.1 282.6 122.7Q281.9 122.3 281.5 121.5Q281.1 120.7 281.1 119.6L281.1 119.6Q281.1 118.6 281.5 117.8Q281.9 117.0 282.6 116.5Q283.3 116.1 284.3 116.1L284.3 116.1Q285.2 116.1 285.9 116.5Q286.6 117.0 287.0 117.8Q287.4 118.6 287.4 119.6L287.4 119.6Q287.4 120.7 287.0 121.5Q286.6 122.3 285.9 122.7Q285.2 123.1 284.3 123.1ZM284.3 122.2L284.3 122.2Q284.9 122.2 285.4 121.8Q285.8 121.5 286.1 120.9Q286.3 120.3 286.3 119.6L286.3 119.6Q286.3 119.0 286.1 118.4Q285.8 117.8 285.4 117.4Q284.9 117.1 284.3 117.1L284.3 117.1Q283.6 117.1 283.1 117.4Q282.7 117.8 282.5 118.4Q282.3 118.9 282.3 119.6L282.3 119.6Q282.3 120.3 282.5 120.9Q282.7 121.5 283.1 121.8Q283.6 122.2 284.3 122.2ZM291.7 125.7L291.7 125.7Q291.0 125.7 290.4 125.5Q289.9 125.3 289.5 125.0Q289.1 124.7 288.9 124.3L288.9 124.3L289.8 123.7Q290.0 123.9 290.2 124.2Q290.4 124.4 290.8 124.6Q291.1 124.7 291.7 124.7L291.7 124.7Q292.6 124.7 293.1 124.3Q293.6 124.0 293.6 123.1L293.6 123.1L293.6 121.7L293.5 121.7Q293.4 121.9 293.2 122.2Q293.0 122.5 292.6 122.7Q292.2 122.9 291.5 122.9L291.5 122.9Q290.7 122.9 290.1 122.5Q289.4 122.1 289.0 121.4Q288.6 120.6 288.6 119.6L288.6 119.6Q288.6 118.5 289.0 117.7Q289.4 116.9 290.0 116.5Q290.7 116.1 291.6 116.1L291.6 116.1Q292.2 116.1 292.6 116.3Q293.0 116.5 293.2 116.8Q293.4 117.1 293.5 117.3L293.5 117.3L293.6 117.3L293.6 116.2L294.7 116.2L294.7 123.2Q294.7 124.1 294.3 124.6Q293.9 125.2 293.2 125.4Q292.6 125.7 291.7 125.7ZM291.7 121.9L291.7 121.9Q292.3 121.9 292.8 121.6Q293.2 121.3 293.4 120.8Q293.6 120.3 293.6 119.5L293.6 119.5Q293.6 118.8 293.4 118.3Q293.2 117.7 292.8 117.4Q292.3 117.1 291.7 117.1L291.7 117.1Q291.1 117.1 290.6 117.4Q290.2 117.7 290.0 118.3Q289.8 118.8 289.8 119.5L289.8 119.5Q289.8 120.2 290.0 120.8Q290.2 121.3 290.6 121.6Q291.1 121.9 291.7 121.9ZM296.5 125.5L296.5 125.5L296.8 124.5L296.9 124.6Q297.3 124.6 297.5 124.6Q297.8 124.6 298.0 124.3Q298.3 124.1 298.4 123.6L298.4 123.6L298.6 123.0L296.0 116.2L297.2 116.2L298.7 120.2Q298.9 120.9 299.1 121.5L299.1 121.5Q299.1 121.7 299.2 122.0L299.2 122.0Q299.3 121.7 299.3 121.5L299.3 121.5Q299.5 120.9 299.7 120.2L299.7 120.2L301.2 116.2L302.4 116.2L299.4 124.0Q299.2 124.6 298.9 124.9Q298.6 125.3 298.2 125.4Q297.8 125.6 297.3 125.6L297.3 125.6Q297.0 125.6 296.8 125.6Q296.6 125.5 296.5 125.5Z "/></g><mask id="satori_om-id-0-1-0-1-2"><rect x="59" y="134" width="342" height="13" fill="#fff" mask="url(#satori_om-id-0-1-0)"/></mask><g mask="url(#satori_om-id-0-1-0)" clip-path="url(#satori_cp-id-0-1-0)"><path fill="#5B6573" d="M62.5 145L62.5 145L60.0 145L60.0 137.0L62.6 137.0Q63.7 137.0 64.6 137.5Q65.4 138.0 65.8 138.8Q66.3 139.7 66.3 141.0L66.3 141.0Q66.3 142.2 65.8 143.1Q65.4 144.0 64.5 144.5Q63.7 145 62.5 145ZM61.0 137.9L61.0 144.1L62.4 144.1Q63.4 144.1 64.0 143.7Q64.7 143.4 65.0 142.7Q65.3 142.0 65.3 141.0L65.3 141.0Q65.3 140.0 65.0 139.3Q64.7 138.6 64.0 138.3Q63.4 137.9 62.5 137.9L62.5 137.9L61.0 137.9ZM70.3 145.1L70.3 145.1Q69.4 145.1 68.8 144.7Q68.2 144.4 67.8 143.7Q67.5 143.0 67.5 142.0Q67.5 141.1 67.8 140.4Q68.2 139.7 68.8 139.3Q69.4 138.9 70.2 138.9L70.2 138.9Q70.7 138.9 71.1 139.1Q71.6 139.2 72.0 139.6Q72.4 139.9 72.6 140.5Q72.8 141.1 72.8 141.9L72.8 141.9L72.8 142.3L68.5 142.3Q68.5 142.9 68.7 143.3L68.7 143.3Q68.9 143.8 69.4 144.0Q69.8 144.3 70.3 144.3L70.3 144.3Q70.7 144.3 71.0 144.2Q71.3 144.1 71.5 143.9Q71.7 143.7 71.8 143.3L71.8 143.3L72.7 143.6Q72.6 144.1 72.2 144.4Q71.9 144.7 71.4 144.9Q70.9 145.1 70.3 145.1ZM68.5 141.5L68.5 141.5L71.8 141.5Q71.8 141.1 71.7 140.8L71.7 140.8Q71.5 140.3 71.1 140.0Q70.7 139.8 70.2 139.8Q69.7 139.8 69.3 140.0Q68.9 140.3 68.7 140.7L68.7 140.7Q68.5 141.1 68.5 141.5ZM74.2 137.0L75.2 137.0L75.2 145L74.2 145L74.2 137.0ZM77.8 141.4L77.8 141.4L77.8 145L76.9 145L76.9 137.0L77.8 137.0L77.8 140.0Q78.1 139.5 78.4 139.3L78.4 139.3Q79.0 138.9 79.6 138.9L79.6 138.9Q80.2 138.9 80.7 139.2Q81.2 139.4 81.4 139.9Q81.7 140.4 81.7 141.2L81.7 141.2L81.7 145L80.7 145L80.7 141.3Q80.7 140.6 80.3 140.2Q80.0 139.8 79.3 139.8L79.3 139.8Q78.9 139.8 78.6 140.0Q78.2 140.2 78.0 140.5Q77.8 140.9 77.8 141.4ZM84.3 145L83.4 145L83.4 139.0L84.3 139.0L84.3 145ZM83.9 138.0L83.9 138.0Q83.6 138.0 83.4 137.8Q83.2 137.6 83.2 137.4L83.2 137.4Q83.2 137.1 83.4 136.9Q83.6 136.7 83.9 136.7L83.9 136.7Q84.1 136.7 84.3 136.9Q84.5 137.1 84.5 137.4L84.5 137.4Q84.5 137.6 84.3 137.8Q84.1 138.0 83.9 138.0ZM86.0 141.1L89.5 141.1L89.5 142.0L86.0 142.0L86.0 141.1ZM92.2 145L91.2 145L91.2 137.0L92.4 137.0L95.7 142.1Q95.8 142.3 96.0 142.6Q96.2 142.9 96.4 143.3L96.4 143.3Q96.5 143.5 96.6 143.8L96.6 143.8Q96.6 143.5 96.6 143.3L96.6 143.3Q96.6 142.9 96.5 142.5Q96.5 142.2 96.5 141.9L96.5 141.9L96.5 137.0L97.6 137.0L97.6 145L96.4 145L93.5 140.4Q93.3 140.1 93.1 139.8Q92.8 139.5 92.6 139.0L92.6 139.0Q92.4 138.7 92.2 138.2L92.2 138.2Q92.2 138.6 92.2 139.0L92.2 139.0Q92.2 139.5 92.2 139.8Q92.2 140.2 92.2 140.4L92.2 140.4L92.2 145ZM102.7 145.1L102.7 145.1Q101.7 145.1 100.9 144.6Q100.1 144.1 99.6 143.2Q99.2 142.3 99.2 141.0L99.2 141.0Q99.2 139.7 99.6 138.8Q100.1 137.9 100.9 137.4Q101.7 136.9 102.7 136.9L102.7 136.9Q103.3 136.9 103.9 137.1Q104.4 137.2 104.9 137.6Q105.3 137.9 105.6 138.4Q105.9 138.9 106.0 139.5L106.0 139.5L104.9 139.5Q104.9 139.1 104.7 138.8Q104.4 138.5 104.1 138.3Q103.8 138.0 103.5 137.9Q103.1 137.8 102.7 137.8L102.7 137.8Q102.0 137.8 101.4 138.2Q100.9 138.6 100.5 139.3Q100.2 140.0 100.2 141.0L100.2 141.0Q100.2 142.0 100.5 142.7Q100.9 143.4 101.4 143.8Q102.0 144.2 102.7 144.2L102.7 144.2Q103.1 144.2 103.5 144.1Q103.8 143.9 104.1 143.7Q104.4 143.5 104.7 143.2Q104.9 142.9 104.9 142.5L104.9 142.5L106.0 142.5Q105.9 143.1 105.6 143.6Q105.3 144.1 104.9 144.4Q104.4 144.7 103.9 144.9Q103.3 145.1 102.7 145.1ZM108.6 145L107.5 145L107.5 137.0L110.3 137.0Q111.2 137.0 111.8 137.3Q112.4 137.6 112.7 138.2Q113.0 138.8 113.0 139.5Q113.0 140.2 112.7 140.7Q112.4 141.3 111.8 141.6L111.8 141.6Q111.7 141.7 111.5 141.7L111.5 141.7L113.3 145L112.1 145L110.5 141.9Q110.4 141.9 110.3 141.9L110.3 141.9L108.6 141.9L108.6 145ZM108.6 137.9L108.6 141.0L110.2 141.0Q110.9 141.0 111.2 140.8Q111.6 140.6 111.8 140.3Q112.0 139.9 112.0 139.5L112.0 139.5Q112.0 139.0 111.8 138.6Q111.6 138.3 111.2 138.1Q110.9 137.9 110.2 137.9L110.2 137.9L108.6 137.9Z M118.3 141.9L118.3 141.9Q118.0 141.9 117.8 141.7Q117.6 141.5 117.6 141.2L117.6 141.2Q117.6 140.9 117.8 140.7Q118.0 140.5 118.3 140.5L118.3 140.5Q118.6 140.5 118.8 140.7Q119.0 140.9 119.0 141.2L119.0 141.2Q119.0 141.5 118.8 141.7Q118.6 141.9 118.3 141.9Z M128.9 145L123.8 145L123.8 144.3L126.5 141.4Q126.9 140.9 127.2 140.5Q127.5 140.2 127.7 139.8Q127.8 139.5 127.8 139.1L127.8 139.1Q127.8 138.7 127.6 138.4Q127.4 138.1 127.1 137.9Q126.8 137.8 126.3 137.8L126.3 137.8Q125.9 137.8 125.5 138.0Q125.2 138.1 125.0 138.5Q124.8 138.8 124.8 139.3L124.8 139.3L123.9 139.3Q123.9 138.6 124.2 138.0Q124.5 137.5 125.1 137.2Q125.6 136.9 126.3 136.9L126.3 136.9Q127.1 136.9 127.6 137.2Q128.2 137.5 128.5 138.0Q128.8 138.5 128.8 139.1L128.8 139.1Q128.8 139.6 128.6 140.0Q128.5 140.4 128.1 140.9Q127.7 141.4 127.0 142.2L127.0 142.2L125.2 144.0L125.2 144.1L128.9 144.1L128.9 145ZM133.2 145.1L133.2 145.1Q132.3 145.1 131.7 144.6Q131.0 144.1 130.7 143.2Q130.4 142.3 130.4 141.0L130.4 141.0Q130.4 139.7 130.7 138.8Q131.0 137.9 131.7 137.4Q132.3 136.9 133.2 136.9L133.2 136.9Q134.1 136.9 134.7 137.4Q135.3 137.9 135.7 138.8Q136.0 139.7 136.0 141.0L136.0 141.0Q136.0 142.3 135.7 143.2Q135.3 144.1 134.7 144.6Q134.1 145.1 133.2 145.1ZM133.2 144.2L133.2 144.2Q133.8 144.2 134.2 143.8Q134.6 143.5 134.8 142.7Q135.0 142.0 135.0 141.0L135.0 141.0Q135.0 140.0 134.8 139.3Q134.6 138.5 134.2 138.2Q133.8 137.8 133.2 137.8L133.2 137.8Q132.6 137.8 132.2 138.2Q131.8 138.5 131.6 139.3Q131.3 140.0 131.3 141.0L131.3 141.0Q131.3 142.0 131.6 142.7Q131.8 143.5 132.2 143.8Q132.6 144.2 133.2 144.2ZM142.6 145L137.5 145L137.5 144.3L140.1 141.4Q140.6 140.9 140.9 140.5Q141.2 140.2 141.3 139.8Q141.5 139.5 141.5 139.1L141.5 139.1Q141.5 138.7 141.3 138.4Q141.1 138.1 140.7 137.9Q140.4 137.8 140.0 137.8L140.0 137.8Q139.5 137.8 139.2 138.0Q138.8 138.1 138.7 138.5Q138.5 138.8 138.5 139.3L138.5 139.3L137.5 139.3Q137.5 138.6 137.8 138.0Q138.2 137.5 138.7 137.2Q139.3 136.9 140.0 136.9L140.0 136.9Q140.7 136.9 141.3 137.2Q141.8 137.5 142.1 138.0Q142.4 138.5 142.4 139.1L142.4 139.1Q142.4 139.6 142.3 140.0Q142.1 140.4 141.7 140.9Q141.3 141.4 140.6 142.2L140.6 142.2L138.9 144.0L138.9 144.1L142.6 144.1L142.6 145ZM146.8 145.1L146.8 145.1Q146.0 145.1 145.4 144.8Q144.8 144.6 144.4 144.1Q144.1 143.6 144.0 143.0L144.0 143.0L145.1 143.0Q145.1 143.4 145.3 143.6Q145.5 143.9 145.9 144.1Q146.3 144.2 146.8 144.2L146.8 144.2Q147.3 144.2 147.6 144.0Q148.0 143.9 148.3 143.5Q148.5 143.2 148.5 142.8L148.5 142.8Q148.5 142.4 148.3 142.0Q148.1 141.7 147.6 141.5Q147.2 141.3 146.6 141.3L146.6 141.3L146.0 141.3L146.0 140.5L146.6 140.5Q147.1 140.5 147.5 140.3Q147.8 140.1 148.0 139.8Q148.2 139.5 148.2 139.1L148.2 139.1Q148.2 138.7 148.0 138.4Q147.9 138.1 147.5 137.9Q147.2 137.8 146.8 137.8L146.8 137.8Q146.4 137.8 146.0 137.9Q145.7 138.1 145.4 138.3Q145.2 138.6 145.2 139.0L145.2 139.0L144.2 139.0Q144.2 138.4 144.6 137.9Q144.9 137.4 145.5 137.2Q146.1 136.9 146.8 136.9L146.8 136.9Q147.5 136.9 148.1 137.2Q148.6 137.5 148.9 138.0Q149.2 138.5 149.2 139.0L149.2 139.0Q149.2 139.7 148.9 140.2Q148.5 140.7 147.9 140.8L147.9 140.8L147.9 140.9Q148.4 141.0 148.8 141.3Q149.1 141.5 149.3 141.9Q149.5 142.3 149.5 142.8L149.5 142.8Q149.5 143.5 149.1 144.0Q148.8 144.5 148.2 144.8Q147.6 145.1 146.8 145.1Z M153.2 141.1L158.7 141.1L158.7 142.0L153.2 142.0L153.2 141.1Z M167.8 145L162.7 145L162.7 144.3L165.3 141.4Q165.8 140.9 166.1 140.5Q166.4 140.2 166.5 139.8Q166.7 139.5 166.7 139.1L166.7 139.1Q166.7 138.7 166.5 138.4Q166.3 138.1 165.9 137.9Q165.6 137.8 165.2 137.8L165.2 137.8Q164.7 137.8 164.4 138.0Q164.0 138.1 163.8 138.5Q163.7 138.8 163.7 139.3L163.7 139.3L162.7 139.3Q162.7 138.6 163.0 138.0Q163.3 137.5 163.9 137.2Q164.5 136.9 165.2 136.9L165.2 136.9Q165.9 136.9 166.5 137.2Q167.0 137.5 167.3 138.0Q167.6 138.5 167.6 139.1L167.6 139.1Q167.6 139.6 167.5 140.0Q167.3 140.4 166.9 140.9Q166.5 141.4 165.8 142.2L165.8 142.2L164.1 144.0L164.1 144.1L167.8 144.1L167.8 145ZM172.0 145.1L172.0 145.1Q171.1 145.1 170.5 144.6Q169.9 144.1 169.5 143.2Q169.2 142.3 169.2 141.0L169.2 141.0Q169.2 139.7 169.5 138.8Q169.9 137.9 170.5 137.4Q171.1 136.9 172.0 136.9L172.0 136.9Q172.9 136.9 173.5 137.4Q174.2 137.9 174.5 138.8Q174.8 139.7 174.8 141.0L174.8 141.0Q174.8 142.3 174.5 143.2Q174.2 144.1 173.5 144.6Q172.9 145.1 172.0 145.1ZM172.0 144.2L172.0 144.2Q172.6 144.2 173.0 143.8Q173.4 143.5 173.6 142.7Q173.9 142.0 173.9 141.0L173.9 141.0Q173.9 140.0 173.6 139.3Q173.4 138.5 173.0 138.2Q172.6 137.8 172.0 137.8L172.0 137.8Q171.4 137.8 171.0 138.2Q170.6 138.5 170.4 139.3Q170.2 140.0 170.2 141.0L170.2 141.0Q170.2 142.0 170.4 142.7Q170.6 143.5 171.0 143.8Q171.4 144.2 172.0 144.2ZM181.4 145L176.3 145L176.3 144.3L179.0 141.4Q179.4 140.9 179.7 140.5Q180.0 140.2 180.2 139.8Q180.3 139.5 180.3 139.1L180.3 139.1Q180.3 138.7 180.1 138.4Q179.9 138.1 179.6 137.9Q179.2 137.8 178.8 137.8L178.8 137.8Q178.4 137.8 178.0 138.0Q177.7 138.1 177.5 138.5Q177.3 138.8 177.3 139.3L177.3 139.3L176.3 139.3Q176.3 138.6 176.7 138.0Q177.0 137.5 177.6 137.2Q178.1 136.9 178.8 136.9L178.8 136.9Q179.5 136.9 180.1 137.2Q180.6 137.5 181.0 138.0Q181.3 138.5 181.3 139.1L181.3 139.1Q181.3 139.6 181.1 140.0Q181.0 140.4 180.6 140.9Q180.2 141.4 179.5 142.2L179.5 142.2L177.7 144.0L177.7 144.1L181.4 144.1L181.4 145ZM184.3 145L183.3 145L186.8 138.0L186.8 137.9L182.7 137.9L182.7 137.0L187.9 137.0L187.9 137.9L184.3 145Z "/></g><defs><clipPath id="satori_bc-id-0-1-1" clip-path="url(#satori_cp-id)"><path x="438" y="60" width="387" height="113" d="M450,60 h363 a12,12 0 0 1 12,12 v89 a12,12 0 0 1 -12,12 h-363 a12,12 0 0 1 -12,-12 v-89 a12,12 0 0 1 12,-12"/></clipPath></defs><clipPath id="satori_cp-id-0-1-1" clip-path="url(#satori_cp-id)"><path x="438" y="60" width="387" height="113" d="M450,60 h363 a12,12 0 0 1 12,12 v89 a12,12 0 0 1 -12,12 h-363 a12,12 0 0 1 -12,-12 v-89 a12,12 0 0 1 12,-12"/></clipPath><mask id="satori_om-id-0-1-1"><rect x="439" y="61" width="385" height="111" fill="#fff" mask="url(#satori_om-id)"/><path width="387" height="113" fill="none" stroke="#000" stroke-width="2" d="M441.515,63.515 A12,12 0 0 1 450,60 h363 a12,12 0 0 1 12,12 v89 a12,12 0 0 1 -12,12 h-363 a12,12 0 0 1 -12,-12 v-89 A12,12 0 0 1 441.515,63.515"/></mask><path x="438" y="60" width="387" height="113" fill="#13141B" d="M450,60 h363 a12,12 0 0 1 12,12 v89 a12,12 0 0 1 -12,12 h-363 a12,12 0 0 1 -12,-12 v-89 a12,12 0 0 1 12,-12" clip-path="url(#satori_cp-id)" mask="url(#satori_om-id)"/><path width="387" height="113" clip-path="url(#satori_bc-id-0-1-1)" fill="none" stroke="#20242E" stroke-width="2" d="M441.515,63.515 A12,12 0 0 1 450,60 h363 a12,12 0 0 1 12,12 v89 a12,12 0 0 1 -12,12 h-363 a12,12 0 0 1 -12,-12 v-89 A12,12 0 0 1 441.515,63.515"/><mask id="satori_om-id-0-1-1-0"><rect x="439" y="61" width="3" height="111" fill="#fff" mask="url(#satori_om-id-0-1-1)"/></mask><rect x="439" y="61" width="3" height="111" fill="#5EEAD4" clip-path="url(#satori_cp-id-0-1-1)" mask="url(#satori_om-id-0-1-1)"/><mask id="satori_om-id-0-1-1-1"><rect x="442" y="61" width="382" height="111" fill="#fff" mask="url(#satori_om-id-0-1-1)"/></mask><mask id="satori_om-id-0-1-1-1-0"><rect x="462" y="87" width="342" height="18" fill="#fff" mask="url(#satori_om-id-0-1-1)"/></mask><g mask="url(#satori_om-id-0-1-1)" clip-path="url(#satori_cp-id-0-1-1)"><path fill="#ECEEF3" d="M467.6 101.1L467.6 101.1Q466.2 101.1 465.1 100.5Q463.9 99.9 463.3 98.7Q462.7 97.4 462.7 95.7L462.7 95.7Q462.7 94.0 463.3 92.8Q464.0 91.6 465.1 90.9Q466.2 90.3 467.6 90.3L467.6 90.3Q468.5 90.3 469.2 90.6Q470.0 90.8 470.6 91.3Q471.2 91.8 471.6 92.5Q472.0 93.2 472.1 94.1L472.1 94.1L469.9 94.1Q469.8 93.6 469.6 93.3Q469.4 92.9 469.1 92.7Q468.8 92.5 468.4 92.4Q468.1 92.2 467.6 92.2L467.6 92.2Q466.8 92.2 466.2 92.6Q465.5 93.0 465.2 93.8Q464.9 94.6 464.9 95.7L464.9 95.7Q464.9 96.9 465.2 97.7Q465.6 98.4 466.2 98.8Q466.8 99.2 467.6 99.2L467.6 99.2Q468.1 99.2 468.4 99.1Q468.8 99.0 469.1 98.7Q469.4 98.5 469.6 98.2Q469.8 97.8 469.9 97.4L469.9 97.4L472.1 97.4Q472.0 98.1 471.7 98.8Q471.3 99.5 470.7 100.0Q470.2 100.5 469.4 100.8Q468.6 101.1 467.6 101.1ZM473.6 90.5L475.8 90.5L475.8 101L473.6 101L473.6 90.5ZM479.8 101.2L479.8 101.2Q479.0 101.2 478.4 100.9Q477.8 100.6 477.5 100.1Q477.1 99.6 477.1 98.8L477.1 98.8Q477.1 98.1 477.4 97.7Q477.6 97.2 478.0 97.0Q478.5 96.7 479.0 96.6Q479.5 96.4 480.1 96.4L480.1 96.4Q480.8 96.3 481.2 96.2Q481.7 96.2 481.8 96.0Q482.0 95.9 482.0 95.6L482.0 95.6L482.0 95.6Q482.0 95.3 481.9 95.0Q481.8 94.8 481.5 94.7Q481.2 94.6 480.8 94.6L480.8 94.6Q480.4 94.6 480.1 94.7Q479.8 94.8 479.6 95.0Q479.4 95.2 479.3 95.5L479.3 95.5L477.4 95.2Q477.6 94.5 478.0 94.0Q478.5 93.5 479.2 93.2Q479.9 93.0 480.8 93.0L480.8 93.0Q481.4 93.0 482.1 93.1Q482.7 93.3 483.1 93.6Q483.6 93.9 483.9 94.4Q484.2 95.0 484.2 95.7L484.2 95.7L484.2 101L482.2 101L482.2 99.9L482.1 99.9Q481.9 100.3 481.6 100.6Q481.3 100.8 480.8 101.0Q480.4 101.2 479.8 101.2ZM480.4 99.7L480.4 99.7Q480.9 99.7 481.3 99.5Q481.6 99.3 481.8 98.9Q482.1 98.6 482.1 98.2L482.1 98.2L482.1 97.3Q482.0 97.4 481.8 97.4Q481.6 97.5 481.3 97.5Q481.1 97.6 480.9 97.6Q480.7 97.7 480.5 97.7L480.5 97.7Q480.1 97.7 479.8 97.9Q479.5 98.0 479.3 98.2Q479.2 98.4 479.2 98.7L479.2 98.7Q479.2 99.0 479.3 99.2Q479.5 99.4 479.8 99.6Q480.0 99.7 480.4 99.7ZM489.1 101.2L489.1 101.2Q488.2 101.2 487.4 100.9Q486.7 100.6 486.2 100.1Q485.8 99.6 485.6 98.8L485.6 98.8L487.6 98.5Q487.8 99.0 488.1 99.3Q488.5 99.6 489.2 99.6L489.2 99.6Q489.8 99.6 490.1 99.4Q490.5 99.1 490.5 98.8L490.5 98.8Q490.5 98.5 490.2 98.3Q490.0 98.1 489.5 98.0L489.5 98.0L488.1 97.7Q487.0 97.5 486.4 96.9Q485.8 96.3 485.8 95.4L485.8 95.4Q485.8 94.7 486.2 94.1Q486.7 93.6 487.4 93.3Q488.2 93.0 489.2 93.0L489.2 93.0Q490.1 93.0 490.8 93.2Q491.5 93.5 491.9 94.0Q492.3 94.5 492.5 95.1L492.5 95.1L490.6 95.4Q490.5 95.0 490.1 94.8Q489.8 94.5 489.2 94.5L489.2 94.5Q488.7 94.5 488.3 94.7Q488.0 94.9 488.0 95.3L488.0 95.3Q488.0 95.6 488.2 95.8Q488.4 96.0 489.0 96.1L489.0 96.1L490.4 96.4Q491.5 96.7 492.1 97.2Q492.7 97.7 492.7 98.6L492.7 98.6Q492.7 99.3 492.2 99.9Q491.8 100.5 491.0 100.8Q490.2 101.2 489.1 101.2ZM497.2 101.2L497.2 101.2Q496.3 101.2 495.6 100.9Q494.8 100.6 494.3 100.1Q493.9 99.6 493.7 98.8L493.7 98.8L495.7 98.5Q495.9 99.0 496.3 99.3Q496.7 99.6 497.3 99.6L497.3 99.6Q497.9 99.6 498.3 99.4Q498.6 99.1 498.6 98.8L498.6 98.8Q498.6 98.5 498.4 98.3Q498.1 98.1 497.6 98.0L497.6 98.0L496.2 97.7Q495.1 97.5 494.5 96.9Q494.0 96.3 494.0 95.4L494.0 95.4Q494.0 94.7 494.4 94.1Q494.8 93.6 495.5 93.3Q496.3 93.0 497.3 93.0L497.3 93.0Q498.2 93.0 498.9 93.2Q499.6 93.5 500.0 94.0Q500.4 94.5 500.6 95.1L500.6 95.1L498.7 95.4Q498.6 95.0 498.2 94.8Q497.9 94.5 497.3 94.5L497.3 94.5Q496.8 94.5 496.4 94.7Q496.1 94.9 496.1 95.3L496.1 95.3Q496.1 95.6 496.3 95.8Q496.5 96.0 497.1 96.1L497.1 96.1L498.5 96.4Q499.7 96.7 500.2 97.2Q500.8 97.7 500.8 98.6L500.8 98.6Q500.8 99.3 500.3 99.9Q499.9 100.5 499.1 100.8Q498.3 101.2 497.2 101.2Z M507.6 101L505.1 101L508.9 95.6L505.5 90.5L508.0 90.5L509.1 92.2Q509.4 92.7 509.6 93.1Q509.9 93.5 510.0 93.9L510.0 93.9Q510.1 94.0 510.1 94.1L510.1 94.1Q510.2 94.0 510.2 93.9L510.2 93.9Q510.4 93.5 510.6 93.1Q510.8 92.7 511.2 92.2L511.2 92.2L512.3 90.5L514.8 90.5L511.4 95.5L515.1 101L512.5 101L511.1 98.8Q510.8 98.3 510.6 98.0Q510.4 97.7 510.3 97.4L510.3 97.4Q510.2 97.3 510.1 97.1L510.1 97.1Q510.0 97.3 509.9 97.4L509.9 97.4Q509.8 97.7 509.6 98.0Q509.4 98.3 509.1 98.8L509.1 98.8L507.6 101ZM516.4 90.5L518.6 90.5L518.6 101L516.4 101L516.4 90.5ZM520.5 90.5L522.6 90.5L522.6 101L520.5 101L520.5 90.5Z M529.5 97.2L529.5 97.2Q528.9 97.2 528.6 96.9Q528.2 96.5 528.2 96.0L528.2 96.0Q528.2 95.5 528.6 95.1Q528.9 94.8 529.5 94.8L529.5 94.8Q530.0 94.8 530.3 95.1Q530.7 95.5 530.7 96.0L530.7 96.0Q530.7 96.5 530.3 96.9Q530.0 97.2 529.5 97.2Z M540.9 101.1L540.9 101.1Q539.5 101.1 538.4 100.5Q537.3 99.9 536.6 98.7Q536.0 97.4 536.0 95.7L536.0 95.7Q536.0 94.0 536.6 92.8Q537.3 91.6 538.4 90.9Q539.5 90.3 540.9 90.3L540.9 90.3Q541.8 90.3 542.5 90.6Q543.3 90.8 543.9 91.3Q544.5 91.8 544.9 92.5Q545.3 93.2 545.4 94.1L545.4 94.1L543.2 94.1Q543.2 93.6 543.0 93.3Q542.7 92.9 542.4 92.7Q542.1 92.5 541.8 92.4Q541.4 92.2 540.9 92.2L540.9 92.2Q540.1 92.2 539.5 92.6Q538.9 93.0 538.5 93.8Q538.2 94.6 538.2 95.7L538.2 95.7Q538.2 96.9 538.5 97.7Q538.9 98.4 539.5 98.8Q540.1 99.2 540.9 99.2L540.9 99.2Q541.4 99.2 541.7 99.1Q542.1 99.0 542.4 98.7Q542.7 98.5 543.0 98.2Q543.2 97.8 543.2 97.4L543.2 97.4L545.4 97.4Q545.3 98.1 545.0 98.8Q544.6 99.5 544.1 100.0Q543.5 100.5 542.7 100.8Q541.9 101.1 540.9 101.1ZM551.4 101L547.0 101L547.0 90.5L551.2 90.5Q552.3 90.5 553.1 90.8Q553.9 91.2 554.3 91.8Q554.7 92.4 554.7 93.2L554.7 93.2Q554.7 93.8 554.4 94.2Q554.2 94.7 553.7 95.0Q553.3 95.3 552.8 95.4L552.8 95.4L552.8 95.5Q553.4 95.6 553.9 95.9Q554.4 96.2 554.7 96.7Q555.1 97.3 555.1 98.1L555.1 98.1Q555.1 98.9 554.7 99.6Q554.2 100.2 553.4 100.6Q552.6 101 551.4 101L551.4 101ZM549.1 96.4L549.1 99.2L551.0 99.2Q552.0 99.2 552.4 98.9Q552.8 98.5 552.8 97.9L552.8 97.9Q552.8 97.4 552.6 97.1Q552.4 96.8 552.0 96.6Q551.6 96.4 551.1 96.4L551.1 96.4L549.1 96.4ZM549.1 92.2L549.1 94.9L550.9 94.9Q551.3 94.9 551.7 94.7Q552.1 94.6 552.3 94.2Q552.5 93.9 552.5 93.5L552.5 93.5Q552.5 92.9 552.1 92.6Q551.7 92.2 550.9 92.2L550.9 92.2L549.1 92.2ZM560.4 101.2L560.4 101.2Q559.2 101.2 558.2 100.8Q557.3 100.4 556.8 99.6Q556.3 98.8 556.2 97.7L556.2 97.7L558.3 97.7Q558.4 98.3 558.7 98.6Q558.9 99.0 559.4 99.2Q559.8 99.3 560.4 99.3L560.4 99.3Q561.0 99.3 561.4 99.2Q561.9 99.0 562.1 98.7Q562.3 98.4 562.3 98.0L562.3 98.0Q562.3 97.6 562.1 97.4Q561.9 97.1 561.5 97.0Q561.1 96.8 560.5 96.6L560.5 96.6L559.4 96.4Q558.0 96.0 557.3 95.3Q556.5 94.6 556.5 93.5L556.5 93.5Q556.5 92.5 557.0 91.8Q557.5 91.1 558.4 90.7Q559.3 90.3 560.5 90.3L560.5 90.3Q561.6 90.3 562.5 90.7Q563.4 91.1 563.9 91.8Q564.4 92.5 564.4 93.5L564.4 93.5L562.3 93.5Q562.2 92.8 561.7 92.5Q561.3 92.1 560.5 92.1L560.5 92.1Q559.9 92.1 559.5 92.3Q559.1 92.4 558.9 92.7Q558.7 93.0 558.7 93.3L558.7 93.3Q558.7 93.7 559.0 94.0Q559.2 94.3 559.6 94.4Q560.0 94.6 560.4 94.7L560.4 94.7L561.4 94.9Q562.0 95.1 562.6 95.3Q563.2 95.6 563.6 95.9Q564.0 96.3 564.3 96.8Q564.5 97.3 564.5 98.0L564.5 98.0Q564.5 99.0 564.0 99.7Q563.6 100.4 562.6 100.8Q561.7 101.2 560.4 101.2ZM573.2 101L566.1 101L566.1 90.5L573.1 90.5L573.1 92.2L568.2 92.2L568.2 94.8L572.8 94.8L572.8 96.6L568.2 96.6L568.2 99.2L573.2 99.2L573.2 101Z "/></g><mask id="satori_om-id-0-1-1-1-1"><rect x="462" y="111" width="342" height="15" fill="#fff" mask="url(#satori_om-id-0-1-1)"/></mask><g mask="url(#satori_om-id-0-1-1)" clip-path="url(#satori_cp-id-0-1-1)"><path fill="#98A2B3" d="M466.8 123.1L466.8 123.1Q465.6 123.1 464.7 122.6Q463.8 122.0 463.3 120.9Q462.7 119.9 462.7 118.5L462.7 118.5Q462.7 117.0 463.3 116.0Q463.8 114.9 464.7 114.4Q465.6 113.8 466.8 113.8L466.8 113.8Q467.5 113.8 468.1 114.0Q468.7 114.2 469.2 114.6Q469.7 115.0 470.0 115.5Q470.3 116.1 470.4 116.8L470.4 116.8L469.3 116.8Q469.2 116.3 469.0 115.9Q468.7 115.6 468.4 115.3Q468.0 115.1 467.6 115.0Q467.2 114.9 466.8 114.9L466.8 114.9Q466.0 114.9 465.3 115.3Q464.6 115.7 464.3 116.5Q463.9 117.3 463.9 118.5L463.9 118.5Q463.9 119.6 464.3 120.4Q464.6 121.2 465.3 121.6Q466.0 122.0 466.8 122.0L466.8 122.0Q467.2 122.0 467.6 121.9Q468.0 121.8 468.4 121.6Q468.7 121.3 469.0 121.0Q469.2 120.6 469.3 120.1L469.3 120.1L470.4 120.1Q470.3 120.8 470.0 121.4Q469.7 121.9 469.2 122.3Q468.7 122.7 468.1 122.9Q467.5 123.1 466.8 123.1ZM472.9 123.1L472.9 123.1Q472.6 123.1 472.3 122.8Q472.1 122.6 472.1 122.3L472.1 122.3Q472.1 121.9 472.3 121.7Q472.6 121.4 472.9 121.4L472.9 121.4Q473.3 121.4 473.5 121.7Q473.8 121.9 473.8 122.3L473.8 122.3Q473.8 122.6 473.5 122.8Q473.3 123.1 472.9 123.1ZM477.0 123L475.8 123L475.8 113.9L478.9 113.9Q480.0 113.9 480.7 114.3Q481.4 114.6 481.7 115.3Q482.0 115.9 482.0 116.7Q482.0 117.5 481.7 118.1Q481.4 118.8 480.7 119.1L480.7 119.1Q480.5 119.2 480.4 119.3L480.4 119.3L482.4 123L481.1 123L479.2 119.5Q479.1 119.5 478.9 119.5L478.9 119.5L477.0 119.5L477.0 123ZM477.0 114.9L477.0 118.4L478.9 118.4Q479.6 118.4 480.1 118.2Q480.5 118.0 480.7 117.6Q480.9 117.2 480.9 116.7L480.9 116.7Q480.9 116.2 480.7 115.8Q480.5 115.4 480.0 115.1Q479.6 114.9 478.9 114.9L478.9 114.9L477.0 114.9ZM484.6 123.1L484.6 123.1Q484.2 123.1 484.0 122.8Q483.8 122.6 483.8 122.3L483.8 122.3Q483.8 121.9 484.0 121.7Q484.2 121.4 484.6 121.4L484.6 121.4Q484.9 121.4 485.2 121.7Q485.4 121.9 485.4 122.3L485.4 122.3Q485.4 122.6 485.2 122.8Q484.9 123.1 484.6 123.1ZM488.6 123L487.5 123L487.5 113.9L490.6 113.9Q491.7 113.9 492.3 114.3Q493.0 114.7 493.4 115.3Q493.7 116.0 493.7 116.8Q493.7 117.6 493.4 118.3Q493.0 118.9 492.3 119.3Q491.7 119.7 490.6 119.7L490.6 119.7L488.6 119.7L488.6 123ZM488.6 114.9L488.6 118.7L490.5 118.7Q491.3 118.7 491.7 118.4Q492.1 118.2 492.3 117.8Q492.5 117.3 492.5 116.8Q492.5 116.3 492.3 115.8Q492.1 115.4 491.7 115.2Q491.3 114.9 490.5 114.9L490.5 114.9L488.6 114.9ZM496.2 123.1L496.2 123.1Q495.8 123.1 495.6 122.8Q495.3 122.6 495.3 122.3L495.3 122.3Q495.3 121.9 495.6 121.7Q495.8 121.4 496.2 121.4L496.2 121.4Q496.5 121.4 496.7 121.7Q497.0 121.9 497.0 122.3L497.0 122.3Q497.0 122.6 496.7 122.8Q496.5 123.1 496.2 123.1ZM500.2 123L499.1 123L499.1 113.9L504.6 113.9L504.6 114.9L500.2 114.9L500.2 118.0L504.1 118.0L504.1 119.1L500.2 119.1L500.2 123Z M511.1 123L510.0 123L510.0 113.9L513.1 113.9Q514.1 113.9 514.8 114.3Q515.5 114.7 515.8 115.3Q516.2 116.0 516.2 116.8Q516.2 117.6 515.8 118.3Q515.5 118.9 514.8 119.3Q514.1 119.7 513.1 119.7L513.1 119.7L511.1 119.7L511.1 123ZM511.1 114.9L511.1 118.7L513.0 118.7Q513.7 118.7 514.2 118.4Q514.6 118.2 514.8 117.8Q515.0 117.3 515.0 116.8Q515.0 116.3 514.8 115.8Q514.6 115.4 514.2 115.2Q513.7 114.9 513.0 114.9L513.0 114.9L511.1 114.9ZM520.1 123.1L520.1 123.1Q519.4 123.1 518.9 122.8Q518.4 122.5 518.1 121.9Q517.8 121.4 517.8 120.5L517.8 120.5L517.8 116.2L518.9 116.2L518.9 120.4Q518.9 121.2 519.3 121.7Q519.7 122.1 520.4 122.1L520.4 122.1Q520.9 122.1 521.3 121.9Q521.7 121.7 521.9 121.3Q522.2 120.8 522.2 120.3L522.2 120.3L522.2 116.2L523.3 116.2L523.3 123L522.2 123L522.2 121.7Q521.9 122.4 521.5 122.7L521.5 122.7Q520.9 123.1 520.1 123.1ZM528.4 123.1L528.4 123.1Q527.7 123.1 527.3 122.9Q526.9 122.7 526.7 122.4Q526.5 122.1 526.4 121.9L526.4 121.9L526.3 121.9L526.3 123L525.2 123L525.2 113.9L526.3 113.9L526.3 117.3L526.4 117.3Q526.5 117.1 526.7 116.8Q526.9 116.5 527.3 116.3Q527.7 116.1 528.4 116.1L528.4 116.1Q529.2 116.1 529.9 116.5Q530.5 116.9 530.9 117.7Q531.3 118.5 531.3 119.6L531.3 119.6Q531.3 120.7 530.9 121.5Q530.5 122.3 529.9 122.7Q529.2 123.1 528.4 123.1ZM528.2 122.2L528.2 122.2Q528.8 122.2 529.3 121.8Q529.7 121.5 529.9 120.9Q530.1 120.3 530.1 119.6L530.1 119.6Q530.1 118.9 529.9 118.3Q529.7 117.7 529.3 117.4Q528.8 117.1 528.2 117.1L528.2 117.1Q527.6 117.1 527.1 117.4Q526.7 117.7 526.5 118.3Q526.3 118.8 526.3 119.6L526.3 119.6Q526.3 120.4 526.5 120.9Q526.7 121.5 527.2 121.8Q527.6 122.2 528.2 122.2ZM532.8 113.9L533.9 113.9L533.9 123L532.8 123L532.8 113.9ZM537.0 123L535.9 123L535.9 116.2L537.0 116.2L537.0 123ZM536.4 115.1L536.4 115.1Q536.1 115.1 535.9 114.8Q535.7 114.6 535.7 114.3L535.7 114.3Q535.7 114.0 535.9 113.8Q536.1 113.6 536.4 113.6L536.4 113.6Q536.7 113.6 537.0 113.8Q537.2 114.0 537.2 114.3L537.2 114.3Q537.2 114.6 537.0 114.8Q536.7 115.1 536.4 115.1ZM541.7 123.1L541.7 123.1Q540.8 123.1 540.1 122.7Q539.4 122.3 539.0 121.5Q538.6 120.7 538.6 119.6L538.6 119.6Q538.6 118.6 539.0 117.8Q539.4 117.0 540.1 116.5Q540.8 116.1 541.7 116.1L541.7 116.1Q542.2 116.1 542.6 116.2Q543.1 116.3 543.4 116.6Q543.8 116.8 544.0 117.2Q544.3 117.5 544.4 118.0L544.4 118.0L543.4 118.3Q543.3 118.0 543.2 117.8Q543.0 117.6 542.8 117.4Q542.6 117.3 542.3 117.2Q542.0 117.1 541.7 117.1L541.7 117.1Q541.0 117.1 540.6 117.4Q540.1 117.8 539.9 118.4Q539.7 118.9 539.7 119.6L539.7 119.6Q539.7 120.3 539.9 120.9Q540.1 121.5 540.6 121.8Q541.0 122.2 541.7 122.2L541.7 122.2Q542.0 122.2 542.3 122.1Q542.6 122.0 542.8 121.8Q543.0 121.6 543.2 121.4Q543.3 121.2 543.4 120.9L543.4 120.9L544.5 121.2Q544.3 121.7 544.1 122.0Q543.8 122.4 543.4 122.6Q543.1 122.9 542.6 123.0Q542.2 123.1 541.7 123.1Z M552.6 123.2L552.6 123.2Q551.6 123.2 550.9 122.8Q550.2 122.5 549.8 122.0Q549.4 121.4 549.3 120.6L549.3 120.6L550.5 120.6Q550.5 121.1 550.8 121.5Q551.1 121.8 551.6 122.0Q552.1 122.1 552.6 122.1L552.6 122.1Q553.2 122.1 553.7 121.9Q554.2 121.7 554.5 121.4Q554.8 121.0 554.8 120.5L554.8 120.5Q554.8 120.1 554.5 119.8Q554.3 119.5 553.9 119.3Q553.5 119.2 553.0 119.0L553.0 119.0L551.9 118.7Q550.8 118.4 550.2 117.8Q549.6 117.2 549.6 116.3L549.6 116.3Q549.6 115.6 550.0 115.0Q550.4 114.4 551.1 114.1Q551.8 113.8 552.7 113.8L552.7 113.8Q553.6 113.8 554.3 114.1Q555.0 114.4 555.4 115.0Q555.8 115.5 555.8 116.2L555.8 116.2L554.7 116.2Q554.6 115.5 554.0 115.2Q553.5 114.8 552.6 114.8L552.6 114.8Q552.1 114.8 551.6 115.0Q551.2 115.2 550.9 115.5Q550.7 115.9 550.7 116.3L550.7 116.3Q550.7 116.8 551.0 117.1Q551.3 117.3 551.7 117.5Q552.1 117.7 552.4 117.8L552.4 117.8L553.3 118.0Q553.7 118.1 554.1 118.3Q554.6 118.4 555.0 118.7Q555.4 119.0 555.6 119.5Q555.9 119.9 555.9 120.5L555.9 120.5Q555.9 121.3 555.5 121.9Q555.1 122.5 554.4 122.8Q553.7 123.2 552.6 123.2ZM560.4 123.1L560.4 123.1Q559.4 123.1 558.7 122.7Q558.0 122.3 557.6 121.5Q557.3 120.7 557.3 119.6L557.3 119.6Q557.3 118.6 557.6 117.8Q558.0 117.0 558.7 116.5Q559.4 116.1 560.4 116.1L560.4 116.1Q560.9 116.1 561.3 116.2Q561.7 116.3 562.1 116.6Q562.5 116.8 562.7 117.2Q563.0 117.5 563.1 118.0L563.1 118.0L562.1 118.3Q562.0 118.0 561.8 117.8Q561.7 117.6 561.5 117.4Q561.3 117.3 561.0 117.2Q560.7 117.1 560.4 117.1L560.4 117.1Q559.7 117.1 559.2 117.4Q558.8 117.8 558.6 118.4Q558.4 118.9 558.4 119.6L558.4 119.6Q558.4 120.3 558.6 120.9Q558.8 121.5 559.2 121.8Q559.7 122.2 560.4 122.2L560.4 122.2Q560.7 122.2 561.0 122.1Q561.3 122.0 561.5 121.8Q561.7 121.6 561.9 121.4Q562.0 121.2 562.1 120.9L562.1 120.9L563.1 121.2Q563.0 121.7 562.7 122.0Q562.5 122.4 562.1 122.6Q561.7 122.9 561.3 123.0Q560.9 123.1 560.4 123.1ZM565.8 118.9L565.8 118.9L565.8 123L564.7 123L564.7 113.9L565.8 113.9L565.8 117.4Q566.1 116.8 566.5 116.5L566.5 116.5Q567.1 116.1 567.9 116.1L567.9 116.1Q568.6 116.1 569.1 116.4Q569.6 116.7 569.9 117.2Q570.2 117.8 570.2 118.7L570.2 118.7L570.2 123L569.1 123L569.1 118.8Q569.1 118.0 568.7 117.5Q568.3 117.1 567.5 117.1L567.5 117.1Q567.1 117.1 566.7 117.3Q566.3 117.5 566.0 117.9Q565.8 118.3 565.8 118.9ZM574.9 123.1L574.9 123.1Q574.0 123.1 573.3 122.7Q572.6 122.3 572.2 121.5Q571.8 120.7 571.8 119.6L571.8 119.6Q571.8 118.6 572.2 117.8Q572.6 117.0 573.3 116.5Q574.0 116.1 574.9 116.1L574.9 116.1Q575.8 116.1 576.5 116.5Q577.2 117.0 577.6 117.8Q578.0 118.6 578.0 119.6L578.0 119.6Q578.0 120.7 577.6 121.5Q577.2 122.3 576.5 122.7Q575.8 123.1 574.9 123.1ZM574.9 122.2L574.9 122.2Q575.6 122.2 576.0 121.8Q576.5 121.5 576.7 120.9Q576.9 120.3 576.9 119.6L576.9 119.6Q576.9 119.0 576.7 118.4Q576.5 117.8 576.0 117.4Q575.6 117.1 574.9 117.1L574.9 117.1Q574.2 117.1 573.8 117.4Q573.3 117.8 573.1 118.4Q572.9 118.9 572.9 119.6L572.9 119.6Q572.9 120.3 573.1 120.9Q573.3 121.5 573.8 121.8Q574.2 122.2 574.9 122.2ZM582.4 123.1L582.4 123.1Q581.5 123.1 580.8 122.7Q580.1 122.3 579.7 121.5Q579.3 120.7 579.3 119.6L579.3 119.6Q579.3 118.6 579.7 117.8Q580.1 117.0 580.8 116.5Q581.5 116.1 582.4 116.1L582.4 116.1Q583.3 116.1 584.0 116.5Q584.7 117.0 585.1 117.8Q585.5 118.6 585.5 119.6L585.5 119.6Q585.5 120.7 585.1 121.5Q584.7 122.3 584.0 122.7Q583.3 123.1 582.4 123.1ZM582.4 122.2L582.4 122.2Q583.1 122.2 583.5 121.8Q584.0 121.5 584.2 120.9Q584.4 120.3 584.4 119.6L584.4 119.6Q584.4 119.0 584.2 118.4Q584.0 117.8 583.5 117.4Q583.1 117.1 582.4 117.1L582.4 117.1Q581.7 117.1 581.3 117.4Q580.8 117.8 580.6 118.4Q580.4 118.9 580.4 119.6L580.4 119.6Q580.4 120.3 580.6 120.9Q580.8 121.5 581.3 121.8Q581.7 122.2 582.4 122.2ZM587.1 113.9L588.2 113.9L588.2 123L587.1 123L587.1 113.9ZM590.8 125.2L589.9 125.2L590.5 121.7L591.7 121.7L590.8 125.2Z M600.2 123L600.2 123L597.4 123L597.4 113.9L600.3 113.9Q601.7 113.9 602.6 114.4Q603.6 115.0 604.1 116.0Q604.6 117.0 604.6 118.4L604.6 118.4Q604.6 119.9 604.1 120.9Q603.5 121.9 602.6 122.5Q601.6 123 600.2 123ZM598.5 114.9L598.5 122.0L600.1 122.0Q601.3 122.0 602.0 121.6Q602.7 121.1 603.1 120.3Q603.4 119.5 603.4 118.4L603.4 118.4Q603.4 117.3 603.1 116.6Q602.7 115.8 602.0 115.4Q601.3 114.9 600.3 114.9L600.3 114.9L598.5 114.9ZM609.1 123.1L609.1 123.1Q608.1 123.1 607.4 122.7Q606.7 122.3 606.3 121.5Q605.9 120.7 605.9 119.6Q605.9 118.6 606.3 117.8Q606.7 117.0 607.4 116.5Q608.1 116.1 609.0 116.1L609.0 116.1Q609.6 116.1 610.1 116.3Q610.6 116.5 611.0 116.9Q611.5 117.3 611.7 117.9Q612.0 118.6 612.0 119.5L612.0 119.5L612.0 120.0L607.1 120.0Q607.1 120.6 607.3 121.1L607.3 121.1Q607.6 121.6 608.0 121.9Q608.5 122.2 609.1 122.2L609.1 122.2Q609.5 122.2 609.9 122.1Q610.2 121.9 610.4 121.7Q610.7 121.5 610.8 121.1L610.8 121.1L611.9 121.4Q611.7 121.9 611.3 122.3Q611.0 122.7 610.4 122.9Q609.8 123.1 609.1 123.1ZM607.1 119.0L607.1 119.0L610.9 119.0Q610.8 118.6 610.7 118.2L610.7 118.2Q610.5 117.7 610.0 117.4Q609.6 117.1 609.0 117.1Q608.4 117.1 608.0 117.4Q607.5 117.7 607.3 118.2L607.3 118.2Q607.1 118.6 607.1 119.0ZM613.6 113.9L614.7 113.9L614.7 123L613.6 123L613.6 113.9ZM617.7 118.9L617.7 118.9L617.7 123L616.6 123L616.6 113.9L617.7 113.9L617.7 117.4Q618.0 116.8 618.4 116.5L618.4 116.5Q619.0 116.1 619.7 116.1L619.7 116.1Q620.4 116.1 620.9 116.4Q621.5 116.7 621.8 117.2Q622.0 117.8 622.0 118.7L622.0 118.7L622.0 123L620.9 123L620.9 118.8Q620.9 118.0 620.5 117.5Q620.1 117.1 619.4 117.1L619.4 117.1Q618.9 117.1 618.5 117.3Q618.1 117.5 617.9 117.9Q617.7 118.3 617.7 118.9ZM625.1 123L624.0 123L624.0 116.2L625.1 116.2L625.1 123ZM624.5 115.1L624.5 115.1Q624.2 115.1 624.0 114.8Q623.8 114.6 623.8 114.3L623.8 114.3Q623.8 114.0 624.0 113.8Q624.2 113.6 624.5 113.6L624.5 113.6Q624.8 113.6 625.1 113.8Q625.3 114.0 625.3 114.3L625.3 114.3Q625.3 114.6 625.1 114.8Q624.8 115.1 624.5 115.1Z "/></g><mask id="satori_om-id-0-1-1-1-2"><rect x="462" y="134" width="342" height="13" fill="#fff" mask="url(#satori_om-id-0-1-1)"/></mask><g mask="url(#satori_om-id-0-1-1)" clip-path="url(#satori_cp-id-0-1-1)"><path fill="#5B6573" d="M465.2 145.1L465.2 145.1Q464.6 145.1 464.0 144.8Q463.5 144.6 463.2 144.1Q462.8 143.6 462.7 143.0L462.7 143.0L463.7 143.0Q463.9 143.5 464.2 143.9Q464.6 144.2 465.2 144.2L465.2 144.2Q465.9 144.2 466.3 143.8Q466.7 143.5 467.0 142.8Q467.2 142.1 467.2 141.2L467.2 141.2L467.1 141.2Q466.9 141.5 466.6 141.7Q466.3 142.0 466.0 142.1Q465.6 142.2 465.2 142.2L465.2 142.2Q464.5 142.2 463.9 141.9Q463.3 141.5 463.0 140.9Q462.7 140.3 462.7 139.6L462.7 139.6Q462.7 138.8 463.0 138.2Q463.3 137.6 463.9 137.2Q464.6 136.9 465.4 136.9L465.4 136.9Q465.9 136.9 466.4 137.1Q466.9 137.3 467.3 137.7Q467.7 138.1 467.9 138.8Q468.2 139.6 468.2 140.7L468.2 140.7Q468.2 141.7 468.0 142.6Q467.8 143.4 467.4 144.0Q467.0 144.5 466.5 144.8Q465.9 145.1 465.2 145.1ZM465.3 141.3L465.3 141.3Q465.7 141.3 466.0 141.2Q466.3 141.0 466.6 140.8Q466.8 140.5 466.9 140.2Q467.1 139.9 467.1 139.5L467.1 139.5Q467.1 139.1 466.8 138.7Q466.6 138.3 466.2 138.0Q465.9 137.8 465.4 137.8L465.4 137.8Q464.9 137.8 464.5 138.0Q464.1 138.3 463.9 138.7Q463.7 139.1 463.7 139.6L463.7 139.6Q463.7 140.1 463.9 140.5Q464.1 140.9 464.5 141.1Q464.8 141.3 465.3 141.3ZM472.3 145.1L472.3 145.1Q471.8 145.1 471.3 144.9Q470.8 144.7 470.4 144.3Q470.0 143.9 469.7 143.1Q469.5 142.4 469.5 141.3L469.5 141.3Q469.5 140.2 469.7 139.4Q469.9 138.6 470.3 138.0Q470.6 137.5 471.2 137.2Q471.7 136.9 472.4 136.9L472.4 136.9Q473.1 136.9 473.6 137.2Q474.1 137.4 474.5 137.9Q474.8 138.4 474.9 139.0L474.9 139.0L473.9 139.0Q473.8 138.5 473.4 138.1Q473.0 137.8 472.4 137.8L472.4 137.8Q471.8 137.8 471.4 138.2Q470.9 138.5 470.7 139.2Q470.4 139.9 470.4 140.8L470.4 140.8L470.5 140.8Q470.7 140.5 471.0 140.3Q471.3 140.0 471.7 139.9Q472.1 139.8 472.5 139.8L472.5 139.8Q473.2 139.8 473.7 140.1Q474.3 140.4 474.6 141.0Q475.0 141.6 475.0 142.4L475.0 142.4Q475.0 143.2 474.7 143.8Q474.3 144.4 473.7 144.7Q473.1 145.1 472.3 145.1ZM472.3 144.2L472.3 144.2Q472.8 144.2 473.2 144.0Q473.5 143.7 473.8 143.3Q474.0 142.9 474.0 142.4L474.0 142.4Q474.0 141.9 473.8 141.5Q473.6 141.1 473.2 140.9Q472.8 140.7 472.3 140.7L472.3 140.7Q472.0 140.7 471.6 140.8Q471.3 140.9 471.1 141.2Q470.9 141.4 470.7 141.8Q470.6 142.1 470.6 142.4L470.6 142.4Q470.6 142.9 470.8 143.3Q471.0 143.7 471.4 144.0Q471.8 144.2 472.3 144.2ZM476.9 145.1L476.9 145.1Q476.6 145.1 476.3 144.9Q476.1 144.6 476.1 144.3L476.1 144.3Q476.1 144.0 476.3 143.8Q476.6 143.6 476.9 143.6L476.9 143.6Q477.2 143.6 477.4 143.8Q477.6 144.0 477.6 144.3L477.6 144.3Q477.6 144.6 477.4 144.9Q477.2 145.1 476.9 145.1ZM481.5 145.1L481.5 145.1Q480.8 145.1 480.2 144.8Q479.7 144.6 479.3 144.1Q479.0 143.6 479.0 143.0L479.0 143.0L480.0 143.0Q480.0 143.3 480.2 143.6Q480.4 143.9 480.7 144.1Q481.1 144.2 481.5 144.2L481.5 144.2Q482.0 144.2 482.3 144.0Q482.7 143.8 482.9 143.4Q483.2 143.0 483.2 142.5L483.2 142.5Q483.2 141.9 482.9 141.5Q482.7 141.1 482.3 140.9Q481.9 140.7 481.4 140.7L481.4 140.7Q481.1 140.7 480.7 140.8Q480.3 140.9 480.1 141.1L480.1 141.1L479.1 141.0L479.6 137.0L483.8 137.0L483.8 137.9L480.4 137.9L480.2 140.2L480.2 140.2Q480.4 140.0 480.8 139.9Q481.2 139.8 481.6 139.8L481.6 139.8Q482.2 139.8 482.6 140.0Q483.1 140.2 483.4 140.5Q483.8 140.9 484.0 141.4Q484.2 141.9 484.2 142.4L484.2 142.4Q484.2 143.2 483.8 143.8Q483.5 144.4 482.9 144.8Q482.3 145.1 481.5 145.1ZM487.6 140.5L487.6 140.5Q487.1 140.5 486.8 140.3Q486.4 140.1 486.2 139.7Q486.0 139.3 486.0 138.9L486.0 138.9L486.0 138.5Q486.0 138.0 486.2 137.7Q486.4 137.3 486.8 137.1Q487.1 136.9 487.6 136.9L487.6 136.9Q488.1 136.9 488.5 137.1Q488.8 137.3 489.0 137.7Q489.2 138.0 489.2 138.5L489.2 138.5L489.2 138.9Q489.2 139.3 489.0 139.7Q488.8 140.1 488.5 140.3Q488.1 140.5 487.6 140.5ZM487.6 139.8L487.6 139.8Q488.0 139.8 488.2 139.6Q488.4 139.3 488.4 138.9L488.4 138.9L488.4 138.5Q488.4 138.1 488.2 137.9Q488.0 137.6 487.6 137.6L487.6 137.6Q487.2 137.6 487.0 137.9Q486.9 138.1 486.9 138.5L486.9 138.5L486.9 138.9Q486.9 139.3 487.0 139.6Q487.2 139.8 487.6 139.8ZM492.8 145.2L492.8 145.2Q492.3 145.2 492.0 144.9Q491.6 144.7 491.4 144.3Q491.2 144.0 491.2 143.5L491.2 143.5L491.2 143.1Q491.2 142.7 491.4 142.3Q491.6 141.9 492.0 141.7Q492.3 141.5 492.8 141.5L492.8 141.5Q493.3 141.5 493.7 141.7Q494.0 141.9 494.2 142.3Q494.4 142.7 494.4 143.1L494.4 143.1L494.4 143.5Q494.4 144.0 494.2 144.3Q494.0 144.7 493.7 144.9Q493.3 145.2 492.8 145.2ZM492.8 144.5L492.8 144.5Q493.2 144.5 493.4 144.2Q493.6 143.9 493.6 143.5L493.6 143.5L493.6 143.1Q493.6 142.8 493.4 142.5Q493.2 142.2 492.8 142.2L492.8 142.2Q492.4 142.2 492.2 142.5Q492.1 142.8 492.1 143.1L492.1 143.1L492.1 143.5Q492.1 143.9 492.2 144.2Q492.4 144.5 492.8 144.5ZM487.9 145L487.0 145L492.5 137.0L493.4 137.0L487.9 145Z M501.0 145L500.1 145L500.1 139.0L501.0 139.0L501.0 145ZM500.6 138.0L500.6 138.0Q500.3 138.0 500.1 137.8Q499.9 137.6 499.9 137.4L499.9 137.4Q499.9 137.1 500.1 136.9Q500.3 136.7 500.6 136.7L500.6 136.7Q500.8 136.7 501.0 136.9Q501.2 137.1 501.2 137.4L501.2 137.4Q501.2 137.6 501.0 137.8Q500.8 138.0 500.6 138.0ZM503.7 141.4L503.7 141.4L503.7 145L502.7 145L502.7 139.0L503.7 139.0L503.7 140.1Q503.9 139.5 504.3 139.3L504.3 139.3Q504.8 138.9 505.5 138.9L505.5 138.9Q506.1 138.9 506.6 139.2Q507.0 139.4 507.3 139.9Q507.5 140.4 507.5 141.2L507.5 141.2L507.5 145L506.6 145L506.6 141.3Q506.6 140.6 506.2 140.2Q505.9 139.8 505.2 139.8L505.2 139.8Q504.8 139.8 504.5 140.0Q504.1 140.2 503.9 140.5Q503.7 140.9 503.7 141.4Z M515.7 145.1L515.7 145.1Q514.7 145.1 513.9 144.6Q513.1 144.1 512.6 143.2Q512.1 142.3 512.1 141.0L512.1 141.0Q512.1 139.7 512.6 138.8Q513.1 137.9 513.9 137.4Q514.7 136.9 515.7 136.9L515.7 136.9Q516.3 136.9 516.8 137.1Q517.4 137.2 517.8 137.6Q518.2 137.9 518.5 138.4Q518.8 138.9 518.9 139.5L518.9 139.5L517.9 139.5Q517.8 139.1 517.6 138.8Q517.4 138.5 517.1 138.3Q516.8 138.0 516.4 137.9Q516.1 137.8 515.7 137.8L515.7 137.8Q515.0 137.8 514.4 138.2Q513.8 138.6 513.5 139.3Q513.1 140.0 513.1 141.0L513.1 141.0Q513.1 142.0 513.5 142.7Q513.8 143.4 514.4 143.8Q515.0 144.2 515.7 144.2L515.7 144.2Q516.1 144.2 516.4 144.1Q516.8 143.9 517.1 143.7Q517.4 143.5 517.6 143.2Q517.8 142.9 517.9 142.5L517.9 142.5L518.9 142.5Q518.8 143.1 518.5 143.6Q518.2 144.1 517.8 144.4Q517.4 144.7 516.8 144.9Q516.3 145.1 515.7 145.1ZM520.4 137.0L521.3 137.0L521.3 145L520.4 145L520.4 137.0ZM524.7 145.1L524.7 145.1Q524.1 145.1 523.7 144.9Q523.2 144.7 522.9 144.3Q522.7 143.9 522.7 143.3L522.7 143.3Q522.7 142.8 522.9 142.5Q523.1 142.1 523.4 141.9Q523.8 141.8 524.2 141.7Q524.6 141.6 525.0 141.5L525.0 141.5Q525.5 141.5 525.9 141.4Q526.2 141.4 526.4 141.3Q526.5 141.2 526.5 141.0L526.5 141.0L526.5 140.9Q526.5 140.6 526.4 140.3Q526.3 140.0 526.0 139.9Q525.7 139.8 525.3 139.8L525.3 139.8Q524.9 139.8 524.6 139.9Q524.3 140.0 524.1 140.2Q523.9 140.4 523.8 140.6L523.8 140.6L522.8 140.3Q523.1 139.8 523.5 139.5Q523.9 139.2 524.3 139.0Q524.8 138.9 525.3 138.9L525.3 138.9Q525.6 138.9 526.0 139.0Q526.3 139.1 526.7 139.3Q527.0 139.5 527.3 139.9Q527.5 140.3 527.5 141.0L527.5 141.0L527.5 145L526.6 145L526.6 144.2L526.5 144.2Q526.4 144.4 526.2 144.6Q525.9 144.8 525.6 145.0Q525.2 145.1 524.7 145.1ZM524.9 144.3L524.9 144.3Q525.4 144.3 525.8 144.1Q526.2 143.9 526.4 143.5Q526.5 143.2 526.5 142.8L526.5 142.8L526.5 142.0Q526.5 142.1 526.3 142.1Q526.1 142.2 525.8 142.2Q525.6 142.3 525.3 142.3Q525.1 142.3 525.0 142.3L525.0 142.3Q524.6 142.4 524.3 142.5Q524.0 142.6 523.8 142.8Q523.6 143.0 523.6 143.3L523.6 143.3Q523.6 143.7 523.8 143.9Q524.0 144.1 524.2 144.2Q524.5 144.3 524.9 144.3ZM531.3 145.1L531.3 145.1Q530.6 145.1 530.2 144.9Q529.7 144.8 529.4 144.4Q529.1 144.1 528.9 143.5L528.9 143.5L529.9 143.3Q530.0 143.8 530.3 144.0Q530.7 144.3 531.2 144.3L531.2 144.3Q531.9 144.3 532.2 144.0Q532.6 143.7 532.6 143.4L532.6 143.4Q532.6 143.1 532.4 142.9Q532.2 142.6 531.7 142.5L531.7 142.5L530.7 142.3Q529.9 142.1 529.5 141.7Q529.1 141.3 529.1 140.7L529.1 140.7Q529.1 140.2 529.4 139.8Q529.7 139.4 530.2 139.1Q530.7 138.9 531.4 138.9L531.4 138.9Q532.0 138.9 532.4 139.1Q532.8 139.3 533.1 139.6Q533.4 139.9 533.5 140.4L533.5 140.4L532.6 140.6Q532.5 140.3 532.2 140.0Q531.9 139.7 531.4 139.7L531.4 139.7Q530.8 139.7 530.5 140.0Q530.1 140.2 530.1 140.6L530.1 140.6Q530.1 140.9 530.3 141.1Q530.6 141.3 531.1 141.5L531.1 141.5L532.0 141.7Q532.8 141.9 533.2 142.3Q533.6 142.7 533.6 143.3L533.6 143.3Q533.6 143.8 533.3 144.2Q533.0 144.7 532.5 144.9Q532.0 145.1 531.3 145.1ZM537.1 145.1L537.1 145.1Q536.4 145.1 536.0 144.9Q535.5 144.8 535.2 144.4Q534.9 144.1 534.8 143.5L534.8 143.5L535.7 143.3Q535.8 143.8 536.2 144.0Q536.5 144.3 537.1 144.3L537.1 144.3Q537.7 144.3 538.1 144.0Q538.4 143.7 538.4 143.4L538.4 143.4Q538.4 143.1 538.2 142.9Q538.0 142.6 537.5 142.5L537.5 142.5L536.5 142.3Q535.7 142.1 535.3 141.7Q534.9 141.3 534.9 140.7L534.9 140.7Q534.9 140.2 535.2 139.8Q535.5 139.4 536.0 139.1Q536.5 138.9 537.2 138.9L537.2 138.9Q537.8 138.9 538.2 139.1Q538.6 139.3 538.9 139.6Q539.2 139.9 539.3 140.4L539.3 140.4L538.4 140.6Q538.3 140.3 538.0 140.0Q537.7 139.7 537.2 139.7L537.2 139.7Q536.6 139.7 536.3 140.0Q535.9 140.2 535.9 140.6L535.9 140.6Q535.9 140.9 536.2 141.1Q536.4 141.3 536.9 141.5L536.9 141.5L537.8 141.7Q538.6 141.9 539.0 142.3Q539.4 142.7 539.4 143.3L539.4 143.3Q539.4 143.8 539.1 144.2Q538.8 144.7 538.3 144.9Q537.8 145.1 537.1 145.1Z M544.5 145L543.4 145L546.2 140.9L543.6 137.0L544.7 137.0L545.9 138.7Q546.1 139.1 546.3 139.3Q546.5 139.6 546.6 139.8L546.6 139.8Q546.7 140.0 546.8 140.3L546.8 140.3Q547.0 140.0 547.1 139.8L547.1 139.8Q547.2 139.6 547.4 139.3Q547.5 139.1 547.8 138.7L547.8 138.7L549.0 137.0L550.1 137.0L547.4 140.9L550.3 145L549.1 145L547.7 143.0Q547.5 142.6 547.3 142.4Q547.2 142.2 547.0 141.9L547.0 141.9Q546.9 141.8 546.8 141.6L546.8 141.6Q546.7 141.8 546.6 141.9L546.6 141.9Q546.5 142.1 546.3 142.4Q546.2 142.6 546.0 143.0L546.0 143.0L544.5 145Z "/></g></svg>