<!-- Generated by readme-aura https://github.com/collectioneur/readme-aura -->
<svg width="860" height="150" viewBox="0 0 860 150" xmlns="http://www.w3.org/2000/svg"><defs><clipPath id="satori_bc-id"><path x="0" y="0" width="860" height="150" d="M20,0 h820 a20,20 0 0 1 20,20 v110 a20,20 0 0 1 -20,20 h-820 a20,20 0 0 1 -20,-20 v-110 a20,20 0 0 1 20,-20"/></clipPath></defs><clipPath id="satori_cp-id"><path x="0" y="0" width="860" height="150" d="M20,0 h820 a20,20 0 0 1 20,20 v110 a20,20 0 0 1 -20,20 h-820 a20,20 0 0 1 -20,-20 v-110 a20,20 0 0 1 20,-20"/></clipPath><mask id="satori_om-id"><rect x="1" y="1" width="858" height="148" fill="#fff"/><path width="860" height="150" fill="none" stroke="#000" stroke-width="2" d="M5.8580000000000005,5.8580000000000005 A20,20 0 0 1 20,0 h820 a20,20 0 0 1 20,20 v110 a20,20 0 0 1 -20,20 h-820 a20,20 0 0 1 -20,-20 v-110 A20,20 0 0 1 5.8580000000000005,5.8580000000000005"/></mask><path x="0" y="0" width="860" height="150" fill="#0E0F14" d="M20,0 h820 a20,20 0 0 1 20,20 v110 a20,20 0 0 1 -20,20 h-820 a20,20 0 0 1 -20,-20 v-110 a20,20 0 0 1 20,-20"/><path width="860" height="150" clip-path="url(#satori_bc-id)" fill="none" stroke="#20242E" stroke-width="2" d="M5.8580000000000005,5.8580000000000005 A20,20 0 0 1 20,0 h820 a20,20 0 0 1 20,20 v110 a20,20 0 0 1 -20,20 h-820 a20,20 0 0 1 -20,-20 v-110 A20,20 0 0 1 5.8580000000000005,5.8580000000000005"/><clipPath id="satori_cp-id-0" clip-path="url(#satori_cp-id)"><rect x="1" y="1" width="860" height="150"/></clipPath><mask id="satori_om-id-0"><rect x="1" y="1" width="860" height="150" fill="#fff" mask="url(#satori_om-id)"/></mask><svg x="1" y="1" width="860" height="150" preserveAspectRatio="none" clip-path="url(#satori_cp-id-0)" mask="url(#satori_om-id-0)"><defs><radialGradient id="sglow" cx="50%" cy="50%" r="50%"><stop offset="0%" stop-color="rgba(255,122,69,0.14)"></stop><stop offset="100%" stop-color="rgba(255,122,69,0)"></stop></radialGradient></defs><ellipse cx="430" cy="75" rx="420" ry="150" fill="url(#sglow)"></ellipse></svg><mask id="satori_om-id-0-0"><rect x="1" y="1" width="0" height="150" fill="#fff" mask="url(#satori_om-id)"/></mask><mask id="satori_om-id-0-0-0"><rect x="1" y="1" width="0" height="150" fill="#fff" mask="url(#satori_om-id)"/></mask><mask id="satori_om-id-0-0-0-0"><rect x="1" y="1" width="0" height="150" fill="#fff" mask="url(#satori_om-id)"/></mask><mask id="satori_om-id-0-0-0-1"><rect x="1" y="1" width="0" height="150" fill="#fff" mask="url(#satori_om-id)"/></mask><mask id="satori_om-id-0-1"><rect x="1" y="1" width="0" height="150" fill="#fff" mask="url(#satori_om-id)"/></mask><mask id="satori_om-id-1"><rect x="21" y="44" width="204" height="62" fill="#fff" mask="url(#satori_om-id)"/></mask><mask id="satori_om-id-1-0"><rect x="94" y="44" width="57" height="42" fill="#fff" mask="url(#satori_om-id)"/></mask><g mask="url(#satori_om-id)" clip-path="url(#satori_cp-id)"><path fill="#FF7A45" d="M110.7 74.6L96.1 74.6L96.1 69.6L108.8 49.4L116.7 49.4L116.7 69.5L120.5 69.5L120.5 74.6L116.7 74.6L116.7 80L110.7 80L110.7 74.6ZM102.4 69.5L110.8 69.5L110.8 56.3L110.6 56.3L102.4 69.3L102.4 69.5ZM139.3 78.3L134.1 78.3L134.1 70.3L126.2 70.3L126.2 65.3L134.1 65.3L134.1 57.3L139.3 57.3L139.3 65.3L147.2 65.3L147.2 70.3L139.3 70.3L139.3 78.3Z "/></g><mask id="satori_om-id-1-1"><rect x="65" y="94" width="115" height="12" fill="#fff" mask="url(#satori_om-id)"/></mask><g mask="url(#satori_om-id)" clip-path="url(#satori_cp-id)"><path fill="#98A2B3" d="M66.8 104L65.9 104L65.9 96.7L66.8 96.7L66.8 99.9L70.6 99.9L70.6 96.7L71.6 96.7L71.6 104L70.6 104L70.6 100.7L66.8 100.7L66.8 104ZM75.2 104L74.2 104L76.8 96.7L77.9 96.7L80.6 104L79.6 104L78.9 102.0L75.9 102.0L75.2 104ZM76.2 101.2L78.6 101.2L78.1 99.7Q77.9 99.3 77.7 98.7L77.7 98.7Q77.6 98.2 77.4 97.5L77.4 97.5Q77.1 98.2 77.0 98.7L77.0 98.7Q76.8 99.3 76.7 99.7L76.7 99.7L76.2 101.2ZM86.2 104.1L86.2 104.1Q85.2 104.1 84.5 103.6Q83.8 103.2 83.3 102.4Q82.9 101.5 82.9 100.4L82.9 100.4Q82.9 99.2 83.3 98.4Q83.8 97.5 84.5 97.1Q85.2 96.6 86.2 96.6L86.2 96.6Q86.7 96.6 87.2 96.8Q87.7 96.9 88.1 97.3Q88.5 97.6 88.7 98.0Q89.0 98.5 89.1 99.0L89.1 99.0L88.2 99.0Q88.1 98.6 87.9 98.4Q87.7 98.1 87.4 97.9Q87.2 97.7 86.8 97.6Q86.5 97.5 86.2 97.5L86.2 97.5Q85.5 97.5 85.0 97.8Q84.4 98.2 84.1 98.8Q83.8 99.4 83.8 100.4L83.8 100.4Q83.8 101.3 84.1 101.9Q84.5 102.6 85.0 102.9Q85.5 103.2 86.2 103.2L86.2 103.2Q86.5 103.2 86.8 103.1Q87.2 103.0 87.4 102.8Q87.7 102.7 87.9 102.4Q88.1 102.1 88.2 101.7L88.2 101.7L89.1 101.7Q89.0 102.3 88.7 102.7Q88.5 103.1 88.1 103.5Q87.7 103.8 87.2 103.9Q86.7 104.1 86.2 104.1ZM92.9 104L92.0 104L92.0 96.7L92.9 96.7L92.9 99.2L92.9 100.6Q93.0 100.4 93.1 100.3L93.1 100.3Q93.4 100.0 93.7 99.7Q93.9 99.4 94.2 99.1L94.2 99.1L96.4 96.7L97.6 96.7L94.6 99.9L97.6 104L96.5 104L94.0 100.5L92.9 101.6L92.9 104ZM100.6 104L99.6 104L102.3 96.7L103.3 96.7L106 104L105.0 104L104.3 102.0L101.3 102.0L100.6 104ZM101.6 101.2L104.0 101.2L103.5 99.7Q103.3 99.3 103.2 98.7L103.2 98.7Q103.0 98.2 102.8 97.5L102.8 97.5Q102.6 98.2 102.4 98.7L102.4 98.7Q102.2 99.3 102.1 99.7L102.1 99.7L101.6 101.2ZM110.5 97.5L108.2 97.5L108.2 96.7L113.7 96.7L113.7 97.5L111.5 97.5L111.5 104L110.5 104L110.5 97.5ZM117.5 104L116.6 104L116.6 96.7L117.5 96.7L117.5 99.9L121.3 99.9L121.3 96.7L122.3 96.7L122.3 104L121.3 104L121.3 100.7L117.5 100.7L117.5 104ZM128.5 104.1L128.5 104.1Q127.5 104.1 126.8 103.6Q126.1 103.2 125.7 102.4Q125.2 101.5 125.2 100.4L125.2 100.4Q125.2 99.2 125.7 98.4Q126.1 97.5 126.8 97.1Q127.5 96.6 128.5 96.6L128.5 96.6Q129.4 96.6 130.1 97.1Q130.9 97.5 131.3 98.4Q131.7 99.2 131.7 100.4L131.7 100.4Q131.7 101.5 131.3 102.4Q130.9 103.2 130.1 103.6Q129.4 104.1 128.5 104.1ZM128.5 103.2L128.5 103.2Q129.1 103.2 129.6 102.9Q130.2 102.6 130.5 101.9Q130.8 101.3 130.8 100.4L130.8 100.4Q130.8 99.4 130.5 98.8Q130.2 98.1 129.6 97.8Q129.1 97.5 128.5 97.5L128.5 97.5Q127.8 97.5 127.3 97.8Q126.8 98.2 126.4 98.8Q126.1 99.4 126.1 100.4L126.1 100.4Q126.1 101.3 126.4 101.9Q126.8 102.6 127.3 102.9Q127.8 103.2 128.5 103.2ZM135.6 104L134.7 104L134.7 96.7L135.8 96.7L138.7 101.4Q138.8 101.6 139.0 101.8Q139.2 102.1 139.4 102.5L139.4 102.5Q139.5 102.7 139.6 102.9L139.6 102.9Q139.6 102.7 139.5 102.4L139.5 102.4Q139.5 102.1 139.5 101.7Q139.5 101.4 139.5 101.2L139.5 101.2L139.5 96.7L140.4 96.7L140.4 104L139.3 104L136.7 99.9Q136.5 99.6 136.3 99.3Q136.2 99.0 135.9 98.5L135.9 98.5Q135.8 98.2 135.5 97.8L135.5 97.8Q135.5 98.2 135.6 98.5L135.6 98.5Q135.6 99.0 135.6 99.3Q135.6 99.7 135.6 99.8L135.6 99.8L135.6 104Z M150.5 104L149.4 104L147.4 96.7L148.3 96.7L149.5 101.2Q149.6 101.5 149.7 101.9Q149.7 102.3 149.8 102.7L149.8 102.7Q149.9 102.9 149.9 103.1L149.9 103.1Q150.0 102.9 150.0 102.7L150.0 102.7Q150.1 102.3 150.2 101.9Q150.3 101.5 150.4 101.2L150.4 101.2L151.5 96.7L152.6 96.7L153.8 101.2Q153.9 101.5 153.9 101.9Q154.0 102.3 154.1 102.7L154.1 102.7Q154.2 102.9 154.2 103.1L154.2 103.1Q154.2 102.9 154.3 102.7L154.3 102.7Q154.4 102.3 154.5 101.9Q154.5 101.5 154.6 101.2L154.6 101.2L155.8 96.7L156.7 96.7L154.7 104L153.7 104L152.4 99.4Q152.3 98.9 152.2 98.4L152.2 98.4Q152.1 98.1 152.1 97.8L152.1 97.8Q152.0 98.1 151.9 98.4L151.9 98.4Q151.8 98.9 151.7 99.4L151.7 99.4L150.5 104ZM159.4 96.7L160.3 96.7L160.3 104L159.4 104L159.4 96.7ZM164.5 104L163.6 104L163.6 96.7L164.6 96.7L167.6 101.4Q167.7 101.6 167.9 101.8Q168.1 102.1 168.2 102.5L168.2 102.5Q168.4 102.7 168.5 102.9L168.5 102.9Q168.4 102.7 168.4 102.4L168.4 102.4Q168.4 102.1 168.4 101.7Q168.4 101.4 168.4 101.2L168.4 101.2L168.4 96.7L169.3 96.7L169.3 104L168.2 104L165.6 99.9Q165.4 99.6 165.2 99.3Q165.0 99.0 164.8 98.5L164.8 98.5Q164.6 98.2 164.4 97.8L164.4 97.8Q164.4 98.2 164.4 98.5L164.4 98.5Q164.5 99.0 164.5 99.3Q164.5 99.7 164.5 99.8L164.5 99.8L164.5 104ZM174.9 104.1L174.9 104.1Q174.1 104.1 173.6 103.9Q173.0 103.6 172.6 103.2Q172.3 102.7 172.3 102.1L172.3 102.1L173.2 102.1Q173.3 102.5 173.5 102.8Q173.7 103.0 174.1 103.2Q174.5 103.3 174.9 103.3L174.9 103.3Q175.4 103.3 175.8 103.1Q176.2 103.0 176.4 102.7Q176.7 102.4 176.7 102.0L176.7 102.0Q176.7 101.7 176.5 101.4Q176.3 101.2 175.9 101.1Q175.6 100.9 175.2 100.8L175.2 100.8L174.3 100.6Q173.5 100.3 173.0 99.9Q172.5 99.4 172.5 98.7L172.5 98.7Q172.5 98.1 172.8 97.6Q173.1 97.1 173.7 96.9Q174.3 96.6 175.0 96.6L175.0 96.6Q175.7 96.6 176.2 96.9Q176.8 97.1 177.1 97.6Q177.4 98.0 177.5 98.6L177.5 98.6L176.6 98.6Q176.5 98.0 176.0 97.7Q175.6 97.4 174.9 97.4L174.9 97.4Q174.5 97.4 174.1 97.6Q173.8 97.8 173.6 98.0Q173.4 98.3 173.4 98.6L173.4 98.6Q173.4 99.0 173.6 99.2Q173.9 99.5 174.2 99.6Q174.5 99.7 174.8 99.8L174.8 99.8L175.5 100.0Q175.8 100.1 176.1 100.2Q176.5 100.4 176.8 100.6Q177.1 100.8 177.3 101.2Q177.6 101.5 177.6 102.0L177.6 102.0Q177.6 102.6 177.2 103.1Q176.9 103.6 176.3 103.8Q175.8 104.1 174.9 104.1Z "/></g><mask id="satori_om-id-2"><rect x="225" y="52" width="1" height="46" fill="#fff" mask="url(#satori_om-id)"/></mask><rect x="225" y="52" width="1" height="46" fill="#20242E" clip-path="url(#satori_cp-id)" mask="url(#satori_om-id)"/><mask id="satori_om-id-3"><rect x="226" y="44" width="204" height="62" fill="#fff" mask="url(#satori_om-id)"/></mask><mask id="satori_om-id-3-0"><rect x="282" y="44" width="91" height="42" fill="#fff" mask="url(#satori_om-id)"/></mask><g mask="url(#satori_om-id)" clip-path="url(#satori_cp-id)"><path fill="#5EEAD4" d="M290.7 49.4L297.4 49.4L297.4 80L291.1 80L291.1 55.0L290.9 55.0L283.9 59.9L283.9 54.2L290.7 49.4ZM314.1 80.4L314.1 80.4Q311.8 80.4 309.6 79.6Q307.5 78.9 305.8 77.1Q304.0 75.4 303.0 72.5Q302.0 69.6 302.0 65.4L302.0 65.4Q302.0 61.6 302.9 58.5Q303.8 55.5 305.4 53.4Q307.0 51.2 309.3 50.1Q311.6 49.0 314.4 49.0L314.4 49.0Q317.4 49.0 319.7 50.2Q322.0 51.4 323.4 53.4Q324.9 55.4 325.1 57.9L325.1 57.9L319.0 57.9Q318.6 56.3 317.4 55.4Q316.2 54.4 314.4 54.4L314.4 54.4Q312.4 54.4 311.0 55.6Q309.6 56.8 308.9 59.0Q308.2 61.2 308.2 64.2L308.2 64.2L308.4 64.2Q309.1 62.9 310.2 61.9Q311.4 60.9 312.9 60.4Q314.4 59.9 316.1 59.9L316.1 59.9Q318.8 59.9 320.9 61.2Q323.0 62.4 324.2 64.7Q325.5 66.9 325.5 69.8L325.5 69.8Q325.5 72.9 324.0 75.3Q322.6 77.7 320.1 79.0Q317.5 80.4 314.1 80.4ZM314.1 75.4L314.1 75.4Q315.6 75.4 316.8 74.7Q318.0 74.0 318.7 72.8Q319.4 71.5 319.4 70.0L319.4 70.0Q319.4 68.4 318.7 67.2Q318.0 66.0 316.8 65.2Q315.7 64.5 314.1 64.5L314.1 64.5Q313.0 64.5 312.0 64.9Q311.1 65.4 310.4 66.1Q309.6 66.9 309.2 67.9Q308.8 68.8 308.8 70.0L308.8 70.0Q308.8 71.5 309.5 72.7Q310.2 74.0 311.4 74.7Q312.6 75.4 314.1 75.4ZM341.0 80.4L341.0 80.4Q337.6 80.4 335.0 79.3Q332.3 78.2 330.8 76.2Q329.3 74.3 329.3 71.8L329.3 71.8Q329.3 69.9 330.2 68.3Q331.1 66.7 332.5 65.6Q334.0 64.5 335.9 64.2L335.9 64.2L335.9 64.0Q333.5 63.5 331.9 61.6Q330.4 59.7 330.4 57.2L330.4 57.2Q330.4 54.9 331.8 53.0Q333.2 51.2 335.6 50.1Q338.0 49.0 341.0 49.0L341.0 49.0Q344.1 49.0 346.5 50.1Q348.9 51.2 350.3 53.0Q351.7 54.9 351.7 57.2L351.7 57.2Q351.7 59.7 350.1 61.6Q348.6 63.5 346.2 64.0L346.2 64.0L346.2 64.2Q348.1 64.5 349.5 65.6Q351.0 66.7 351.9 68.3Q352.8 69.9 352.8 71.8L352.8 71.8Q352.8 74.3 351.3 76.2Q349.8 78.2 347.1 79.3Q344.5 80.4 341.0 80.4ZM341.0 75.8L341.0 75.8Q342.6 75.8 343.8 75.2Q345.0 74.6 345.6 73.6Q346.3 72.6 346.3 71.3L346.3 71.3Q346.3 70.0 345.6 68.9Q344.9 67.9 343.7 67.3Q342.6 66.7 341.0 66.7L341.0 66.7Q339.5 66.7 338.3 67.3Q337.2 67.9 336.5 68.9Q335.8 69.9 335.8 71.3L335.8 71.3Q335.8 72.6 336.5 73.6Q337.1 74.6 338.3 75.2Q339.5 75.8 341.0 75.8ZM341.0 62.1L341.0 62.1Q342.4 62.1 343.4 61.5Q344.4 61.0 345.0 60.1Q345.6 59.1 345.6 57.9L345.6 57.9Q345.6 56.7 345.0 55.8Q344.4 54.8 343.4 54.3Q342.4 53.8 341.0 53.8L341.0 53.8Q339.7 53.8 338.7 54.3Q337.7 54.8 337.1 55.8Q336.5 56.7 336.5 57.9L336.5 57.9Q336.5 59.1 337.1 60.1Q337.7 61.0 338.7 61.5Q339.7 62.1 341.0 62.1ZM363.4 49.4L370.1 49.4L370.1 80L363.8 80L363.8 55.0L363.6 55.0L356.6 59.9L356.6 54.2L363.4 49.4Z "/></g><mask id="satori_om-id-3-1"><rect x="277" y="94" width="101" height="12" fill="#fff" mask="url(#satori_om-id)"/></mask><g mask="url(#satori_om-id)" clip-path="url(#satori_cp-id)"><path fill="#98A2B3" d="M282.2 104L277.9 104L277.9 96.7L278.8 96.7L278.8 103.2L282.2 103.2L282.2 104ZM289.5 104L285.0 104L285.0 96.7L289.5 96.7L289.5 97.5L286.0 97.5L286.0 99.9L289.2 99.9L289.2 100.7L286.0 100.7L286.0 103.2L289.5 103.2L289.5 104ZM297.0 104L292.5 104L292.5 96.7L297.0 96.7L297.0 97.5L293.5 97.5L293.5 99.9L296.7 99.9L296.7 100.7L293.5 100.7L293.5 103.2L297.0 103.2L297.0 104ZM301.9 97.5L299.7 97.5L299.7 96.7L305.2 96.7L305.2 97.5L302.9 97.5L302.9 104L301.9 104L301.9 97.5ZM311.0 104.1L311.0 104.1Q310.0 104.1 309.3 103.6Q308.6 103.2 308.1 102.4Q307.7 101.5 307.7 100.4L307.7 100.4Q307.7 99.2 308.1 98.4Q308.6 97.5 309.3 97.1Q310.0 96.6 311.0 96.6L311.0 96.6Q311.5 96.6 312.0 96.8Q312.5 96.9 312.9 97.3Q313.3 97.6 313.5 98.0Q313.8 98.5 313.9 99.0L313.9 99.0L313.0 99.0Q312.9 98.6 312.7 98.4Q312.5 98.1 312.2 97.9Q312.0 97.7 311.6 97.6Q311.3 97.5 311.0 97.5L311.0 97.5Q310.3 97.5 309.8 97.8Q309.2 98.2 308.9 98.8Q308.6 99.4 308.6 100.4L308.6 100.4Q308.6 101.3 308.9 101.9Q309.3 102.6 309.8 102.9Q310.3 103.2 311.0 103.2L311.0 103.2Q311.3 103.2 311.6 103.1Q312.0 103.0 312.2 102.8Q312.5 102.7 312.7 102.4Q312.9 102.1 313.0 101.7L313.0 101.7L313.9 101.7Q313.8 102.3 313.5 102.7Q313.3 103.1 312.9 103.5Q312.5 103.8 312.0 103.9Q311.5 104.1 311.0 104.1ZM319.8 104.1L319.8 104.1Q318.8 104.1 318.1 103.6Q317.4 103.2 317.0 102.4Q316.5 101.5 316.5 100.4L316.5 100.4Q316.5 99.2 317.0 98.4Q317.4 97.5 318.1 97.1Q318.8 96.6 319.8 96.6L319.8 96.6Q320.7 96.6 321.4 97.1Q322.2 97.5 322.6 98.4Q323.0 99.2 323.0 100.4L323.0 100.4Q323.0 101.5 322.6 102.4Q322.2 103.2 321.4 103.6Q320.7 104.1 319.8 104.1ZM319.8 103.2L319.8 103.2Q320.4 103.2 320.9 102.9Q321.5 102.6 321.8 101.9Q322.1 101.3 322.1 100.4L322.1 100.4Q322.1 99.4 321.8 98.8Q321.5 98.1 320.9 97.8Q320.4 97.5 319.8 97.5L319.8 97.5Q319.1 97.5 318.6 97.8Q318.1 98.2 317.7 98.8Q317.4 99.4 317.4 100.4L317.4 100.4Q317.4 101.3 317.7 101.9Q318.1 102.6 318.6 102.9Q319.1 103.2 319.8 103.2ZM328.2 104L328.2 104L326.0 104L326.0 96.7L328.3 96.7Q329.4 96.7 330.1 97.2Q330.9 97.6 331.3 98.4Q331.7 99.2 331.7 100.3L331.7 100.3Q331.7 101.5 331.3 102.3Q330.9 103.1 330.1 103.6Q329.3 104 328.2 104ZM326.9 97.5L326.9 103.2L328.2 103.2Q329.1 103.2 329.6 102.8Q330.2 102.5 330.5 101.9Q330.8 101.2 330.8 100.3L330.8 100.3Q330.8 99.5 330.5 98.8Q330.2 98.2 329.7 97.9Q329.1 97.5 328.3 97.5L328.3 97.5L326.9 97.5ZM339.2 104L334.7 104L334.7 96.7L339.1 96.7L339.1 97.5L335.6 97.5L335.6 99.9L338.9 99.9L338.9 100.7L335.6 100.7L335.6 103.2L339.2 103.2L339.2 104Z M347.4 104L346.5 104L346.5 96.7L349.0 96.7Q349.8 96.7 350.4 97.0Q350.9 97.3 351.2 97.9Q351.5 98.4 351.5 99.0Q351.5 99.7 351.2 100.2Q350.9 100.7 350.4 101.1Q349.8 101.4 349.0 101.4L349.0 101.4L347.4 101.4L347.4 104ZM347.4 97.5L347.4 100.6L349.0 100.6Q349.5 100.6 349.9 100.4Q350.2 100.2 350.4 99.8Q350.5 99.5 350.5 99.0Q350.5 98.6 350.4 98.3Q350.2 97.9 349.9 97.7Q349.5 97.5 348.9 97.5L348.9 97.5L347.4 97.5ZM358.9 104L354.4 104L354.4 96.7L358.8 96.7L358.8 97.5L355.3 97.5L355.3 99.9L358.6 99.9L358.6 100.7L355.3 100.7L355.3 103.2L358.9 103.2L358.9 104ZM362.3 104L361.3 104L363.9 96.7L365.0 96.7L367.7 104L366.7 104L366.0 102.0L363.0 102.0L362.3 104ZM363.2 101.2L365.7 101.2L365.1 99.7Q365.0 99.3 364.8 98.7L364.8 98.7Q364.7 98.2 364.4 97.5L364.4 97.5Q364.2 98.2 364.1 98.7L364.1 98.7Q363.9 99.3 363.8 99.7L363.8 99.7L363.2 101.2ZM371.2 104L370.3 104L370.3 96.7L371.2 96.7L371.2 99.2L371.2 100.6Q371.3 100.4 371.4 100.3L371.4 100.3Q371.7 100.0 371.9 99.7Q372.2 99.4 372.5 99.1L372.5 99.1L374.6 96.7L375.9 96.7L372.9 99.9L375.9 104L374.8 104L372.3 100.5L371.2 101.6L371.2 104Z "/></g><mask id="satori_om-id-4"><rect x="430" y="52" width="1" height="46" fill="#fff" mask="url(#satori_om-id)"/></mask><rect x="430" y="52" width="1" height="46" fill="#20242E" clip-path="url(#satori_cp-id)" mask="url(#satori_om-id)"/><mask id="satori_om-id-5"><rect x="431" y="44" width="203" height="62" fill="#fff" mask="url(#satori_om-id)"/></mask><mask id="satori_om-id-5-0"><rect x="485" y="44" width="96" height="42" fill="#fff" mask="url(#satori_om-id)"/></mask><g mask="url(#satori_om-id)" clip-path="url(#satori_cp-id)"><path fill="#5EEAD4" d="M493.7 49.4L500.4 49.4L500.4 80L494.1 80L494.1 55.0L493.9 55.0L486.9 59.9L486.9 54.2L493.7 49.4ZM527.3 80L505.7 80L505.7 75.5L516.5 65.3Q517.9 64.0 518.8 62.9Q519.8 61.8 520.3 60.7Q520.8 59.7 520.8 58.4L520.8 58.4Q520.8 57.1 520.2 56.1Q519.6 55.1 518.5 54.6Q517.4 54.0 516.0 54.0L516.0 54.0Q514.6 54.0 513.6 54.6Q512.5 55.2 511.9 56.3Q511.4 57.3 511.4 58.8L511.4 58.8L505.4 58.8Q505.4 55.8 506.7 53.6Q508.1 51.4 510.5 50.2Q512.9 49.0 516.1 49.0L516.1 49.0Q519.3 49.0 521.8 50.2Q524.2 51.4 525.5 53.4Q526.9 55.4 526.9 58.1L526.9 58.1Q526.9 59.8 526.2 61.4Q525.5 63.1 523.8 65.1Q522.1 67.2 519.0 70.1L519.0 70.1L514.3 74.6L514.3 74.9L527.3 74.9L527.3 80ZM539.7 80L533.2 80L545.9 54.8L545.9 54.6L531.1 54.6L531.1 49.4L552.5 49.4L552.5 54.7L539.7 80ZM566.5 80.4L566.5 80.4Q563.3 80.4 560.9 79.3Q558.4 78.1 557.0 76.1Q555.6 74.0 555.5 71.4L555.5 71.4L561.6 71.4Q561.7 72.6 562.3 73.5Q563.0 74.4 564.1 74.9Q565.2 75.4 566.5 75.4L566.5 75.4Q568.0 75.4 569.2 74.8Q570.4 74.1 571.0 72.8Q571.7 71.6 571.7 70.0L571.7 70.0Q571.7 68.4 571.0 67.1Q570.3 65.8 569.1 65.2Q567.9 64.5 566.4 64.5L566.4 64.5Q565.0 64.5 563.7 65.0Q562.5 65.5 561.8 66.5L561.8 66.5L556.1 65.5L557.6 49.4L576.1 49.4L576.1 54.6L562.8 54.6L562.0 62.3L562.2 62.3Q563.0 61.2 564.6 60.5Q566.2 59.8 568.2 59.8L568.2 59.8Q570.3 59.8 572.0 60.5Q573.8 61.3 575.0 62.6Q576.3 64.0 577.1 65.8Q577.8 67.7 577.8 69.8L577.8 69.8Q577.8 72.9 576.4 75.3Q574.9 77.7 572.4 79.0Q569.8 80.4 566.5 80.4Z "/></g><mask id="satori_om-id-5-1"><rect x="473" y="94" width="120" height="12" fill="#fff" mask="url(#satori_om-id)"/></mask><g mask="url(#satori_om-id)" clip-path="url(#satori_cp-id)"><path fill="#98A2B3" d="M476.8 104.1L476.8 104.1Q475.9 104.1 475.2 103.6Q474.4 103.2 474.0 102.4Q473.6 101.5 473.6 100.4L473.6 100.4Q473.6 99.2 474.0 98.4Q474.4 97.5 475.2 97.1Q475.9 96.6 476.8 96.6L476.8 96.6Q477.4 96.6 477.9 96.8Q478.4 96.9 478.7 97.3Q479.1 97.6 479.4 98.0Q479.7 98.5 479.8 99.0L479.8 99.0L478.8 99.0Q478.8 98.6 478.6 98.4Q478.4 98.1 478.1 97.9Q477.8 97.7 477.5 97.6Q477.2 97.5 476.8 97.5L476.8 97.5Q476.2 97.5 475.6 97.8Q475.1 98.2 474.8 98.8Q474.5 99.4 474.5 100.4L474.5 100.4Q474.5 101.3 474.8 101.9Q475.1 102.6 475.6 102.9Q476.2 103.2 476.8 103.2L476.8 103.2Q477.2 103.2 477.5 103.1Q477.8 103.0 478.1 102.8Q478.4 102.7 478.6 102.4Q478.8 102.1 478.8 101.7L478.8 101.7L479.8 101.7Q479.7 102.3 479.4 102.7Q479.1 103.1 478.8 103.5Q478.4 103.8 477.9 103.9Q477.4 104.1 476.8 104.1ZM485.6 104.1L485.6 104.1Q484.7 104.1 484.0 103.6Q483.2 103.2 482.8 102.4Q482.4 101.5 482.4 100.4L482.4 100.4Q482.4 99.2 482.8 98.4Q483.2 97.5 484.0 97.1Q484.7 96.6 485.6 96.6L485.6 96.6Q486.6 96.6 487.3 97.1Q488.0 97.5 488.4 98.4Q488.9 99.2 488.9 100.4L488.9 100.4Q488.9 101.5 488.4 102.4Q488.0 103.2 487.3 103.6Q486.6 104.1 485.6 104.1ZM485.6 103.2L485.6 103.2Q486.3 103.2 486.8 102.9Q487.3 102.6 487.6 101.9Q488.0 101.3 488.0 100.4L488.0 100.4Q488.0 99.4 487.6 98.8Q487.3 98.1 486.8 97.8Q486.3 97.5 485.6 97.5L485.6 97.5Q485.0 97.5 484.5 97.8Q483.9 98.2 483.6 98.8Q483.3 99.4 483.3 100.4L483.3 100.4Q483.3 101.3 483.6 101.9Q483.9 102.6 484.5 102.9Q485.0 103.2 485.6 103.2ZM494.1 104L494.1 104L491.8 104L491.8 96.7L494.2 96.7Q495.3 96.7 496.0 97.2Q496.8 97.6 497.2 98.4Q497.6 99.2 497.6 100.3L497.6 100.3Q497.6 101.5 497.2 102.3Q496.8 103.1 496.0 103.6Q495.2 104 494.1 104ZM492.8 97.5L492.8 103.2L494.0 103.2Q494.9 103.2 495.5 102.8Q496.1 102.5 496.4 101.9Q496.7 101.2 496.7 100.3L496.7 100.3Q496.7 99.5 496.4 98.8Q496.1 98.2 495.5 97.9Q495.0 97.5 494.1 97.5L494.1 97.5L492.8 97.5ZM505.0 104L500.5 104L500.5 96.7L505.0 96.7L505.0 97.5L501.5 97.5L501.5 99.9L504.7 99.9L504.7 100.7L501.5 100.7L501.5 103.2L505.0 103.2L505.0 104ZM509.0 104L508.1 104L508.1 96.7L512.5 96.7L512.5 97.5L509.0 97.5L509.0 100.0L512.1 100.0L512.1 100.9L509.0 100.9L509.0 104ZM518.4 104.1L518.4 104.1Q517.5 104.1 516.7 103.6Q516.0 103.2 515.6 102.4Q515.2 101.5 515.2 100.4L515.2 100.4Q515.2 99.2 515.6 98.4Q516.0 97.5 516.7 97.1Q517.5 96.6 518.4 96.6L518.4 96.6Q519.3 96.6 520.1 97.1Q520.8 97.5 521.2 98.4Q521.6 99.2 521.6 100.4L521.6 100.4Q521.6 101.5 521.2 102.4Q520.8 103.2 520.1 103.6Q519.3 104.1 518.4 104.1ZM518.4 103.2L518.4 103.2Q519.1 103.2 519.6 102.9Q520.1 102.6 520.4 101.9Q520.7 101.3 520.7 100.4L520.7 100.4Q520.7 99.4 520.4 98.8Q520.1 98.1 519.6 97.8Q519.1 97.5 518.4 97.5L518.4 97.5Q517.8 97.5 517.2 97.8Q516.7 98.2 516.4 98.8Q516.1 99.4 516.1 100.4L516.1 100.4Q516.1 101.3 516.4 101.9Q516.7 102.6 517.2 102.9Q517.8 103.2 518.4 103.2ZM525.5 104L524.6 104L524.6 96.7L527.1 96.7Q527.9 96.7 528.5 97.0Q529.0 97.3 529.3 97.8Q529.6 98.3 529.6 99.0Q529.6 99.6 529.3 100.1Q529.0 100.6 528.5 100.9L528.5 100.9Q528.4 101.0 528.2 101.0L528.2 101.0L529.9 104L528.8 104L527.3 101.2Q527.2 101.2 527.1 101.2L527.1 101.2L525.5 101.2L525.5 104ZM525.5 97.5L525.5 100.4L527.1 100.4Q527.6 100.4 528.0 100.2Q528.3 100.0 528.5 99.7Q528.7 99.4 528.7 99.0L528.7 99.0Q528.7 98.5 528.5 98.2Q528.3 97.9 528.0 97.7Q527.6 97.5 527.0 97.5L527.0 97.5L525.5 97.5ZM535.5 104.1L535.5 104.1Q534.6 104.1 533.8 103.6Q533.1 103.2 532.7 102.4Q532.3 101.5 532.3 100.4L532.3 100.4Q532.3 99.2 532.7 98.4Q533.1 97.5 533.8 97.1Q534.6 96.6 535.5 96.6L535.5 96.6Q536.0 96.6 536.5 96.8Q537.0 96.9 537.4 97.3Q537.8 97.6 538.1 98.0Q538.3 98.5 538.4 99.0L538.4 99.0L537.5 99.0Q537.4 98.6 537.2 98.4Q537.0 98.1 536.8 97.9Q536.5 97.7 536.2 97.6Q535.8 97.5 535.5 97.5L535.5 97.5Q534.8 97.5 534.3 97.8Q533.8 98.2 533.5 98.8Q533.2 99.4 533.2 100.4L533.2 100.4Q533.2 101.3 533.5 101.9Q533.8 102.6 534.3 102.9Q534.8 103.2 535.5 103.2L535.5 103.2Q535.8 103.2 536.2 103.1Q536.5 103.0 536.8 102.8Q537.0 102.7 537.2 102.4Q537.4 102.1 537.5 101.7L537.5 101.7L538.4 101.7Q538.3 102.3 538.1 102.7Q537.8 103.1 537.4 103.5Q537.0 103.8 536.5 103.9Q536.0 104.1 535.5 104.1ZM545.8 104L541.3 104L541.3 96.7L545.8 96.7L545.8 97.5L542.3 97.5L542.3 99.9L545.5 99.9L545.5 100.7L542.3 100.7L542.3 103.2L545.8 103.2L545.8 104ZM551.2 104.1L551.2 104.1Q550.4 104.1 549.8 103.9Q549.2 103.6 548.9 103.2Q548.6 102.7 548.5 102.1L548.5 102.1L549.5 102.1Q549.5 102.5 549.8 102.8Q550.0 103.0 550.4 103.2Q550.8 103.3 551.2 103.3L551.2 103.3Q551.7 103.3 552.1 103.1Q552.5 103.0 552.7 102.7Q552.9 102.4 552.9 102.0L552.9 102.0Q552.9 101.7 552.7 101.4Q552.5 101.2 552.2 101.1Q551.9 100.9 551.5 100.8L551.5 100.8L550.6 100.6Q549.7 100.3 549.2 99.9Q548.8 99.4 548.8 98.7L548.8 98.7Q548.8 98.1 549.1 97.6Q549.4 97.1 550.0 96.9Q550.5 96.6 551.3 96.6L551.3 96.6Q552.0 96.6 552.5 96.9Q553.1 97.1 553.4 97.6Q553.7 98.0 553.7 98.6L553.7 98.6L552.8 98.6Q552.8 98.0 552.3 97.7Q551.9 97.4 551.2 97.4L551.2 97.4Q550.8 97.4 550.4 97.6Q550.0 97.8 549.8 98.0Q549.7 98.3 549.7 98.6L549.7 98.6Q549.7 99.0 549.9 99.2Q550.1 99.5 550.5 99.6Q550.8 99.7 551.0 99.8L551.0 99.8L551.8 100.0Q552.1 100.1 552.4 100.2Q552.8 100.4 553.1 100.6Q553.4 100.8 553.6 101.2Q553.8 101.5 553.8 102.0L553.8 102.0Q553.8 102.6 553.5 103.1Q553.2 103.6 552.6 103.8Q552.0 104.1 551.2 104.1Z M562.0 104L561.1 104L561.1 96.7L563.6 96.7Q564.4 96.7 565.0 97.0Q565.5 97.3 565.8 97.9Q566.1 98.4 566.1 99.0Q566.1 99.7 565.8 100.2Q565.5 100.7 565.0 101.1Q564.4 101.4 563.6 101.4L563.6 101.4L562.0 101.4L562.0 104ZM562.0 97.5L562.0 100.6L563.5 100.6Q564.1 100.6 564.5 100.4Q564.8 100.2 565.0 99.8Q565.1 99.5 565.1 99.0Q565.1 98.6 565.0 98.3Q564.8 97.9 564.5 97.7Q564.1 97.5 563.5 97.5L563.5 97.5L562.0 97.5ZM573.5 104L569.0 104L569.0 96.7L573.4 96.7L573.4 97.5L569.9 97.5L569.9 99.9L573.2 99.9L573.2 100.7L569.9 100.7L569.9 103.2L573.5 103.2L573.5 104ZM576.8 104L575.9 104L578.5 96.7L579.6 96.7L582.3 104L581.3 104L580.5 102.0L577.5 102.0L576.8 104ZM577.8 101.2L580.3 101.2L579.7 99.7Q579.6 99.3 579.4 98.7L579.4 98.7Q579.2 98.2 579.0 97.5L579.0 97.5Q578.8 98.2 578.7 98.7L578.7 98.7Q578.5 99.3 578.3 99.7L578.3 99.7L577.8 101.2ZM585.8 104L584.9 104L584.9 96.7L585.8 96.7L585.8 99.2L585.8 100.6Q585.9 100.4 586.0 100.3L586.0 100.3Q586.3 100.0 586.5 99.7Q586.8 99.4 587.1 99.1L587.1 99.1L589.2 96.7L590.4 96.7L587.5 99.9L590.4 104L589.3 104L586.9 100.5L585.8 101.6L585.8 104Z "/></g><mask id="satori_om-id-6"><rect x="634" y="52" width="1" height="46" fill="#fff" mask="url(#satori_om-id)"/></mask><rect x="634" y="52" width="1" height="46" fill="#20242E" clip-path="url(#satori_cp-id)" mask="url(#satori_om-id)"/><mask id="satori_om-id-7"><rect x="635" y="44" width="204" height="62" fill="#fff" mask="url(#satori_om-id)"/></mask><mask id="satori_om-id-7-0"><rect x="701" y="44" width="71" height="42" fill="#fff" mask="url(#satori_om-id)"/></mask><g mask="url(#satori_om-id)" clip-path="url(#satori_cp-id)"><path fill="#FF7A45" d="M709.7 49.4L716.4 49.4L716.4 80L710.1 80L710.1 55.0L709.9 55.0L702.9 59.9L702.9 54.2L709.7 49.4ZM741.3 80L721.9 80L721.9 49.4L728.1 49.4L728.1 74.8L741.3 74.8L741.3 80ZM759.7 78.3L754.5 78.3L754.5 70.3L746.6 70.3L746.6 65.3L754.5 65.3L754.5 57.3L759.7 57.3L759.7 65.3L767.6 65.3L767.6 70.3L759.7 70.3L759.7 78.3Z "/></g><mask id="satori_om-id-7-1"><rect x="677" y="94" width="120" height="12" fill="#fff" mask="url(#satori_om-id)"/></mask><g mask="url(#satori_om-id)" clip-path="url(#satori_cp-id)"><path fill="#98A2B3" d="M678.8 104L677.9 104L677.9 96.7L680.4 96.7Q681.2 96.7 681.8 97.0Q682.3 97.3 682.6 97.9Q682.8 98.4 682.8 99.0Q682.8 99.7 682.6 100.2Q682.3 100.7 681.8 101.1Q681.2 101.4 680.4 101.4L680.4 101.4L678.8 101.4L678.8 104ZM678.8 97.5L678.8 100.6L680.3 100.6Q680.9 100.6 681.3 100.4Q681.6 100.2 681.8 99.8Q681.9 99.5 681.9 99.0Q681.9 98.6 681.8 98.3Q681.6 97.9 681.3 97.7Q680.9 97.5 680.3 97.5L680.3 97.5L678.8 97.5ZM686.7 104L685.8 104L685.8 96.7L688.3 96.7Q689.1 96.7 689.7 97.0Q690.2 97.3 690.5 97.8Q690.7 98.3 690.7 99.0Q690.7 99.6 690.5 100.1Q690.2 100.6 689.7 100.9L689.7 100.9Q689.5 101.0 689.4 101.0L689.4 101.0L691.0 104L689.9 104L688.4 101.2Q688.3 101.2 688.3 101.2L688.3 101.2L686.7 101.2L686.7 104ZM686.7 97.5L686.7 100.4L688.2 100.4Q688.8 100.4 689.1 100.2Q689.5 100.0 689.7 99.7Q689.8 99.4 689.8 99.0L689.8 99.0Q689.8 98.5 689.7 98.2Q689.5 97.9 689.1 97.7Q688.8 97.5 688.2 97.5L688.2 97.5L686.7 97.5ZM693.7 96.7L694.6 96.7L694.6 104L693.7 104L693.7 96.7ZM702.7 104L697.6 104L697.6 103.3L700.9 98.5Q701.1 98.2 701.4 97.8L701.4 97.8Q701.5 97.7 701.6 97.5L701.6 97.5Q701.3 97.5 701.1 97.5L701.1 97.5Q700.6 97.5 700.2 97.5L700.2 97.5L697.6 97.5L697.6 96.7L702.7 96.7L702.7 97.4L699.5 102.1Q699.2 102.5 699.0 102.8L699.0 102.8Q698.8 103.0 698.7 103.2L698.7 103.2Q699.0 103.2 699.2 103.2L699.2 103.2Q699.7 103.2 700.1 103.2L700.1 103.2L702.7 103.2L702.7 104ZM710.2 104L705.7 104L705.7 96.7L710.1 96.7L710.1 97.5L706.6 97.5L706.6 99.9L709.9 99.9L709.9 100.7L706.6 100.7L706.6 103.2L710.2 103.2L710.2 104Z M718.4 104L717.5 104L717.5 96.7L718.8 96.7L720.6 101.3Q720.7 101.5 720.8 101.7Q720.8 102.0 720.9 102.2Q721.0 102.5 721.1 102.8L721.1 102.8Q721.1 102.9 721.1 103.0L721.1 103.0Q721.2 102.9 721.2 102.8L721.2 102.8Q721.3 102.5 721.4 102.3Q721.5 102.0 721.5 101.7Q721.6 101.5 721.7 101.3L721.7 101.3L723.5 96.7L724.8 96.7L724.8 104L723.9 104L723.9 99.8Q723.9 99.6 723.9 99.3Q723.9 99.0 723.9 98.7Q723.9 98.4 723.9 98.1L723.9 98.1Q723.9 97.9 723.9 97.7L723.9 97.7Q723.8 97.9 723.8 98.1L723.8 98.1Q723.6 98.5 723.5 98.8Q723.4 99.1 723.3 99.4Q723.2 99.7 723.2 99.8L723.2 99.8L721.5 104L720.7 104L719.1 99.8Q719.0 99.7 718.9 99.4Q718.8 99.2 718.7 98.8Q718.6 98.5 718.5 98.2L718.5 98.2Q718.4 97.9 718.3 97.7L718.3 97.7Q718.4 97.9 718.4 98.0L718.4 98.0Q718.4 98.4 718.4 98.7Q718.4 99.0 718.4 99.3Q718.4 99.6 718.4 99.8L718.4 99.8L718.4 104ZM731.0 104.1L731.0 104.1Q730.0 104.1 729.3 103.6Q728.6 103.2 728.2 102.4Q727.7 101.5 727.7 100.4L727.7 100.4Q727.7 99.2 728.2 98.4Q728.6 97.5 729.3 97.1Q730.0 96.6 731.0 96.6L731.0 96.6Q731.9 96.6 732.6 97.1Q733.4 97.5 733.8 98.4Q734.2 99.2 734.2 100.4L734.2 100.4Q734.2 101.5 733.8 102.4Q733.4 103.2 732.6 103.6Q731.9 104.1 731.0 104.1ZM731.0 103.2L731.0 103.2Q731.6 103.2 732.2 102.9Q732.7 102.6 733.0 101.9Q733.3 101.3 733.3 100.4L733.3 100.4Q733.3 99.4 733.0 98.8Q732.7 98.1 732.2 97.8Q731.6 97.5 731.0 97.5L731.0 97.5Q730.3 97.5 729.8 97.8Q729.3 98.2 729.0 98.8Q728.7 99.4 728.7 100.4L728.7 100.4Q728.7 101.3 729.0 101.9Q729.3 102.6 729.8 102.9Q730.3 103.2 731.0 103.2ZM738.1 104L737.2 104L737.2 96.7L738.3 96.7L741.2 101.4Q741.3 101.6 741.5 101.8Q741.7 102.1 741.9 102.5L741.9 102.5Q742.0 102.7 742.1 102.9L742.1 102.9Q742.1 102.7 742.1 102.4L742.1 102.4Q742.0 102.1 742.0 101.7Q742.0 101.4 742.0 101.2L742.0 101.2L742.0 96.7L743.0 96.7L743.0 104L741.9 104L739.2 99.9Q739.0 99.6 738.9 99.3Q738.7 99.0 738.4 98.5L738.4 98.5Q738.3 98.2 738.0 97.8L738.0 97.8Q738.1 98.2 738.1 98.5L738.1 98.5Q738.1 99.0 738.1 99.3Q738.1 99.7 738.1 99.8L738.1 99.8L738.1 104ZM750.7 104L746.2 104L746.2 96.7L750.6 96.7L750.6 97.5L747.1 97.5L747.1 99.9L750.4 99.9L750.4 100.7L747.1 100.7L747.1 103.2L750.7 103.2L750.7 104ZM756.7 104L755.8 104L755.8 101.0L753.1 96.7L754.2 96.7L755.6 99.1Q755.9 99.5 756.0 99.8L756.0 99.8Q756.1 100.0 756.2 100.3L756.2 100.3Q756.4 100.0 756.5 99.8L756.5 99.8Q756.6 99.4 756.9 99.1L756.9 99.1L758.3 96.7L759.4 96.7L756.7 101.0L756.7 104Z M766.5 101.0L766.5 101.0Q766.5 100.2 766.7 99.4Q766.8 98.5 767.1 97.7Q767.4 96.9 767.8 96.3L767.8 96.3L768.6 96.3Q768.2 97.0 768.0 97.9Q767.7 98.7 767.5 99.5Q767.4 100.3 767.4 101.0L767.4 101.0Q767.4 101.7 767.5 102.3Q767.7 103.0 767.9 103.8Q768.2 104.5 768.6 105.4L768.6 105.4L767.8 105.4Q767.1 104.3 766.8 103.2Q766.5 102.1 766.5 101.0ZM771.5 96.7L772.4 96.7L772.4 104L771.5 104L771.5 96.7ZM776.6 104L775.7 104L775.7 96.7L776.8 96.7L779.7 101.4Q779.8 101.6 780.0 101.8Q780.2 102.1 780.4 102.5L780.4 102.5Q780.5 102.7 780.6 102.9L780.6 102.9Q780.5 102.7 780.5 102.4L780.5 102.4Q780.5 102.1 780.5 101.7Q780.5 101.4 780.5 101.2L780.5 101.2L780.5 96.7L781.4 96.7L781.4 104L780.3 104L777.7 99.9Q777.5 99.6 777.3 99.3Q777.1 99.0 776.9 98.5L776.9 98.5Q776.7 98.2 776.5 97.8L776.5 97.8Q776.5 98.2 776.5 98.5L776.5 98.5Q776.6 99.0 776.6 99.3Q776.6 99.7 776.6 99.8L776.6 99.8L776.6 104ZM785.6 104L784.7 104L784.7 96.7L787.2 96.7Q788.0 96.7 788.6 97.0Q789.1 97.3 789.4 97.8Q789.7 98.3 789.7 99.0Q789.7 99.6 789.4 100.1Q789.1 100.6 788.6 100.9L788.6 100.9Q788.5 101.0 788.3 101.0L788.3 101.0L789.9 104L788.9 104L787.4 101.2Q787.3 101.2 787.2 101.2L787.2 101.2L785.6 101.2L785.6 104ZM785.6 97.5L785.6 100.4L787.1 100.4Q787.7 100.4 788.1 100.2Q788.4 100.0 788.6 99.7Q788.7 99.4 788.7 99.0L788.7 99.0Q788.7 98.5 788.6 98.2Q788.4 97.9 788.1 97.7Q787.7 97.5 787.1 97.5L787.1 97.5L785.6 97.5ZM793.1 105.4L792.2 105.4Q792.7 104.5 792.9 103.7Q793.2 103.0 793.3 102.3Q793.4 101.7 793.4 101.0L793.4 101.0Q793.4 100.3 793.3 99.5Q793.1 98.7 792.9 97.9Q792.6 97.0 792.2 96.3L792.2 96.3L793.1 96.3Q793.4 96.9 793.7 97.7Q794.0 98.5 794.2 99.4Q794.3 100.2 794.3 101.0L794.3 101.0Q794.3 102.1 794.0 103.2Q793.7 104.3 793.1 105.4L793.1 105.4Z "/></g></svg>