<!-- Generated by readme-aura https://github.com/collectioneur/readme-aura -->
<svg width="860" height="210" viewBox="0 0 860 210" xmlns="http://www.w3.org/2000/svg"><defs><clipPath id="satori_bc-id"><path x="0" y="0" width="860" height="210" d="M20,0 h820 a20,20 0 0 1 20,20 v170 a20,20 0 0 1 -20,20 h-820 a20,20 0 0 1 -20,-20 v-170 a20,20 0 0 1 20,-20"/></clipPath></defs><clipPath id="satori_cp-id"><path x="0" y="0" width="860" height="210" d="M20,0 h820 a20,20 0 0 1 20,20 v170 a20,20 0 0 1 -20,20 h-820 a20,20 0 0 1 -20,-20 v-170 a20,20 0 0 1 20,-20"/></clipPath><mask id="satori_om-id"><rect x="1" y="1" width="858" height="208" fill="#fff"/><path width="860" height="210" fill="none" stroke="#000" stroke-width="2" d="M5.8580000000000005,5.8580000000000005 A20,20 0 0 1 20,0 h820 a20,20 0 0 1 20,20 v170 a20,20 0 0 1 -20,20 h-820 a20,20 0 0 1 -20,-20 v-170 A20,20 0 0 1 5.8580000000000005,5.8580000000000005"/></mask><path x="0" y="0" width="860" height="210" fill="#0E0F14" d="M20,0 h820 a20,20 0 0 1 20,20 v170 a20,20 0 0 1 -20,20 h-820 a20,20 0 0 1 -20,-20 v-170 a20,20 0 0 1 20,-20"/><path width="860" height="210" clip-path="url(#satori_bc-id)" fill="none" stroke="#20242E" stroke-width="2" d="M5.8580000000000005,5.8580000000000005 A20,20 0 0 1 20,0 h820 a20,20 0 0 1 20,20 v170 a20,20 0 0 1 -20,20 h-820 a20,20 0 0 1 -20,-20 v-170 A20,20 0 0 1 5.8580000000000005,5.8580000000000005"/><clipPath id="satori_cp-id-0" clip-path="url(#satori_cp-id)"><rect x="1" y="1" width="860" height="210"/></clipPath><mask id="satori_om-id-0"><rect x="1" y="1" width="860" height="210" fill="#fff" mask="url(#satori_om-id)"/></mask><svg x="1" y="1" width="860" height="210" preserveAspectRatio="none" clip-path="url(#satori_cp-id-0)" mask="url(#satori_om-id-0)"><defs><radialGradient id="cg" cx="50%" cy="50%" r="50%"><stop offset="0%" stop-color="rgba(255,122,69,0.22)"></stop><stop offset="100%" stop-color="rgba(255,122,69,0)"></stop></radialGradient></defs><ellipse id="contactglow" cx="430" cy="240" rx="420" ry="200" fill="url(#cg)"></ellipse><style>

    @keyframes cglow { 0%,100%{opacity:0.6} 50%{opacity:0.95} }
    #contactglow { animation: cglow 6s ease-in-out infinite; }
  
</style>
</svg><mask id="satori_om-id-0-0"><rect x="1" y="1" width="0" height="210" fill="#fff" mask="url(#satori_om-id)"/></mask><mask id="satori_om-id-0-0-0"><rect x="1" y="1" width="0" height="210" fill="#fff" mask="url(#satori_om-id)"/></mask><mask id="satori_om-id-0-0-0-0"><rect x="1" y="1" width="0" height="210" fill="#fff" mask="url(#satori_om-id)"/></mask><mask id="satori_om-id-0-0-0-1"><rect x="1" y="1" width="0" height="210" fill="#fff" mask="url(#satori_om-id)"/></mask><mask id="satori_om-id-0-1"><rect x="1" y="1" width="0" height="210" fill="#fff" mask="url(#satori_om-id)"/></mask><mask id="satori_om-id-1"><rect x="241" y="42" width="378" height="127" fill="#fff" mask="url(#satori_om-id)"/></mask><mask id="satori_om-id-1-0"><rect x="384" y="42" width="92" height="15" fill="#fff" mask="url(#satori_om-id)"/></mask><g mask="url(#satori_om-id)" clip-path="url(#satori_cp-id)"><path fill="#FF7A45" d="M387.1 44.9L388.1 44.9L385.2 55.3L384.3 55.3L387.1 44.9ZM393.4 44.9L394.4 44.9L391.6 55.3L390.6 55.3L393.4 44.9Z M406.6 54.1L406.6 54.1Q405.5 54.1 404.6 53.6Q403.7 53.0 403.2 52.0Q402.7 51.0 402.7 49.6L402.7 49.6Q402.7 48.3 403.2 47.2Q403.7 46.2 404.6 45.7Q405.5 45.2 406.6 45.2L406.6 45.2Q407.3 45.2 407.9 45.3Q408.5 45.5 408.9 45.9Q409.4 46.3 409.7 46.8Q410.0 47.3 410.1 48.0L410.1 48.0L409.0 48.0Q408.9 47.6 408.7 47.2Q408.5 46.9 408.1 46.7Q407.8 46.4 407.4 46.3Q407.0 46.2 406.6 46.2L406.6 46.2Q405.8 46.2 405.2 46.6Q404.6 47.0 404.2 47.8Q403.8 48.5 403.8 49.6L403.8 49.6Q403.8 50.8 404.2 51.5Q404.6 52.3 405.2 52.7Q405.8 53.1 406.6 53.1L406.6 53.1Q407.0 53.1 407.4 53.0Q407.8 52.8 408.1 52.6Q408.5 52.4 408.7 52.0Q408.9 51.7 409.0 51.3L409.0 51.3L410.1 51.3Q410.0 51.9 409.7 52.4Q409.4 53.0 408.9 53.3Q408.5 53.7 407.9 53.9Q407.3 54.1 406.6 54.1ZM417.4 54.1L417.4 54.1Q416.3 54.1 415.4 53.6Q414.5 53.0 414.0 52.0Q413.5 51.0 413.5 49.6L413.5 49.6Q413.5 48.3 414.0 47.2Q414.5 46.2 415.4 45.7Q416.3 45.2 417.4 45.2L417.4 45.2Q418.5 45.2 419.4 45.7Q420.2 46.2 420.7 47.2Q421.3 48.3 421.3 49.6L421.3 49.6Q421.3 51.0 420.7 52.0Q420.2 53.0 419.4 53.6Q418.5 54.1 417.4 54.1ZM417.4 53.1L417.4 53.1Q418.2 53.1 418.8 52.7Q419.4 52.3 419.8 51.5Q420.2 50.8 420.2 49.6L420.2 49.6Q420.2 48.5 419.8 47.7Q419.4 47.0 418.8 46.6Q418.2 46.2 417.4 46.2L417.4 46.2Q416.6 46.2 416.0 46.6Q415.3 47.0 415.0 47.8Q414.6 48.5 414.6 49.6L414.6 49.6Q414.6 50.8 415.0 51.5Q415.3 52.3 416.0 52.7Q416.6 53.1 417.4 53.1ZM426.1 54L425.0 54L425.0 45.3L426.3 45.3L429.9 50.9Q430.0 51.1 430.2 51.4Q430.4 51.8 430.7 52.2L430.7 52.2Q430.8 52.4 430.9 52.7L430.9 52.7Q430.9 52.4 430.9 52.1L430.9 52.1Q430.8 51.7 430.8 51.3Q430.8 50.9 430.8 50.6L430.8 50.6L430.8 45.3L432.0 45.3L432.0 54L430.6 54L427.5 49.0Q427.2 48.7 427.0 48.3Q426.8 48.0 426.5 47.4L426.5 47.4Q426.3 47.1 426.1 46.6L426.1 46.6Q426.1 47.0 426.1 47.4L426.1 47.4Q426.1 48.0 426.1 48.4Q426.1 48.8 426.1 49.0L426.1 49.0L426.1 54ZM438.3 46.3L435.6 46.3L435.6 45.3L442.2 45.3L442.2 46.3L439.4 46.3L439.4 54L438.3 54L438.3 46.3ZM446.2 54L445.1 54L448.2 45.3L449.5 45.3L452.7 54L451.6 54L450.7 51.6L447.1 51.6L446.2 54ZM447.4 50.6L450.3 50.6L449.7 48.8Q449.5 48.3 449.3 47.6L449.3 47.6Q449.1 47.0 448.9 46.2L448.9 46.2Q448.6 47.0 448.4 47.6L448.4 47.6Q448.2 48.4 448.0 48.8L448.0 48.8L447.4 50.6ZM459.6 54.1L459.6 54.1Q458.5 54.1 457.6 53.6Q456.7 53.0 456.2 52.0Q455.7 51.0 455.7 49.6L455.7 49.6Q455.7 48.3 456.2 47.2Q456.7 46.2 457.6 45.7Q458.5 45.2 459.6 45.2L459.6 45.2Q460.3 45.2 460.9 45.3Q461.5 45.5 461.9 45.9Q462.4 46.3 462.7 46.8Q463.0 47.3 463.1 48.0L463.1 48.0L462.0 48.0Q461.9 47.6 461.7 47.2Q461.5 46.9 461.2 46.7Q460.8 46.4 460.4 46.3Q460.0 46.2 459.6 46.2L459.6 46.2Q458.8 46.2 458.2 46.6Q457.6 47.0 457.2 47.8Q456.8 48.5 456.8 49.6L456.8 49.6Q456.8 50.8 457.2 51.5Q457.6 52.3 458.2 52.7Q458.8 53.1 459.6 53.1L459.6 53.1Q460.0 53.1 460.4 53.0Q460.8 52.8 461.2 52.6Q461.5 52.4 461.7 52.0Q461.9 51.7 462.0 51.3L462.0 51.3L463.1 51.3Q463.0 51.9 462.7 52.4Q462.4 53.0 461.9 53.3Q461.5 53.7 460.9 53.9Q460.3 54.1 459.6 54.1ZM469.1 46.3L466.4 46.3L466.4 45.3L473.0 45.3L473.0 46.3L470.2 46.3L470.2 54L469.1 54L469.1 46.3Z "/></g><mask id="satori_om-id-1-1"><rect x="256" y="69" width="348" height="41" fill="#fff" mask="url(#satori_om-id)"/></mask><g mask="url(#satori_om-id)" clip-path="url(#satori_cp-id)"><path fill="#ECEEF3" d="M274.0 102L258.2 102L258.2 77.3L263.3 77.3L263.3 97.8L274.0 97.8L274.0 102ZM284.7 102.4L284.7 102.4Q281.9 102.4 279.8 101.2Q277.8 100.0 276.7 97.9Q275.6 95.8 275.6 92.8L275.6 92.8Q275.6 89.9 276.7 87.8Q277.8 85.6 279.8 84.4Q281.8 83.2 284.5 83.2L284.5 83.2Q286.3 83.2 287.9 83.8Q289.5 84.4 290.7 85.5Q291.9 86.7 292.5 88.5Q293.2 90.2 293.2 92.6L293.2 92.6L293.2 94.0L280.5 94.0Q280.5 95.4 281.0 96.4L281.0 96.4Q281.6 97.5 282.6 98.1Q283.5 98.6 284.8 98.6L284.8 98.6Q285.7 98.6 286.4 98.4Q287.1 98.1 287.6 97.6Q288.1 97.1 288.4 96.4L288.4 96.4L292.9 97.3Q292.5 98.8 291.4 99.9Q290.2 101.1 288.6 101.7Q286.9 102.4 284.7 102.4ZM280.5 90.9L280.5 90.9L288.4 90.9Q288.3 90.0 288.0 89.2L288.0 89.2Q287.6 88.1 286.7 87.5Q285.8 87.0 284.5 87.0L284.5 87.0Q283.2 87.0 282.3 87.6Q281.4 88.2 281.0 89.2L281.0 89.2Q280.6 89.9 280.5 90.9ZM301.3 83.4L304.8 83.4L304.8 87.2L301.3 87.2L301.3 96.6Q301.3 97.5 301.7 97.9Q302.1 98.3 303.0 98.3L303.0 98.3Q303.3 98.3 303.8 98.2Q304.4 98.1 304.6 98.1L304.6 98.1L305.3 101.8Q304.5 102.1 303.7 102.2Q302.9 102.3 302.1 102.3L302.1 102.3Q299.3 102.3 297.8 100.9Q296.4 99.5 296.4 97.0L296.4 97.0L296.4 87.2L293.8 87.2L293.8 83.4L296.4 83.4L296.4 79.0L301.3 79.0L301.3 83.4ZM312.6 87.6L308.8 87.6L308.3 77.3L313.1 77.3L312.6 87.6ZM324.9 102.4L324.9 102.4Q322.7 102.4 321.0 101.7Q319.3 101.1 318.2 99.9Q317.1 98.6 316.7 96.9L316.7 96.9L321.4 96.1Q321.7 97.4 322.7 98.1Q323.6 98.7 325.1 98.7L325.1 98.7Q326.5 98.7 327.3 98.2Q328.2 97.6 328.2 96.8L328.2 96.8Q328.2 96.1 327.6 95.6Q327.0 95.1 325.8 94.9L325.8 94.9L322.6 94.2Q319.9 93.7 318.6 92.4Q317.2 91.0 317.2 89.0L317.2 89.0Q317.2 87.2 318.2 85.9Q319.2 84.6 320.9 83.9Q322.7 83.2 325.0 83.2L325.0 83.2Q327.2 83.2 328.8 83.8Q330.4 84.4 331.4 85.5Q332.4 86.6 332.8 88.2L332.8 88.2L328.4 88.9Q328.1 88.0 327.3 87.4Q326.5 86.8 325.1 86.8L325.1 86.8Q323.9 86.8 323.0 87.3Q322.2 87.8 322.2 88.7L322.2 88.7Q322.2 89.4 322.7 89.8Q323.3 90.3 324.6 90.6L324.6 90.6L327.9 91.3Q330.6 91.8 331.9 93.0Q333.2 94.3 333.2 96.3L333.2 96.3Q333.2 98.1 332.2 99.5Q331.1 100.8 329.3 101.6Q327.4 102.4 324.9 102.4Z M353.1 102.3L353.1 102.3Q351.6 102.3 350.5 101.8Q349.5 101.3 348.8 100.5Q348.1 99.8 347.8 99.0L347.8 99.0L347.6 99.0L347.6 102L342.7 102L342.7 77.3L347.7 77.3L347.7 86.6L347.8 86.6Q348.1 85.8 348.8 85.0Q349.4 84.3 350.5 83.7Q351.5 83.2 353.1 83.2L353.1 83.2Q355.2 83.2 356.9 84.3Q358.6 85.3 359.6 87.5Q360.6 89.6 360.6 92.8L360.6 92.8Q360.6 95.8 359.6 98.0Q358.6 100.1 356.9 101.2Q355.2 102.3 353.1 102.3ZM351.5 98.3L351.5 98.3Q352.8 98.3 353.7 97.6Q354.6 96.9 355.1 95.6Q355.5 94.4 355.5 92.7L355.5 92.7Q355.5 91.1 355.1 89.9Q354.6 88.6 353.7 87.9Q352.8 87.2 351.5 87.2L351.5 87.2Q350.3 87.2 349.4 87.9Q348.5 88.6 348.0 89.8Q347.5 91.0 347.5 92.7L347.5 92.7Q347.5 94.4 348.0 95.7Q348.5 96.9 349.4 97.6Q350.3 98.3 351.5 98.3ZM369.5 102.2L369.5 102.2Q367.6 102.2 366.1 101.4Q364.7 100.6 363.9 99.0Q363.1 97.4 363.1 95.2L363.1 95.2L363.1 83.4L368.1 83.4L368.1 94.4Q368.1 96.1 369.0 97.1Q369.9 98.1 371.4 98.1L371.4 98.1Q372.5 98.1 373.3 97.6Q374.1 97.2 374.6 96.3Q375.0 95.4 375.0 94.2L375.0 94.2L375.0 83.4L380.0 83.4L380.0 102L375.3 102L375.3 98.1Q374.6 99.9 373.3 101.0L373.3 101.0Q371.8 102.2 369.5 102.2ZM388.3 102L383.3 102L383.3 83.4L388.3 83.4L388.3 102ZM385.8 81.0L385.8 81.0Q384.6 81.0 383.8 80.3Q383.0 79.5 383.0 78.5L383.0 78.5Q383.0 77.4 383.8 76.6Q384.6 75.9 385.8 75.9L385.8 75.9Q386.9 75.9 387.7 76.6Q388.5 77.4 388.5 78.5L388.5 78.5Q388.5 79.5 387.7 80.3Q386.9 81.0 385.8 81.0ZM391.5 77.3L396.5 77.3L396.5 102L391.5 102L391.5 77.3ZM406.5 102.3L406.5 102.3Q404.3 102.3 402.6 101.2Q400.9 100.1 399.9 98.0Q398.9 95.8 398.9 92.8L398.9 92.8Q398.9 89.6 399.9 87.5Q401.0 85.3 402.7 84.3Q404.4 83.2 406.5 83.2L406.5 83.2Q408.0 83.2 409.1 83.7Q410.1 84.3 410.8 85.0Q411.4 85.8 411.7 86.6L411.7 86.6L411.9 86.6L411.9 77.3L416.9 77.3L416.9 102L412.0 102L412.0 99.0L411.7 99.0Q411.4 99.8 410.7 100.5Q410.1 101.3 409.0 101.8Q408.0 102.3 406.5 102.3ZM408.0 98.3L408.0 98.3Q409.3 98.3 410.2 97.6Q411.1 96.9 411.5 95.7Q412.0 94.4 412.0 92.7L412.0 92.7Q412.0 91.0 411.5 89.8Q411.1 88.6 410.2 87.9Q409.3 87.2 408.0 87.2L408.0 87.2Q406.7 87.2 405.8 87.9Q404.9 88.6 404.5 89.9Q404.0 91.1 404.0 92.7L404.0 92.7Q404.0 94.4 404.5 95.6Q404.9 96.9 405.8 97.6Q406.7 98.3 408.0 98.3Z M434.6 102.4L434.6 102.4Q432.3 102.4 430.6 101.7Q428.9 101.1 427.8 99.9Q426.7 98.6 426.4 96.9L426.4 96.9L431.0 96.1Q431.3 97.4 432.3 98.1Q433.2 98.7 434.7 98.7L434.7 98.7Q436.1 98.7 437.0 98.2Q437.8 97.6 437.8 96.8L437.8 96.8Q437.8 96.1 437.2 95.6Q436.6 95.1 435.4 94.9L435.4 94.9L432.2 94.2Q429.5 93.7 428.2 92.4Q426.8 91.0 426.8 89.0L426.8 89.0Q426.8 87.2 427.8 85.9Q428.8 84.6 430.5 83.9Q432.3 83.2 434.6 83.2L434.6 83.2Q436.8 83.2 438.4 83.8Q440.0 84.4 441.0 85.5Q442.0 86.6 442.4 88.2L442.4 88.2L438.0 88.9Q437.7 88.0 436.9 87.4Q436.1 86.8 434.7 86.8L434.7 86.8Q433.5 86.8 432.6 87.3Q431.8 87.8 431.8 88.7L431.8 88.7Q431.8 89.4 432.4 89.8Q432.9 90.3 434.2 90.6L434.2 90.6L437.5 91.3Q440.2 91.8 441.5 93.0Q442.9 94.3 442.9 96.3L442.9 96.3Q442.9 98.1 441.8 99.5Q440.7 100.8 438.9 101.6Q437.0 102.4 434.6 102.4ZM453.5 102.4L453.5 102.4Q450.7 102.4 448.7 101.2Q446.7 100.0 445.5 97.8Q444.4 95.7 444.4 92.8L444.4 92.8Q444.4 89.9 445.5 87.8Q446.7 85.6 448.7 84.4Q450.7 83.2 453.5 83.2L453.5 83.2Q456.3 83.2 458.4 84.4Q460.4 85.6 461.5 87.8Q462.6 89.9 462.6 92.8L462.6 92.8Q462.6 95.7 461.5 97.8Q460.4 100.0 458.4 101.2Q456.3 102.4 453.5 102.4ZM453.5 98.4L453.5 98.4Q454.9 98.4 455.7 97.7Q456.6 97.0 457.1 95.7Q457.5 94.4 457.5 92.8L457.5 92.8Q457.5 91.1 457.1 89.9Q456.6 88.6 455.7 87.9Q454.9 87.1 453.5 87.1L453.5 87.1Q452.2 87.1 451.3 87.9Q450.4 88.6 450.0 89.9Q449.5 91.1 449.5 92.8L449.5 92.8Q449.5 94.4 450.0 95.7Q450.4 97.0 451.3 97.7Q452.2 98.4 453.5 98.4ZM470.1 102L465.1 102L465.1 83.4L469.7 83.4L469.9 87.0Q470.3 86.0 470.9 85.3L470.9 85.3Q471.7 84.2 472.8 83.7Q473.9 83.2 475.2 83.2L475.2 83.2Q477.2 83.2 478.4 84.4L478.4 84.4Q479.4 85.4 480.0 87.3L480.0 87.3Q480.4 86.2 481.0 85.4L481.0 85.4Q481.9 84.3 483.2 83.7Q484.5 83.2 485.9 83.2L485.9 83.2Q487.6 83.2 489.0 83.9Q490.3 84.7 491.1 86.1Q491.9 87.5 491.9 89.5L491.9 89.5L491.9 102L486.9 102L486.9 90.4Q486.9 88.9 486.0 88.1Q485.2 87.3 483.9 87.3L483.9 87.3Q483.0 87.3 482.3 87.7Q481.6 88.1 481.2 88.9Q480.9 89.6 480.9 90.6L480.9 90.6L480.9 102L476.0 102L476.0 90.3Q476.0 88.9 475.2 88.1Q474.4 87.3 473.2 87.3L473.2 87.3Q472.3 87.3 471.6 87.7Q470.9 88.1 470.5 88.9Q470.1 89.7 470.1 90.8L470.1 90.8L470.1 102ZM503.5 102.4L503.5 102.4Q500.6 102.4 498.6 101.2Q496.5 100.0 495.4 97.9Q494.3 95.8 494.3 92.8L494.3 92.8Q494.3 89.9 495.4 87.8Q496.5 85.6 498.5 84.4Q500.5 83.2 503.2 83.2L503.2 83.2Q505.1 83.2 506.6 83.8Q508.2 84.4 509.4 85.5Q510.6 86.7 511.3 88.5Q512.0 90.2 512.0 92.6L512.0 92.6L512.0 94.0L499.3 94.0Q499.3 95.4 499.8 96.4L499.8 96.4Q500.3 97.5 501.3 98.1Q502.3 98.6 503.6 98.6L503.6 98.6Q504.5 98.6 505.2 98.4Q505.9 98.1 506.4 97.6Q506.9 97.1 507.2 96.4L507.2 96.4L511.7 97.3Q511.2 98.8 510.1 99.9Q509.0 101.1 507.3 101.7Q505.7 102.4 503.5 102.4ZM499.3 90.9L499.3 90.9L507.2 90.9Q507.1 90.0 506.8 89.2L506.8 89.2Q506.3 88.1 505.4 87.5Q504.6 87.0 503.3 87.0L503.3 87.0Q502.0 87.0 501.1 87.6Q500.2 88.2 499.7 89.2L499.7 89.2Q499.4 89.9 499.3 90.9ZM520.1 83.4L523.6 83.4L523.6 87.2L520.1 87.2L520.1 96.6Q520.1 97.5 520.5 97.9Q520.9 98.3 521.8 98.3L521.8 98.3Q522.1 98.3 522.6 98.2Q523.1 98.1 523.4 98.1L523.4 98.1L524.1 101.8Q523.3 102.1 522.4 102.2Q521.6 102.3 520.9 102.3L520.9 102.3Q518.1 102.3 516.6 100.9Q515.1 99.5 515.1 97.0L515.1 97.0L515.1 87.2L512.6 87.2L512.6 83.4L515.1 83.4L515.1 79.0L520.1 79.0L520.1 83.4ZM530.8 91.3L530.8 91.3L530.8 102L525.8 102L525.8 77.3L530.7 77.3L530.7 87.0Q531.4 85.4 532.5 84.5L532.5 84.5Q534.0 83.2 536.4 83.2L536.4 83.2Q538.3 83.2 539.7 84.0Q541.1 84.9 541.9 86.5Q542.7 88.0 542.7 90.2L542.7 90.2L542.7 102L537.7 102L537.7 91.1Q537.7 89.3 536.9 88.4Q536.0 87.4 534.4 87.4L534.4 87.4Q533.3 87.4 532.5 87.8Q531.7 88.3 531.2 89.2Q530.8 90.0 530.8 91.3ZM551.0 102L546.0 102L546.0 83.4L551.0 83.4L551.0 102ZM548.5 81.0L548.5 81.0Q547.3 81.0 546.5 80.3Q545.7 79.5 545.7 78.5L545.7 78.5Q545.7 77.4 546.5 76.6Q547.3 75.9 548.5 75.9L548.5 75.9Q549.6 75.9 550.4 76.6Q551.2 77.4 551.2 78.5L551.2 78.5Q551.2 79.5 550.4 80.3Q549.6 81.0 548.5 81.0ZM559.2 91.3L559.2 91.3L559.2 102L554.2 102L554.2 83.4L558.9 83.4L559.0 87.3Q559.7 85.5 560.9 84.5L560.9 84.5Q562.4 83.2 564.7 83.2L564.7 83.2Q566.7 83.2 568.1 84.0Q569.5 84.9 570.3 86.5Q571.1 88.0 571.1 90.2L571.1 90.2L571.1 102L566.1 102L566.1 91.1Q566.1 89.3 565.2 88.4Q564.3 87.4 562.8 87.4L562.8 87.4Q561.7 87.4 560.9 87.8Q560.1 88.3 559.6 89.2Q559.2 90.0 559.2 91.3ZM582.6 109.3L582.6 109.3Q580.3 109.3 578.6 108.7Q576.8 108.2 575.8 107.1Q574.7 106.1 574.3 104.8L574.3 104.8L578.5 103.6Q578.8 104.1 579.3 104.6Q579.8 105.1 580.6 105.4Q581.4 105.7 582.6 105.7L582.6 105.7Q584.5 105.7 585.6 104.8Q586.7 104.0 586.7 102.1L586.7 102.1L586.7 98.7L586.3 98.7Q585.9 99.5 585.3 100.2Q584.7 100.9 583.7 101.3Q582.6 101.7 581.1 101.7L581.1 101.7Q579.0 101.7 577.3 100.8Q575.6 99.8 574.6 97.8Q573.6 95.8 573.6 92.7L573.6 92.7Q573.6 89.5 574.6 87.4Q575.7 85.3 577.4 84.3Q579.1 83.2 581.1 83.2L581.1 83.2Q582.7 83.2 583.8 83.7Q584.8 84.3 585.5 85.0Q586.1 85.8 586.5 86.6L586.5 86.6L586.7 86.6L586.7 83.4L591.6 83.4L591.6 101.9Q591.6 104.4 590.4 106.0Q589.3 107.7 587.3 108.5Q585.2 109.3 582.6 109.3ZM582.7 97.9L582.7 97.9Q584.0 97.9 584.9 97.3Q585.7 96.7 586.2 95.5Q586.7 94.3 586.7 92.7L586.7 92.7Q586.7 91.0 586.2 89.8Q585.7 88.6 584.9 87.9Q584.0 87.2 582.7 87.2L582.7 87.2Q581.4 87.2 580.5 87.9Q579.6 88.6 579.1 89.8Q578.7 91.1 578.7 92.7L578.7 92.7Q578.7 94.3 579.1 95.5Q579.6 96.7 580.5 97.3Q581.4 97.9 582.7 97.9ZM598.4 102.3L598.4 102.3Q597.2 102.3 596.3 101.5Q595.5 100.7 595.5 99.5L595.5 99.5Q595.5 98.2 596.3 97.4Q597.2 96.6 598.4 96.6L598.4 96.6Q599.6 96.6 600.4 97.4Q601.3 98.2 601.3 99.5L601.3 99.5Q601.3 100.7 600.4 101.5Q599.6 102.3 598.4 102.3Z "/></g><mask id="satori_om-id-1-2"><rect x="241" y="122" width="378" height="17" fill="#fff" mask="url(#satori_om-id)"/></mask><g mask="url(#satori_om-id)" clip-path="url(#satori_cp-id)"><path fill="#98A2B3" d="M246.4 136.1L246.4 136.1Q245.1 136.1 244.0 135.5Q243.0 134.9 242.4 133.7Q241.8 132.5 241.8 130.9L241.8 130.9Q241.8 129.3 242.4 128.1Q243.0 126.9 244.0 126.3Q245.1 125.7 246.4 125.7L246.4 125.7Q247.7 125.7 248.7 126.3Q249.7 126.9 250.3 128.1Q250.9 129.3 250.9 130.9L250.9 130.9Q250.9 132.5 250.3 133.7Q249.7 134.9 248.7 135.5Q247.7 136.1 246.4 136.1ZM246.4 134.9L246.4 134.9Q247.3 134.9 248.0 134.5Q248.7 134.0 249.2 133.1Q249.6 132.2 249.6 130.9L249.6 130.9Q249.6 129.6 249.2 128.7Q248.7 127.8 248.0 127.3Q247.3 126.9 246.4 126.9L246.4 126.9Q245.4 126.9 244.7 127.3Q244.0 127.8 243.5 128.7Q243.1 129.6 243.1 130.9L243.1 130.9Q243.1 132.2 243.5 133.1Q244.0 134.0 244.7 134.5Q245.4 134.9 246.4 134.9ZM254.0 138.9L252.8 138.9L252.8 128.4L254.0 128.4L254.0 129.6L254.1 129.6Q254.2 129.4 254.5 129.1Q254.7 128.8 255.1 128.5Q255.6 128.3 256.3 128.3L256.3 128.3Q257.3 128.3 258.0 128.7Q258.7 129.2 259.2 130.1Q259.6 131.0 259.6 132.2L259.6 132.2Q259.6 133.4 259.2 134.3Q258.7 135.2 258.0 135.7Q257.3 136.2 256.3 136.2L256.3 136.2Q255.6 136.2 255.2 135.9Q254.7 135.7 254.5 135.3Q254.2 135.0 254.1 134.8L254.1 134.8L254.0 134.8L254.0 138.9ZM256.1 135.1L256.1 135.1Q256.9 135.1 257.3 134.7Q257.8 134.3 258.1 133.6Q258.3 133.0 258.3 132.2L258.3 132.2Q258.3 131.4 258.1 130.8Q257.8 130.1 257.4 129.7Q256.9 129.4 256.1 129.4L256.1 129.4Q255.4 129.4 255.0 129.7Q254.5 130.1 254.2 130.7Q254.0 131.3 254.0 132.2L254.0 132.2Q254.0 133.0 254.2 133.7Q254.5 134.3 255.0 134.7Q255.5 135.1 256.1 135.1ZM264.6 136.2L264.6 136.2Q263.5 136.2 262.7 135.7Q261.9 135.2 261.4 134.3Q261.0 133.4 261.0 132.2Q261.0 131.1 261.4 130.2Q261.8 129.3 262.6 128.8Q263.4 128.3 264.4 128.3L264.4 128.3Q265.0 128.3 265.6 128.5Q266.2 128.7 266.7 129.1Q267.2 129.6 267.5 130.3Q267.8 131.0 267.8 132.1L267.8 132.1L267.8 132.6L262.2 132.6Q262.3 133.3 262.5 133.9L262.5 133.9Q262.8 134.5 263.4 134.8Q263.9 135.1 264.6 135.1L264.6 135.1Q265.0 135.1 265.4 134.9Q265.8 134.8 266.0 134.5Q266.3 134.3 266.4 133.9L266.4 133.9L267.6 134.2Q267.5 134.8 267.0 135.2Q266.6 135.7 266.0 135.9Q265.4 136.2 264.6 136.2ZM262.2 131.6L262.2 131.6L266.5 131.6Q266.5 131.0 266.3 130.6L266.3 130.6Q266.0 130.0 265.6 129.7Q265.1 129.4 264.4 129.4Q263.7 129.4 263.2 129.7Q262.8 130.0 262.5 130.6L262.5 130.6Q262.3 131.0 262.2 131.6ZM270.8 131.4L270.8 131.4L270.8 136L269.5 136L269.5 128.4L270.7 128.4L270.7 129.8Q271.0 129.1 271.5 128.7L271.5 128.7Q272.2 128.3 273.0 128.3L273.0 128.3Q273.8 128.3 274.4 128.6Q275.0 128.9 275.3 129.5Q275.6 130.2 275.6 131.1L275.6 131.1L275.6 136L274.4 136L274.4 131.2Q274.4 130.4 273.9 129.9Q273.5 129.4 272.7 129.4L272.7 129.4Q272.1 129.4 271.7 129.6Q271.3 129.8 271.0 130.3Q270.8 130.8 270.8 131.4Z M283.2 128.4L284.7 128.4L284.7 129.4L283.2 129.4L283.2 134.0Q283.2 134.5 283.4 134.8Q283.6 135.0 284.1 135.0L284.1 135.0Q284.2 135.0 284.4 135.0Q284.5 134.9 284.7 134.9L284.7 134.9L284.9 136.0Q284.8 136.0 284.5 136.1Q284.3 136.1 284.0 136.1L284.0 136.1Q283.0 136.1 282.5 135.6Q281.9 135.0 281.9 134.1L281.9 134.1L281.9 129.4L280.8 129.4L280.8 128.4L281.9 128.4L281.9 126.5L283.2 126.5L283.2 128.4ZM289.4 136.2L289.4 136.2Q288.4 136.2 287.6 135.7Q286.8 135.2 286.4 134.3Q285.9 133.4 285.9 132.2L285.9 132.2Q285.9 131.0 286.4 130.1Q286.8 129.2 287.6 128.8Q288.4 128.3 289.4 128.3L289.4 128.3Q290.5 128.3 291.3 128.8Q292.0 129.2 292.5 130.1Q292.9 131.0 292.9 132.2L292.9 132.2Q292.9 133.4 292.5 134.3Q292.0 135.2 291.3 135.7Q290.5 136.2 289.4 136.2ZM289.4 135.1L289.4 135.1Q290.2 135.1 290.7 134.7Q291.2 134.3 291.4 133.6Q291.7 133.0 291.7 132.2L291.7 132.2Q291.7 131.5 291.4 130.8Q291.2 130.2 290.7 129.8Q290.2 129.4 289.4 129.4L289.4 129.4Q288.7 129.4 288.2 129.8Q287.7 130.2 287.4 130.8Q287.2 131.5 287.2 132.2L287.2 132.2Q287.2 133.0 287.4 133.6Q287.7 134.3 288.2 134.7Q288.7 135.1 289.4 135.1Z M299.9 136L298.6 136L298.6 128.4L299.8 128.4L299.8 129.5L299.9 129.5Q300.1 129.0 300.7 128.6Q301.2 128.2 301.9 128.2L301.9 128.2Q302.0 128.2 302.2 128.3Q302.4 128.3 302.5 128.3L302.5 128.3L302.5 129.5Q302.5 129.5 302.2 129.5Q302.0 129.4 301.8 129.4L301.8 129.4Q301.2 129.4 300.8 129.7Q300.4 129.9 300.1 130.3Q299.9 130.7 299.9 131.2L299.9 131.2L299.9 136ZM307.0 136.2L307.0 136.2Q306.0 136.2 305.2 135.7Q304.4 135.2 304.0 134.3Q303.5 133.4 303.5 132.2L303.5 132.2Q303.5 131.0 304.0 130.1Q304.4 129.2 305.2 128.8Q306.0 128.3 307.0 128.3L307.0 128.3Q308.1 128.3 308.9 128.8Q309.6 129.2 310.1 130.1Q310.5 131.0 310.5 132.2L310.5 132.2Q310.5 133.4 310.1 134.3Q309.6 135.2 308.9 135.7Q308.1 136.2 307.0 136.2ZM307.0 135.1L307.0 135.1Q307.8 135.1 308.3 134.7Q308.8 134.3 309.0 133.6Q309.3 133.0 309.3 132.2L309.3 132.2Q309.3 131.5 309.0 130.8Q308.8 130.2 308.3 129.8Q307.8 129.4 307.0 129.4L307.0 129.4Q306.3 129.4 305.8 129.8Q305.3 130.2 305.0 130.8Q304.8 131.5 304.8 132.2L304.8 132.2Q304.8 133.0 305.0 133.6Q305.3 134.3 305.8 134.7Q306.3 135.1 307.0 135.1ZM312.3 125.8L313.5 125.8L313.5 136L312.3 136L312.3 125.8ZM318.9 136.2L318.9 136.2Q317.8 136.2 317.0 135.7Q316.2 135.2 315.8 134.3Q315.3 133.4 315.3 132.2Q315.3 131.1 315.8 130.2Q316.2 129.3 317.0 128.8Q317.7 128.3 318.8 128.3L318.8 128.3Q319.4 128.3 320.0 128.5Q320.6 128.7 321.0 129.1Q321.5 129.6 321.8 130.3Q322.1 131.0 322.1 132.1L322.1 132.1L322.1 132.6L316.6 132.6Q316.6 133.3 316.9 133.9L316.9 133.9Q317.2 134.5 317.7 134.8Q318.2 135.1 318.9 135.1L318.9 135.1Q319.4 135.1 319.7 134.9Q320.1 134.8 320.4 134.5Q320.6 134.3 320.8 133.9L320.8 133.9L322.0 134.2Q321.8 134.8 321.4 135.2Q320.9 135.7 320.3 135.9Q319.7 136.2 318.9 136.2ZM316.6 131.6L316.6 131.6L320.8 131.6Q320.8 131.0 320.6 130.6L320.6 130.6Q320.4 130.0 319.9 129.7Q319.5 129.4 318.8 129.4Q318.1 129.4 317.6 129.7Q317.1 130.0 316.8 130.6L316.8 130.6Q316.6 131.0 316.6 131.6ZM326.5 136.2L326.5 136.2Q325.7 136.2 325.1 135.9Q324.4 135.7 324.0 135.3Q323.7 134.8 323.5 134.1L323.5 134.1L324.7 133.9Q324.8 134.5 325.3 134.8Q325.8 135.1 326.4 135.1L326.4 135.1Q327.2 135.1 327.7 134.7Q328.2 134.4 328.2 133.9L328.2 133.9Q328.2 133.5 327.9 133.3Q327.6 133.0 327.1 132.9L327.1 132.9L325.8 132.6Q324.8 132.3 324.3 131.8Q323.7 131.3 323.7 130.5L323.7 130.5Q323.7 129.8 324.1 129.3Q324.5 128.8 325.1 128.5Q325.8 128.3 326.6 128.3L326.6 128.3Q327.4 128.3 327.9 128.5Q328.5 128.7 328.8 129.1Q329.2 129.6 329.3 130.1L329.3 130.1L328.2 130.4Q328.1 130.0 327.7 129.6Q327.3 129.3 326.6 129.3L326.6 129.3Q325.9 129.3 325.4 129.6Q325.0 129.9 325.0 130.4L325.0 130.4Q325.0 130.8 325.3 131.1Q325.6 131.4 326.3 131.5L326.3 131.5L327.4 131.8Q328.5 132.0 329.0 132.5Q329.5 133.1 329.5 133.8L329.5 133.8Q329.5 134.5 329.1 135.0Q328.7 135.6 328.0 135.9Q327.4 136.2 326.5 136.2ZM332.0 138.5L331.0 138.5L331.6 134.6L333.1 134.6L332.0 138.5Z M342.3 136.2L342.3 136.2Q341.3 136.2 340.5 135.7Q339.7 135.2 339.3 134.3Q338.8 133.4 338.8 132.2L338.8 132.2Q338.8 131.0 339.3 130.1Q339.7 129.2 340.5 128.8Q341.3 128.3 342.3 128.3L342.3 128.3Q342.9 128.3 343.4 128.4Q343.9 128.5 344.3 128.8Q344.7 129.1 345.0 129.5Q345.3 129.9 345.4 130.4L345.4 130.4L344.2 130.7Q344.2 130.4 344.0 130.2Q343.8 129.9 343.6 129.7Q343.3 129.6 343.0 129.5Q342.7 129.4 342.3 129.4L342.3 129.4Q341.6 129.4 341.1 129.8Q340.6 130.2 340.3 130.8Q340.1 131.5 340.1 132.2L340.1 132.2Q340.1 133.0 340.3 133.6Q340.6 134.3 341.1 134.7Q341.6 135.1 342.3 135.1L342.3 135.1Q342.7 135.1 343.0 135.0Q343.4 134.9 343.6 134.7Q343.9 134.5 344.0 134.2Q344.2 134.0 344.3 133.7L344.3 133.7L345.5 134.0Q345.3 134.5 345.0 134.9Q344.7 135.3 344.3 135.6Q343.9 135.9 343.4 136.0Q342.9 136.2 342.3 136.2ZM350.3 136.2L350.3 136.2Q349.3 136.2 348.5 135.7Q347.7 135.2 347.3 134.3Q346.8 133.4 346.8 132.2L346.8 132.2Q346.8 131.0 347.3 130.1Q347.7 129.2 348.5 128.8Q349.3 128.3 350.3 128.3L350.3 128.3Q351.4 128.3 352.2 128.8Q352.9 129.2 353.4 130.1Q353.8 131.0 353.8 132.2L353.8 132.2Q353.8 133.4 353.4 134.3Q352.9 135.2 352.2 135.7Q351.4 136.2 350.3 136.2ZM350.3 135.1L350.3 135.1Q351.1 135.1 351.6 134.7Q352.1 134.3 352.3 133.6Q352.6 133.0 352.6 132.2L352.6 132.2Q352.6 131.5 352.3 130.8Q352.1 130.2 351.6 129.8Q351.1 129.4 350.3 129.4L350.3 129.4Q349.6 129.4 349.1 129.8Q348.6 130.2 348.3 130.8Q348.1 131.5 348.1 132.2L348.1 132.2Q348.1 133.0 348.3 133.6Q348.6 134.3 349.1 134.7Q349.6 135.1 350.3 135.1ZM355.6 125.8L356.8 125.8L356.8 136L355.6 136L355.6 125.8ZM359.0 125.8L360.2 125.8L360.2 136L359.0 136L359.0 125.8ZM364.5 136.2L364.5 136.2Q363.8 136.2 363.2 135.9Q362.6 135.6 362.3 135.1Q361.9 134.6 361.9 133.8L361.9 133.8Q361.9 133.2 362.2 132.8Q362.4 132.3 362.9 132.1Q363.3 131.9 363.8 131.8Q364.4 131.6 364.9 131.6L364.9 131.6Q365.6 131.5 366.0 131.4Q366.4 131.4 366.7 131.3Q366.9 131.2 366.9 130.9L366.9 130.9L366.9 130.8Q366.9 130.4 366.7 130.0Q366.5 129.7 366.2 129.5Q365.8 129.3 365.3 129.3L365.3 129.3Q364.7 129.3 364.3 129.5Q363.9 129.7 363.7 129.9Q363.5 130.2 363.3 130.5L363.3 130.5L362.1 130.1Q362.4 129.4 362.9 129.0Q363.4 128.6 364.0 128.4Q364.6 128.3 365.2 128.3L365.2 128.3Q365.6 128.3 366.1 128.4Q366.6 128.4 367.0 128.7Q367.5 129.0 367.8 129.5Q368.1 130.1 368.1 131.0L368.1 131.0L368.1 136L366.9 136L366.9 135.0L366.8 135.0Q366.7 135.2 366.4 135.5Q366.1 135.8 365.6 136.0Q365.2 136.2 364.5 136.2ZM364.7 135.1L364.7 135.1Q365.4 135.1 365.9 134.8Q366.4 134.6 366.6 134.1Q366.9 133.7 366.9 133.2L366.9 133.2L366.9 132.2Q366.8 132.3 366.5 132.3Q366.3 132.4 366.0 132.5Q365.6 132.5 365.3 132.6Q365.0 132.6 364.8 132.6L364.8 132.6Q364.4 132.7 364.0 132.8Q363.6 132.9 363.4 133.2Q363.2 133.5 363.2 133.9L363.2 133.9Q363.2 134.3 363.4 134.6Q363.6 134.8 363.9 135.0Q364.3 135.1 364.7 135.1ZM373.8 136.2L373.8 136.2Q373.1 136.2 372.6 135.9Q372.2 135.7 371.9 135.3Q371.7 135.0 371.6 134.8L371.6 134.8L371.4 134.8L371.4 136L370.3 136L370.3 125.8L371.5 125.8L371.5 129.6L371.6 129.6Q371.7 129.4 371.9 129.1Q372.2 128.8 372.6 128.5Q373.0 128.3 373.8 128.3L373.8 128.3Q374.8 128.3 375.5 128.7Q376.2 129.2 376.6 130.1Q377.0 131.0 377.0 132.2L377.0 132.2Q377.0 133.4 376.6 134.3Q376.2 135.2 375.5 135.7Q374.8 136.2 373.8 136.2ZM373.6 135.1L373.6 135.1Q374.3 135.1 374.8 134.7Q375.3 134.3 375.5 133.6Q375.8 133.0 375.8 132.2L375.8 132.2Q375.8 131.4 375.5 130.8Q375.3 130.1 374.8 129.7Q374.3 129.4 373.6 129.4L373.6 129.4Q372.9 129.4 372.4 129.7Q372.0 130.1 371.7 130.7Q371.5 131.3 371.5 132.2L371.5 132.2Q371.5 133.0 371.7 133.7Q372.0 134.3 372.4 134.7Q372.9 135.1 373.6 135.1ZM381.9 136.2L381.9 136.2Q380.9 136.2 380.1 135.7Q379.3 135.2 378.9 134.3Q378.5 133.4 378.5 132.2L378.5 132.2Q378.5 131.0 378.9 130.1Q379.3 129.2 380.1 128.8Q380.9 128.3 381.9 128.3L381.9 128.3Q383.0 128.3 383.8 128.8Q384.6 129.2 385.0 130.1Q385.4 131.0 385.4 132.2L385.4 132.2Q385.4 133.4 385.0 134.3Q384.6 135.2 383.8 135.7Q383.0 136.2 381.9 136.2ZM381.9 135.1L381.9 135.1Q382.7 135.1 383.2 134.7Q383.7 134.3 383.9 133.6Q384.2 133.0 384.2 132.2L384.2 132.2Q384.2 131.5 383.9 130.8Q383.7 130.2 383.2 129.8Q382.7 129.4 381.9 129.4L381.9 129.4Q381.2 129.4 380.7 129.8Q380.2 130.2 379.9 130.8Q379.7 131.5 379.7 132.2L379.7 132.2Q379.7 133.0 379.9 133.6Q380.2 134.3 380.7 134.7Q381.2 135.1 381.9 135.1ZM388.5 136L387.2 136L387.2 128.4L388.4 128.4L388.4 129.5L388.5 129.5Q388.7 129.0 389.2 128.6Q389.8 128.2 390.5 128.2L390.5 128.2Q390.6 128.2 390.8 128.3Q391.0 128.3 391.1 128.3L391.1 128.3L391.1 129.5Q391.0 129.5 390.8 129.5Q390.6 129.4 390.4 129.4L390.4 129.4Q389.8 129.4 389.4 129.7Q388.9 129.9 388.7 130.3Q388.5 130.7 388.5 131.2L388.5 131.2L388.5 136ZM394.6 136.2L394.6 136.2Q393.9 136.2 393.3 135.9Q392.7 135.6 392.4 135.1Q392.0 134.6 392.0 133.8L392.0 133.8Q392.0 133.2 392.3 132.8Q392.5 132.3 393.0 132.1Q393.4 131.9 393.9 131.8Q394.5 131.6 395 131.6L395 131.6Q395.7 131.5 396.1 131.4Q396.5 131.4 396.8 131.3Q397.0 131.2 397.0 130.9L397.0 130.9L397.0 130.8Q397.0 130.4 396.8 130.0Q396.6 129.7 396.3 129.5Q395.9 129.3 395.4 129.3L395.4 129.3Q394.8 129.3 394.4 129.5Q394.0 129.7 393.8 129.9Q393.6 130.2 393.4 130.5L393.4 130.5L392.2 130.1Q392.5 129.4 393.0 129.0Q393.5 128.6 394.1 128.4Q394.7 128.3 395.3 128.3L395.3 128.3Q395.7 128.3 396.2 128.4Q396.7 128.4 397.1 128.7Q397.6 129.0 397.9 129.5Q398.2 130.1 398.2 131.0L398.2 131.0L398.2 136L397.0 136L397.0 135.0L396.9 135.0Q396.8 135.2 396.5 135.5Q396.2 135.8 395.7 136.0Q395.3 136.2 394.6 136.2ZM394.8 135.1L394.8 135.1Q395.5 135.1 396.0 134.8Q396.5 134.6 396.7 134.1Q397.0 133.7 397.0 133.2L397.0 133.2L397.0 132.2Q396.9 132.3 396.6 132.3Q396.4 132.4 396.1 132.5Q395.7 132.5 395.4 132.6Q395.1 132.6 394.9 132.6L394.9 132.6Q394.5 132.7 394.1 132.8Q393.7 132.9 393.5 133.2Q393.3 133.5 393.3 133.9L393.3 133.9Q393.3 134.3 393.5 134.6Q393.7 134.8 394.0 135.0Q394.4 135.1 394.8 135.1ZM401.8 128.4L403.4 128.4L403.4 129.4L401.8 129.4L401.8 134.0Q401.8 134.5 402.0 134.8Q402.2 135.0 402.7 135.0L402.7 135.0Q402.8 135.0 403.0 135.0Q403.2 134.9 403.3 134.9L403.3 134.9L403.6 136.0Q403.4 136.0 403.1 136.1Q402.9 136.1 402.7 136.1L402.7 136.1Q401.7 136.1 401.1 135.6Q400.6 135.0 400.6 134.1L400.6 134.1L400.6 129.4L399.4 129.4L399.4 128.4L400.6 128.4L400.6 126.5L401.8 126.5L401.8 128.4ZM406.2 136L404.9 136L404.9 128.4L406.2 128.4L406.2 136ZM405.6 127.1L405.6 127.1Q405.2 127.1 405.0 126.9Q404.7 126.6 404.7 126.3L404.7 126.3Q404.7 126.0 405.0 125.7Q405.2 125.5 405.6 125.5L405.6 125.5Q405.9 125.5 406.2 125.7Q406.4 126.0 406.4 126.3L406.4 126.3Q406.4 126.6 406.2 126.9Q405.9 127.1 405.6 127.1ZM411.4 136.2L411.4 136.2Q410.4 136.2 409.6 135.7Q408.8 135.2 408.4 134.3Q408.0 133.4 408.0 132.2L408.0 132.2Q408.0 131.0 408.4 130.1Q408.8 129.2 409.6 128.8Q410.4 128.3 411.4 128.3L411.4 128.3Q412.5 128.3 413.3 128.8Q414.1 129.2 414.5 130.1Q414.9 131.0 414.9 132.2L414.9 132.2Q414.9 133.4 414.5 134.3Q414.1 135.2 413.3 135.7Q412.5 136.2 411.4 136.2ZM411.4 135.1L411.4 135.1Q412.2 135.1 412.7 134.7Q413.2 134.3 413.4 133.6Q413.7 133.0 413.7 132.2L413.7 132.2Q413.7 131.5 413.4 130.8Q413.2 130.2 412.7 129.8Q412.2 129.4 411.4 129.4L411.4 129.4Q410.7 129.4 410.2 129.8Q409.7 130.2 409.4 130.8Q409.2 131.5 409.2 132.2L409.2 132.2Q409.2 133.0 409.4 133.6Q409.7 134.3 410.2 134.7Q410.7 135.1 411.4 135.1ZM417.9 131.4L417.9 131.4L417.9 136L416.7 136L416.7 128.4L417.9 128.4L417.9 129.8Q418.2 129.1 418.7 128.7L418.7 128.7Q419.4 128.3 420.2 128.3L420.2 128.3Q421.0 128.3 421.6 128.6Q422.2 128.9 422.5 129.5Q422.8 130.2 422.8 131.1L422.8 131.1L422.8 136L421.6 136L421.6 131.2Q421.6 130.4 421.1 129.9Q420.7 129.4 419.9 129.4L419.9 129.4Q419.3 129.4 418.9 129.6Q418.5 129.8 418.2 130.3Q417.9 130.8 417.9 131.4ZM427.6 136.2L427.6 136.2Q426.8 136.2 426.2 135.9Q425.6 135.7 425.2 135.3Q424.8 134.8 424.6 134.1L424.6 134.1L425.8 133.9Q426.0 134.5 426.4 134.8Q426.9 135.1 427.6 135.1L427.6 135.1Q428.4 135.1 428.8 134.7Q429.3 134.4 429.3 133.9L429.3 133.9Q429.3 133.5 429.0 133.3Q428.8 133.0 428.2 132.9L428.2 132.9L426.9 132.6Q425.9 132.3 425.4 131.8Q424.9 131.3 424.9 130.5L424.9 130.5Q424.9 129.8 425.2 129.3Q425.6 128.8 426.3 128.5Q426.9 128.3 427.7 128.3L427.7 128.3Q428.5 128.3 429.0 128.5Q429.6 128.7 429.9 129.1Q430.3 129.6 430.5 130.1L430.5 130.1L429.3 130.4Q429.2 130.0 428.8 129.6Q428.5 129.3 427.7 129.3L427.7 129.3Q427.0 129.3 426.6 129.6Q426.1 129.9 426.1 130.4L426.1 130.4Q426.1 130.8 426.4 131.1Q426.7 131.4 427.4 131.5L427.4 131.5L428.6 131.8Q429.6 132.0 430.1 132.5Q430.6 133.1 430.6 133.8L430.6 133.8Q430.6 134.5 430.2 135.0Q429.8 135.6 429.2 135.9Q428.5 136.2 427.6 136.2ZM433.1 138.5L432.2 138.5L432.8 134.6L434.2 134.6L433.1 138.5Z M442.5 136.2L442.5 136.2Q441.8 136.2 441.2 135.9Q440.6 135.6 440.2 135.1Q439.9 134.6 439.9 133.8L439.9 133.8Q439.9 133.2 440.1 132.8Q440.4 132.3 440.8 132.1Q441.3 131.9 441.8 131.8Q442.3 131.6 442.9 131.6L442.9 131.6Q443.5 131.5 444.0 131.4Q444.4 131.4 444.6 131.3Q444.8 131.2 444.8 130.9L444.8 130.9L444.8 130.8Q444.8 130.4 444.6 130.0Q444.5 129.7 444.1 129.5Q443.8 129.3 443.2 129.3L443.2 129.3Q442.7 129.3 442.3 129.5Q441.9 129.7 441.7 129.9Q441.4 130.2 441.3 130.5L441.3 130.5L440.1 130.1Q440.4 129.4 440.9 129.0Q441.4 128.6 442.0 128.4Q442.6 128.3 443.2 128.3L443.2 128.3Q443.6 128.3 444.1 128.4Q444.5 128.4 445.0 128.7Q445.5 129.0 445.8 129.5Q446.1 130.1 446.1 131.0L446.1 131.0L446.1 136L444.8 136L444.8 135.0L444.8 135.0Q444.6 135.2 444.3 135.5Q444.1 135.8 443.6 136.0Q443.1 136.2 442.5 136.2ZM442.7 135.1L442.7 135.1Q443.4 135.1 443.9 134.8Q444.3 134.6 444.6 134.1Q444.8 133.7 444.8 133.2L444.8 133.2L444.8 132.2Q444.7 132.3 444.5 132.3Q444.2 132.4 443.9 132.5Q443.6 132.5 443.3 132.6Q443.0 132.6 442.8 132.6L442.8 132.6Q442.4 132.7 442.0 132.8Q441.6 132.9 441.4 133.2Q441.1 133.5 441.1 133.9L441.1 133.9Q441.1 134.3 441.3 134.6Q441.5 134.8 441.9 135.0Q442.2 135.1 442.7 135.1ZM449.4 131.4L449.4 131.4L449.4 136L448.2 136L448.2 128.4L449.4 128.4L449.4 129.8Q449.7 129.1 450.2 128.7L450.2 128.7Q450.9 128.3 451.7 128.3L451.7 128.3Q452.5 128.3 453.1 128.6Q453.7 128.9 454.0 129.5Q454.3 130.2 454.3 131.1L454.3 131.1L454.3 136L453.1 136L453.1 131.2Q453.1 130.4 452.6 129.9Q452.2 129.4 451.4 129.4L451.4 129.4Q450.8 129.4 450.4 129.6Q449.9 129.8 449.7 130.3Q449.4 130.8 449.4 131.4ZM459.3 136.2L459.3 136.2Q458.4 136.2 457.7 135.7Q456.9 135.2 456.5 134.3Q456.1 133.4 456.1 132.2L456.1 132.2Q456.1 131.0 456.5 130.1Q456.9 129.2 457.7 128.7Q458.4 128.3 459.4 128.3L459.4 128.3Q460.1 128.3 460.5 128.5Q461.0 128.8 461.2 129.1Q461.4 129.4 461.6 129.6L461.6 129.6L461.7 129.6L461.7 125.8L462.9 125.8L462.9 136L461.7 136L461.7 134.8L461.6 134.8Q461.4 135.0 461.2 135.3Q461.0 135.7 460.5 135.9Q460.1 136.2 459.3 136.2ZM459.5 135.1L459.5 135.1Q460.2 135.1 460.7 134.7Q461.2 134.3 461.4 133.7Q461.7 133.0 461.7 132.2L461.7 132.2Q461.7 131.3 461.4 130.7Q461.2 130.1 460.7 129.7Q460.2 129.4 459.5 129.4L459.5 129.4Q458.8 129.4 458.3 129.7Q457.8 130.1 457.6 130.8Q457.4 131.4 457.4 132.2L457.4 132.2Q457.4 133.0 457.6 133.6Q457.8 134.3 458.3 134.7Q458.8 135.1 459.5 135.1Z M471.1 136.2L471.1 136.2Q470.4 136.2 469.8 135.9Q469.2 135.6 468.9 135.1Q468.5 134.6 468.5 133.8L468.5 133.8Q468.5 133.2 468.8 132.8Q469.0 132.3 469.5 132.1Q469.9 131.9 470.4 131.8Q471.0 131.6 471.5 131.6L471.5 131.6Q472.2 131.5 472.6 131.4Q473.0 131.4 473.3 131.3Q473.5 131.2 473.5 130.9L473.5 130.9L473.5 130.8Q473.5 130.4 473.3 130.0Q473.1 129.7 472.8 129.5Q472.4 129.3 471.9 129.3L471.9 129.3Q471.3 129.3 470.9 129.5Q470.5 129.7 470.3 129.9Q470.1 130.2 469.9 130.5L469.9 130.5L468.7 130.1Q469.0 129.4 469.5 129.0Q470.0 128.6 470.6 128.4Q471.2 128.3 471.8 128.3L471.8 128.3Q472.2 128.3 472.7 128.4Q473.2 128.4 473.6 128.7Q474.1 129.0 474.4 129.5Q474.7 130.1 474.7 131.0L474.7 131.0L474.7 136L473.5 136L473.5 135.0L473.4 135.0Q473.3 135.2 473.0 135.5Q472.7 135.8 472.2 136.0Q471.8 136.2 471.1 136.2ZM471.3 135.1L471.3 135.1Q472.0 135.1 472.5 134.8Q473.0 134.6 473.2 134.1Q473.5 133.7 473.5 133.2L473.5 133.2L473.5 132.2Q473.4 132.3 473.1 132.3Q472.9 132.4 472.6 132.5Q472.2 132.5 471.9 132.6Q471.6 132.6 471.4 132.6L471.4 132.6Q471.0 132.7 470.6 132.8Q470.2 132.9 470.0 133.2Q469.8 133.5 469.8 133.9L469.8 133.9Q469.8 134.3 470.0 134.6Q470.2 134.8 470.5 135.0Q470.9 135.1 471.3 135.1ZM478.1 136L476.9 136L476.9 128.4L478.0 128.4L478.1 129.8Q478.2 129.3 478.5 129.0L478.5 129.0Q478.8 128.6 479.2 128.4Q479.7 128.2 480.2 128.2L480.2 128.2Q481.0 128.2 481.5 128.7L481.5 128.7Q482.0 129.2 482.1 129.8L482.1 129.8Q482.3 129.4 482.5 129.1L482.5 129.1Q482.9 128.7 483.4 128.4Q483.9 128.2 484.6 128.2L484.6 128.2Q485.2 128.2 485.8 128.5Q486.3 128.8 486.6 129.4Q487.0 130.0 487.0 130.8L487.0 130.8L487.0 136L485.7 136L485.7 130.9Q485.7 130.1 485.3 129.7Q484.8 129.3 484.2 129.3L484.2 129.3Q483.7 129.3 483.3 129.6Q482.9 129.8 482.7 130.1Q482.5 130.5 482.5 131.0L482.5 131.0L482.5 136L481.3 136L481.3 130.8Q481.3 130.1 480.9 129.7Q480.4 129.3 479.8 129.3L479.8 129.3Q479.3 129.3 479.0 129.6Q478.6 129.8 478.3 130.2Q478.1 130.6 478.1 131.2L478.1 131.2L478.1 136ZM492.7 136.2L492.7 136.2Q491.9 136.2 491.5 135.9Q491.1 135.7 490.8 135.3Q490.6 135.0 490.4 134.8L490.4 134.8L490.3 134.8L490.3 136L489.1 136L489.1 125.8L490.3 125.8L490.3 129.6L490.4 129.6Q490.6 129.4 490.8 129.1Q491.0 128.8 491.5 128.5Q491.9 128.3 492.7 128.3L492.7 128.3Q493.6 128.3 494.3 128.7Q495.1 129.2 495.5 130.1Q495.9 131.0 495.9 132.2L495.9 132.2Q495.9 133.4 495.5 134.3Q495.1 135.2 494.4 135.7Q493.6 136.2 492.7 136.2ZM492.5 135.1L492.5 135.1Q493.2 135.1 493.7 134.7Q494.2 134.3 494.4 133.6Q494.6 133.0 494.6 132.2L494.6 132.2Q494.6 131.4 494.4 130.8Q494.2 130.1 493.7 129.7Q493.2 129.4 492.5 129.4L492.5 129.4Q491.8 129.4 491.3 129.7Q490.8 130.1 490.6 130.7Q490.3 131.3 490.3 132.2L490.3 132.2Q490.3 133.0 490.6 133.7Q490.8 134.3 491.3 134.7Q491.8 135.1 492.5 135.1ZM498.9 136L497.7 136L497.7 128.4L498.9 128.4L498.9 136ZM498.3 127.1L498.3 127.1Q498.0 127.1 497.7 126.9Q497.5 126.6 497.5 126.3L497.5 126.3Q497.5 126.0 497.7 125.7Q498.0 125.5 498.3 125.5L498.3 125.5Q498.7 125.5 498.9 125.7Q499.2 126.0 499.2 126.3L499.2 126.3Q499.2 126.6 498.9 126.9Q498.7 127.1 498.3 127.1ZM502.5 128.4L504.1 128.4L504.1 129.4L502.5 129.4L502.5 134.0Q502.5 134.5 502.7 134.8Q502.9 135.0 503.4 135.0L503.4 135.0Q503.5 135.0 503.7 135.0Q503.9 134.9 504.0 134.9L504.0 134.9L504.3 136.0Q504.1 136.0 503.9 136.1Q503.6 136.1 503.4 136.1L503.4 136.1Q502.4 136.1 501.8 135.6Q501.3 135.0 501.3 134.1L501.3 134.1L501.3 129.4L500.1 129.4L500.1 128.4L501.3 128.4L501.3 126.5L502.5 126.5L502.5 128.4ZM506.9 136L505.7 136L505.7 128.4L506.9 128.4L506.9 136ZM506.3 127.1L506.3 127.1Q505.9 127.1 505.7 126.9Q505.4 126.6 505.4 126.3L505.4 126.3Q505.4 126.0 505.7 125.7Q505.9 125.5 506.3 125.5L506.3 125.5Q506.6 125.5 506.9 125.7Q507.1 126.0 507.1 126.3L507.1 126.3Q507.1 126.6 506.9 126.9Q506.6 127.1 506.3 127.1ZM512.2 136.2L512.2 136.2Q511.1 136.2 510.3 135.7Q509.6 135.2 509.1 134.3Q508.7 133.4 508.7 132.2L508.7 132.2Q508.7 131.0 509.1 130.1Q509.6 129.2 510.3 128.8Q511.1 128.3 512.2 128.3L512.2 128.3Q513.2 128.3 514.0 128.8Q514.8 129.2 515.2 130.1Q515.7 131.0 515.7 132.2L515.7 132.2Q515.7 133.4 515.2 134.3Q514.8 135.2 514.0 135.7Q513.2 136.2 512.2 136.2ZM512.2 135.1L512.2 135.1Q512.9 135.1 513.4 134.7Q513.9 134.3 514.2 133.6Q514.4 133.0 514.4 132.2L514.4 132.2Q514.4 131.5 514.2 130.8Q513.9 130.2 513.4 129.8Q512.9 129.4 512.2 129.4L512.2 129.4Q511.4 129.4 510.9 129.8Q510.4 130.2 510.2 130.8Q509.9 131.5 509.9 132.2L509.9 132.2Q509.9 133.0 510.2 133.6Q510.4 134.3 510.9 134.7Q511.4 135.1 512.2 135.1ZM520.0 136.1L520.0 136.1Q519.3 136.1 518.7 135.8Q518.1 135.5 517.8 134.8Q517.4 134.2 517.4 133.2L517.4 133.2L517.4 128.4L518.7 128.4L518.7 133.1Q518.7 134.0 519.1 134.5Q519.6 135.0 520.4 135.0L520.4 135.0Q521.0 135.0 521.4 134.7Q521.8 134.5 522.1 134.0Q522.3 133.6 522.3 132.9L522.3 132.9L522.3 128.4L523.6 128.4L523.6 136L522.4 136L522.4 134.6Q522.0 135.3 521.5 135.7L521.5 135.7Q520.9 136.1 520.0 136.1ZM528.3 136.2L528.3 136.2Q527.5 136.2 526.9 135.9Q526.3 135.7 525.9 135.3Q525.5 134.8 525.4 134.1L525.4 134.1L526.6 133.9Q526.7 134.5 527.2 134.8Q527.6 135.1 528.3 135.1L528.3 135.1Q529.1 135.1 529.6 134.7Q530.1 134.4 530.1 133.9L530.1 133.9Q530.1 133.5 529.8 133.3Q529.5 133.0 528.9 132.9L528.9 132.9L527.7 132.6Q526.6 132.3 526.1 131.8Q525.6 131.3 525.6 130.5L525.6 130.5Q525.6 129.8 526.0 129.3Q526.4 128.8 527.0 128.5Q527.6 128.3 528.4 128.3L528.4 128.3Q529.2 128.3 529.8 128.5Q530.3 128.7 530.7 129.1Q531.0 129.6 531.2 130.1L531.2 130.1L530.1 130.4Q529.9 130.0 529.6 129.6Q529.2 129.3 528.5 129.3L528.5 129.3Q527.8 129.3 527.3 129.6Q526.9 129.9 526.9 130.4L526.9 130.4Q526.9 130.8 527.2 131.1Q527.5 131.4 528.1 131.5L528.1 131.5L529.3 131.8Q530.3 132.0 530.8 132.5Q531.3 133.1 531.3 133.8L531.3 133.8Q531.3 134.5 531.0 135.0Q530.6 135.6 529.9 135.9Q529.2 136.2 528.3 136.2Z M539.6 136.2L539.6 136.2Q538.9 136.2 538.3 135.9Q537.6 135.7 537.2 135.3Q536.8 134.8 536.7 134.1L536.7 134.1L537.9 133.9Q538.0 134.5 538.5 134.8Q539.0 135.1 539.6 135.1L539.6 135.1Q540.4 135.1 540.9 134.7Q541.4 134.4 541.4 133.9L541.4 133.9Q541.4 133.5 541.1 133.3Q540.8 133.0 540.3 132.9L540.3 132.9L539.0 132.6Q538.0 132.3 537.4 131.8Q536.9 131.3 536.9 130.5L536.9 130.5Q536.9 129.8 537.3 129.3Q537.7 128.8 538.3 128.5Q539.0 128.3 539.8 128.3L539.8 128.3Q540.6 128.3 541.1 128.5Q541.7 128.7 542.0 129.1Q542.3 129.6 542.5 130.1L542.5 130.1L541.4 130.4Q541.2 130.0 540.9 129.6Q540.5 129.3 539.8 129.3L539.8 129.3Q539.1 129.3 538.6 129.6Q538.2 129.9 538.2 130.4L538.2 130.4Q538.2 130.8 538.5 131.1Q538.8 131.4 539.5 131.5L539.5 131.5L540.6 131.8Q541.7 132.0 542.2 132.5Q542.7 133.1 542.7 133.8L542.7 133.8Q542.7 134.5 542.3 135.0Q541.9 135.6 541.2 135.9Q540.5 136.2 539.6 136.2ZM545.7 136L544.4 136L544.4 128.4L545.7 128.4L545.7 136ZM545.1 127.1L545.1 127.1Q544.7 127.1 544.5 126.9Q544.2 126.6 544.2 126.3L544.2 126.3Q544.2 126.0 544.5 125.7Q544.7 125.5 545.1 125.5L545.1 125.5Q545.4 125.5 545.7 125.7Q545.9 126.0 545.9 126.3L545.9 126.3Q545.9 126.6 545.7 126.9Q545.4 127.1 545.1 127.1ZM550.7 136.2L550.7 136.2Q549.7 136.2 549.0 135.7Q548.3 135.2 547.9 134.3Q547.5 133.4 547.5 132.2L547.5 132.2Q547.5 131.0 547.9 130.1Q548.3 129.2 549.0 128.7Q549.8 128.3 550.7 128.3L550.7 128.3Q551.4 128.3 551.9 128.5Q552.3 128.8 552.6 129.1Q552.8 129.4 552.9 129.6L552.9 129.6L553.0 129.6L553.0 125.8L554.2 125.8L554.2 136L553.1 136L553.1 134.8L552.9 134.8Q552.8 135.0 552.6 135.3Q552.3 135.7 551.9 135.9Q551.4 136.2 550.7 136.2ZM550.9 135.1L550.9 135.1Q551.6 135.1 552.1 134.7Q552.5 134.3 552.8 133.7Q553.0 133.0 553.0 132.2L553.0 132.2Q553.0 131.3 552.8 130.7Q552.5 130.1 552.1 129.7Q551.6 129.4 550.9 129.4L550.9 129.4Q550.2 129.4 549.7 129.7Q549.2 130.1 549.0 130.8Q548.7 131.4 548.7 132.2L548.7 132.2Q548.7 133.0 549.0 133.6Q549.2 134.3 549.7 134.7Q550.2 135.1 550.9 135.1ZM559.6 136.2L559.6 136.2Q558.5 136.2 557.7 135.7Q556.9 135.2 556.5 134.3Q556.0 133.4 556.0 132.2Q556.0 131.1 556.5 130.2Q556.9 129.3 557.7 128.8Q558.4 128.3 559.5 128.3L559.5 128.3Q560.1 128.3 560.7 128.5Q561.3 128.7 561.7 129.1Q562.2 129.6 562.5 130.3Q562.8 131.0 562.8 132.1L562.8 132.1L562.8 132.6L557.3 132.6Q557.3 133.3 557.6 133.9L557.6 133.9Q557.9 134.5 558.4 134.8Q558.9 135.1 559.6 135.1L559.6 135.1Q560.1 135.1 560.4 134.9Q560.8 134.8 561.1 134.5Q561.3 134.3 561.5 133.9L561.5 133.9L562.7 134.2Q562.5 134.8 562.1 135.2Q561.7 135.7 561.0 135.9Q560.4 136.2 559.6 136.2ZM557.3 131.6L557.3 131.6L561.6 131.6Q561.5 131.0 561.3 130.6L561.3 130.6Q561.1 130.0 560.6 129.7Q560.2 129.4 559.5 129.4Q558.8 129.4 558.3 129.7Q557.8 130.0 557.5 130.6L557.5 130.6Q557.3 131.0 557.3 131.6ZM564.5 131.1L568.9 131.1L568.9 132.2L564.5 132.2L564.5 131.1ZM577.4 128.4L577.4 138.9L576.2 138.9L576.2 134.8L576.1 134.8Q576.0 135.0 575.7 135.3Q575.5 135.7 575.0 135.9Q574.6 136.2 573.9 136.2L573.9 136.2Q572.9 136.2 572.2 135.7Q571.5 135.2 571.0 134.3Q570.6 133.4 570.6 132.2L570.6 132.2Q570.6 131.0 571.0 130.1Q571.5 129.2 572.2 128.7Q572.9 128.3 573.9 128.3L573.9 128.3Q574.6 128.3 575.1 128.5Q575.5 128.8 575.7 129.1Q576.0 129.4 576.1 129.6L576.1 129.6L576.2 129.6L576.2 128.4L577.4 128.4ZM574.1 135.1L574.1 135.1Q574.8 135.1 575.2 134.7Q575.7 134.3 576.0 133.7Q576.2 133.0 576.2 132.2L576.2 132.2Q576.2 131.3 576.0 130.7Q575.7 130.1 575.2 129.7Q574.8 129.4 574.1 129.4L574.1 129.4Q573.3 129.4 572.8 129.7Q572.4 130.1 572.1 130.8Q571.9 131.4 571.9 132.2L571.9 132.2Q571.9 133.0 572.1 133.6Q572.4 134.3 572.9 134.7Q573.3 135.1 574.1 135.1ZM582.2 136.1L582.2 136.1Q581.4 136.1 580.8 135.8Q580.2 135.5 579.9 134.8Q579.6 134.2 579.6 133.2L579.6 133.2L579.6 128.4L580.8 128.4L580.8 133.1Q580.8 134.0 581.3 134.5Q581.7 135.0 582.5 135.0L582.5 135.0Q583.1 135.0 583.5 134.7Q584.0 134.5 584.2 134.0Q584.5 133.6 584.5 132.9L584.5 132.9L584.5 128.4L585.7 128.4L585.7 136L584.5 136L584.5 134.6Q584.2 135.3 583.7 135.7L583.7 135.7Q583.0 136.1 582.2 136.1ZM591.1 136.2L591.1 136.2Q590.0 136.2 589.2 135.7Q588.4 135.2 587.9 134.3Q587.5 133.4 587.5 132.2Q587.5 131.1 587.9 130.2Q588.3 129.3 589.1 128.8Q589.9 128.3 590.9 128.3L590.9 128.3Q591.5 128.3 592.1 128.5Q592.7 128.7 593.2 129.1Q593.7 129.6 594.0 130.3Q594.3 131.0 594.3 132.1L594.3 132.1L594.3 132.6L588.7 132.6Q588.8 133.3 589.0 133.9L589.0 133.9Q589.3 134.5 589.8 134.8Q590.4 135.1 591.1 135.1L591.1 135.1Q591.5 135.1 591.9 134.9Q592.3 134.8 592.5 134.5Q592.8 134.3 592.9 133.9L592.9 133.9L594.1 134.2Q594.0 134.8 593.5 135.2Q593.1 135.7 592.5 135.9Q591.9 136.2 591.1 136.2ZM588.7 131.6L588.7 131.6L593.0 131.6Q593.0 131.0 592.8 130.6L592.8 130.6Q592.5 130.0 592.1 129.7Q591.6 129.4 590.9 129.4Q590.2 129.4 589.7 129.7Q589.3 130.0 589.0 130.6L589.0 130.6Q588.8 131.0 588.7 131.6ZM598.6 136.2L598.6 136.2Q597.8 136.2 597.2 135.9Q596.6 135.7 596.2 135.3Q595.8 134.8 595.7 134.1L595.7 134.1L596.8 133.9Q597.0 134.5 597.5 134.8Q597.9 135.1 598.6 135.1L598.6 135.1Q599.4 135.1 599.9 134.7Q600.4 134.4 600.4 133.9L600.4 133.9Q600.4 133.5 600.1 133.3Q599.8 133.0 599.2 132.9L599.2 132.9L598.0 132.6Q596.9 132.3 596.4 131.8Q595.9 131.3 595.9 130.5L595.9 130.5Q595.9 129.8 596.3 129.3Q596.6 128.8 597.3 128.5Q597.9 128.3 598.7 128.3L598.7 128.3Q599.5 128.3 600.1 128.5Q600.6 128.7 601.0 129.1Q601.3 129.6 601.5 130.1L601.5 130.1L600.4 130.4Q600.2 130.0 599.8 129.6Q599.5 129.3 598.7 129.3L598.7 129.3Q598.1 129.3 597.6 129.6Q597.2 129.9 597.2 130.4L597.2 130.4Q597.2 130.8 597.5 131.1Q597.8 131.4 598.4 131.5L598.4 131.5L599.6 131.8Q600.6 132.0 601.1 132.5Q601.6 133.1 601.6 133.8L601.6 133.8Q601.6 134.5 601.3 135.0Q600.9 135.6 600.2 135.9Q599.5 136.2 598.6 136.2ZM604.8 128.4L606.4 128.4L606.4 129.4L604.8 129.4L604.8 134.0Q604.8 134.5 605.1 134.8Q605.3 135.0 605.7 135.0L605.7 135.0Q605.9 135.0 606.0 135.0Q606.2 134.9 606.4 134.9L606.4 134.9L606.6 136.0Q606.4 136.0 606.2 136.1Q606.0 136.1 605.7 136.1L605.7 136.1Q604.7 136.1 604.2 135.6Q603.6 135.0 603.6 134.1L603.6 134.1L603.6 129.4L602.5 129.4L602.5 128.4L603.6 128.4L603.6 126.5L604.8 126.5L604.8 128.4ZM610.6 136.2L610.6 136.2Q609.8 136.2 609.2 135.9Q608.6 135.7 608.2 135.3Q607.8 134.8 607.6 134.1L607.6 134.1L608.8 133.9Q609.0 134.5 609.4 134.8Q609.9 135.1 610.6 135.1L610.6 135.1Q611.4 135.1 611.8 134.7Q612.3 134.4 612.3 133.9L612.3 133.9Q612.3 133.5 612.0 133.3Q611.8 133.0 611.2 132.9L611.2 132.9L609.9 132.6Q608.9 132.3 608.4 131.8Q607.9 131.3 607.9 130.5L607.9 130.5Q607.9 129.8 608.2 129.3Q608.6 128.8 609.3 128.5Q609.9 128.3 610.7 128.3L610.7 128.3Q611.5 128.3 612.0 128.5Q612.6 128.7 612.9 129.1Q613.3 129.6 613.5 130.1L613.5 130.1L612.3 130.4Q612.2 130.0 611.8 129.6Q611.5 129.3 610.7 129.3L610.7 129.3Q610.0 129.3 609.6 129.6Q609.1 129.9 609.1 130.4L609.1 130.4Q609.1 130.8 609.4 131.1Q609.7 131.4 610.4 131.5L610.4 131.5L611.6 131.8Q612.6 132.0 613.1 132.5Q613.6 133.1 613.6 133.8L613.6 133.8Q613.6 134.5 613.2 135.0Q612.8 135.6 612.2 135.9Q611.5 136.2 610.6 136.2ZM616.3 136.1L616.3 136.1Q615.9 136.1 615.7 135.8Q615.4 135.5 615.4 135.2L615.4 135.2Q615.4 134.8 615.7 134.5Q615.9 134.2 616.3 134.2L616.3 134.2Q616.7 134.2 617.0 134.5Q617.2 134.8 617.2 135.2L617.2 135.2Q617.2 135.5 617.0 135.8Q616.7 136.1 616.3 136.1Z "/></g><mask id="satori_om-id-1-3"><rect x="341" y="153" width="179" height="16" fill="#fff" mask="url(#satori_om-id)"/></mask><g mask="url(#satori_om-id)" clip-path="url(#satori_cp-id)"><path fill="#5EEAD4" d="M344.0 166.2L344.0 166.2Q343.3 166.2 342.8 165.9Q342.2 165.7 341.9 165.2Q341.6 164.7 341.6 164.0L341.6 164.0Q341.6 163.4 341.8 163.0Q342.1 162.6 342.5 162.4Q342.9 162.2 343.3 162.1Q343.8 162.0 344.3 161.9L344.3 161.9Q345.0 161.8 345.4 161.8Q345.8 161.7 346.0 161.6Q346.2 161.5 346.2 161.2L346.2 161.2L346.2 161.2Q346.2 160.8 346.0 160.5Q345.8 160.1 345.5 160.0Q345.2 159.8 344.7 159.8L344.7 159.8Q344.2 159.8 343.8 160.0Q343.4 160.1 343.2 160.4Q343.0 160.6 342.9 160.9L342.9 160.9L341.8 160.5Q342.0 159.8 342.5 159.5Q343.0 159.1 343.5 159.0Q344.1 158.8 344.6 158.8L344.6 158.8Q345.0 158.8 345.4 158.9Q345.9 159.0 346.3 159.2Q346.7 159.5 347.0 160.0Q347.3 160.5 347.3 161.3L347.3 161.3L347.3 166L346.2 166L346.2 165.0L346.1 165.0Q346.0 165.3 345.7 165.5Q345.4 165.8 345.0 166.0Q344.6 166.2 344.0 166.2ZM344.2 165.2L344.2 165.2Q344.8 165.2 345.3 164.9Q345.7 164.7 345.9 164.3Q346.2 163.9 346.2 163.4L346.2 163.4L346.2 162.5Q346.1 162.5 345.8 162.6Q345.6 162.7 345.3 162.7Q345.0 162.8 344.7 162.8Q344.4 162.8 344.3 162.9L344.3 162.9Q343.9 162.9 343.5 163.0Q343.2 163.2 342.9 163.4Q342.7 163.6 342.7 164.0L342.7 164.0Q342.7 164.4 342.9 164.7Q343.1 164.9 343.4 165.0Q343.8 165.2 344.2 165.2ZM350.4 166L349.3 166L349.3 156.5L350.4 156.5L350.4 162.0L350.6 162.0L353.6 158.9L355.0 158.9L352.1 162.0L355.3 166L353.8 166L351.2 162.7L350.4 163.4L350.4 166ZM358.4 166.2L358.4 166.2Q357.8 166.2 357.2 165.9Q356.7 165.7 356.3 165.2Q356.0 164.7 356.0 164.0L356.0 164.0Q356.0 163.4 356.2 163.0Q356.5 162.6 356.9 162.4Q357.3 162.2 357.8 162.1Q358.3 162.0 358.8 161.9L358.8 161.9Q359.4 161.8 359.8 161.8Q360.2 161.7 360.4 161.6Q360.6 161.5 360.6 161.2L360.6 161.2L360.6 161.2Q360.6 160.8 360.4 160.5Q360.3 160.1 359.9 160.0Q359.6 159.8 359.1 159.8L359.1 159.8Q358.6 159.8 358.2 160.0Q357.9 160.1 357.6 160.4Q357.4 160.6 357.3 160.9L357.3 160.9L356.2 160.5Q356.5 159.8 356.9 159.5Q357.4 159.1 358.0 159.0Q358.5 158.8 359.1 158.8L359.1 158.8Q359.4 158.8 359.9 158.9Q360.3 159.0 360.8 159.2Q361.2 159.5 361.5 160.0Q361.7 160.5 361.7 161.3L361.7 161.3L361.7 166L360.6 166L360.6 165.0L360.5 165.0Q360.4 165.3 360.1 165.5Q359.9 165.8 359.5 166.0Q359.0 166.2 358.4 166.2ZM358.6 165.2L358.6 165.2Q359.3 165.2 359.7 164.9Q360.1 164.7 360.4 164.3Q360.6 163.9 360.6 163.4L360.6 163.4L360.6 162.5Q360.5 162.5 360.3 162.6Q360.0 162.7 359.7 162.7Q359.4 162.8 359.2 162.8Q358.9 162.8 358.7 162.9L358.7 162.9Q358.3 162.9 357.9 163.0Q357.6 163.2 357.4 163.4Q357.2 163.6 357.2 164.0L357.2 164.0Q357.2 164.4 357.3 164.7Q357.5 164.9 357.9 165.0Q358.2 165.2 358.6 165.2ZM366.1 166.2L366.1 166.2Q365.4 166.2 364.9 165.9Q364.3 165.7 363.9 165.3Q363.5 164.9 363.4 164.3L363.4 164.3L364.5 164.0Q364.7 164.6 365.1 164.9Q365.5 165.1 366.1 165.1L366.1 165.1Q366.9 165.1 367.3 164.8Q367.8 164.5 367.8 164.1L367.8 164.1Q367.8 163.7 367.5 163.5Q367.2 163.2 366.7 163.1L366.7 163.1L365.5 162.8Q364.6 162.6 364.1 162.1Q363.6 161.6 363.6 160.9L363.6 160.9Q363.6 160.3 364.0 159.8Q364.3 159.3 364.9 159.1Q365.5 158.8 366.3 158.8L366.3 158.8Q367.0 158.8 367.5 159.0Q368.0 159.3 368.3 159.6Q368.7 160.0 368.8 160.5L368.8 160.5L367.8 160.8Q367.6 160.4 367.3 160.1Q367.0 159.8 366.3 159.8L366.3 159.8Q365.6 159.8 365.2 160.1Q364.8 160.4 364.8 160.8L364.8 160.8Q364.8 161.2 365.1 161.4Q365.4 161.7 366.0 161.8L366.0 161.8L367.1 162.1Q368.0 162.3 368.5 162.8Q368.9 163.3 368.9 164.0L368.9 164.0Q368.9 164.6 368.6 165.1Q368.2 165.6 367.6 165.9Q367.0 166.2 366.1 166.2ZM371.7 161.7L371.7 161.7L371.7 166L370.6 166L370.6 156.5L371.7 156.5L371.7 160.1Q372.0 159.5 372.5 159.2L372.5 159.2Q373.1 158.8 373.9 158.8L373.9 158.8Q374.6 158.8 375.1 159.1Q375.7 159.4 376.0 160.0Q376.3 160.6 376.3 161.5L376.3 161.5L376.3 166L375.1 166L375.1 161.6Q375.1 160.8 374.7 160.3Q374.3 159.8 373.5 159.8L373.5 159.8Q373.0 159.8 372.6 160.1Q372.2 160.3 372.0 160.7Q371.7 161.1 371.7 161.7ZM380.9 166.2L380.9 166.2Q380.1 166.2 379.4 165.7Q378.7 165.3 378.3 164.4Q377.9 163.6 377.9 162.5L377.9 162.5Q377.9 161.3 378.3 160.5Q378.7 159.7 379.4 159.3Q380.1 158.8 381.0 158.8L381.0 158.8Q381.6 158.8 382.1 159.0Q382.5 159.3 382.7 159.6Q382.9 159.8 383.0 160.0L383.0 160.0L383.1 160.0L383.1 156.5L384.2 156.5L384.2 166L383.1 166L383.1 164.9L383.0 164.9Q382.9 165.1 382.7 165.4Q382.4 165.7 382.0 165.9Q381.6 166.2 380.9 166.2ZM381.1 165.1L381.1 165.1Q381.8 165.1 382.2 164.8Q382.7 164.5 382.9 163.8Q383.1 163.2 383.1 162.5L383.1 162.5Q383.1 161.7 382.9 161.1Q382.7 160.5 382.2 160.2Q381.8 159.8 381.1 159.8L381.1 159.8Q380.4 159.8 380.0 160.2Q379.5 160.5 379.3 161.1Q379.1 161.7 379.1 162.5L379.1 162.5Q379.1 163.2 379.3 163.8Q379.6 164.4 380.0 164.8Q380.5 165.1 381.1 165.1ZM389.2 166.2L389.2 166.2Q388.2 166.2 387.5 165.7Q386.7 165.2 386.3 164.4Q385.9 163.6 385.9 162.5Q385.9 161.4 386.3 160.6Q386.7 159.8 387.4 159.3Q388.1 158.8 389.1 158.8L389.1 158.8Q389.7 158.8 390.2 159.0Q390.8 159.2 391.2 159.6Q391.7 160.0 391.9 160.7Q392.2 161.4 392.2 162.4L392.2 162.4L392.2 162.8L387.1 162.8Q387.1 163.5 387.3 164.0L387.3 164.0Q387.6 164.6 388.1 164.9Q388.6 165.1 389.2 165.1L389.2 165.1Q389.7 165.1 390.0 165.0Q390.3 164.9 390.6 164.7Q390.8 164.4 391.0 164.0L391.0 164.0L392.1 164.3Q391.9 164.9 391.5 165.3Q391.1 165.7 390.5 165.9Q390.0 166.2 389.2 166.2ZM387.1 161.9L387.1 161.9L391.0 161.9Q391.0 161.4 390.8 161.0L390.8 161.0Q390.6 160.4 390.2 160.1Q389.7 159.8 389.1 159.8Q388.5 159.8 388.0 160.1Q387.5 160.5 387.3 161.0L387.3 161.0Q387.1 161.4 387.1 161.9ZM396.8 166.2L396.8 166.2Q395.8 166.2 395.0 165.7Q394.3 165.2 393.9 164.4Q393.5 163.6 393.5 162.5Q393.5 161.4 393.9 160.6Q394.3 159.8 395.0 159.3Q395.7 158.8 396.7 158.8L396.7 158.8Q397.2 158.8 397.8 159.0Q398.3 159.2 398.8 159.6Q399.2 160.0 399.5 160.7Q399.8 161.4 399.8 162.4L399.8 162.4L399.8 162.8L394.6 162.8Q394.7 163.5 394.9 164.0L394.9 164.0Q395.2 164.6 395.7 164.9Q396.2 165.1 396.8 165.1L396.8 165.1Q397.2 165.1 397.6 165.0Q397.9 164.9 398.2 164.7Q398.4 164.4 398.5 164.0L398.5 164.0L399.7 164.3Q399.5 164.9 399.1 165.3Q398.7 165.7 398.1 165.9Q397.5 166.2 396.8 166.2ZM394.6 161.9L394.6 161.9L398.6 161.9Q398.6 161.4 398.4 161.0L398.4 161.0Q398.2 160.4 397.7 160.1Q397.3 159.8 396.7 159.8Q396.0 159.8 395.6 160.1Q395.1 160.5 394.9 161.0L394.9 161.0Q394.7 161.4 394.6 161.9ZM402.5 168.7L401.4 168.7L401.4 158.9L402.5 158.9L402.5 160.0L402.6 160.0Q402.8 159.8 403.0 159.6Q403.2 159.3 403.6 159.0Q404.0 158.8 404.7 158.8L404.7 158.8Q405.6 158.8 406.3 159.3Q406.9 159.7 407.3 160.5Q407.7 161.3 407.7 162.5L407.7 162.5Q407.7 163.6 407.3 164.4Q406.9 165.3 406.3 165.7Q405.6 166.2 404.7 166.2L404.7 166.2Q404.0 166.2 403.6 165.9Q403.2 165.7 403.0 165.4Q402.8 165.1 402.6 164.9L402.6 164.9L402.5 164.9L402.5 168.7ZM404.5 165.1L404.5 165.1Q405.2 165.1 405.6 164.8Q406.1 164.4 406.3 163.8Q406.5 163.2 406.5 162.5L406.5 162.5Q406.5 161.7 406.3 161.1Q406.1 160.5 405.6 160.2Q405.2 159.8 404.5 159.8L404.5 159.8Q403.9 159.8 403.4 160.2Q403.0 160.5 402.8 161.1Q402.5 161.7 402.5 162.5L402.5 162.5Q402.5 163.2 402.8 163.8Q403.0 164.5 403.4 164.8Q403.9 165.1 404.5 165.1ZM410.2 166.1L410.2 166.1Q409.9 166.1 409.6 165.8Q409.4 165.6 409.4 165.2L409.4 165.2Q409.4 164.9 409.6 164.6Q409.9 164.4 410.2 164.4L410.2 164.4Q410.6 164.4 410.8 164.6Q411.1 164.9 411.1 165.2L411.1 165.2Q411.1 165.6 410.8 165.8Q410.6 166.1 410.2 166.1ZM415.9 166.1L415.9 166.1Q415.3 166.1 414.7 165.9Q414.1 165.7 413.6 165.2Q413.1 164.7 412.8 163.8Q412.6 162.9 412.6 161.6L412.6 161.6Q412.6 160.4 412.8 159.4Q413.0 158.4 413.5 157.8Q413.9 157.1 414.6 156.8Q415.2 156.4 416.0 156.4L416.0 156.4Q416.8 156.4 417.4 156.7Q418.1 157.0 418.5 157.6Q418.9 158.2 419.0 158.9L419.0 158.9L417.8 158.9Q417.6 158.3 417.2 157.9Q416.8 157.5 416.0 157.5L416.0 157.5Q415.3 157.5 414.8 157.9Q414.3 158.3 414.0 159.1Q413.7 159.9 413.7 161.1L413.7 161.1L413.8 161.1Q414.0 160.7 414.4 160.4Q414.7 160.1 415.2 160.0Q415.6 159.8 416.1 159.8L416.1 159.8Q416.9 159.8 417.6 160.2Q418.3 160.6 418.7 161.3Q419.1 162.0 419.1 162.9L419.1 162.9Q419.1 163.8 418.7 164.5Q418.3 165.3 417.6 165.7Q416.8 166.1 415.9 166.1ZM415.9 165.1L415.9 165.1Q416.4 165.1 416.9 164.8Q417.4 164.5 417.6 164.0Q417.9 163.5 417.9 162.9L417.9 162.9Q417.9 162.4 417.6 161.9Q417.4 161.4 416.9 161.1Q416.5 160.9 415.9 160.9L415.9 160.9Q415.5 160.9 415.1 161.0Q414.7 161.2 414.5 161.5Q414.2 161.8 414.0 162.2Q413.9 162.5 413.9 163.0L413.9 163.0Q413.9 163.5 414.1 164.0Q414.4 164.5 414.8 164.8Q415.3 165.1 415.9 165.1ZM423.9 166.1L423.9 166.1Q422.9 166.1 422.2 165.8Q421.5 165.5 421.1 164.9Q420.7 164.4 420.6 163.6L420.6 163.6L421.9 163.6Q421.9 164.1 422.2 164.4Q422.4 164.7 422.9 164.9Q423.3 165.1 423.8 165.1L423.8 165.1Q424.4 165.1 424.9 164.9Q425.4 164.7 425.6 164.3Q425.9 163.9 425.9 163.4L425.9 163.4Q425.9 162.9 425.6 162.5Q425.4 162.1 424.9 161.9Q424.4 161.7 423.7 161.7L423.7 161.7L422.9 161.7L422.9 160.6L423.7 160.6Q424.3 160.6 424.7 160.4Q425.1 160.2 425.3 159.9Q425.6 159.5 425.6 159.0L425.6 159.0Q425.6 158.5 425.4 158.2Q425.2 157.8 424.8 157.7Q424.4 157.5 423.9 157.5L423.9 157.5Q423.4 157.5 423.0 157.6Q422.6 157.8 422.3 158.1Q422.0 158.5 422.0 158.9L422.0 158.9L420.8 158.9Q420.9 158.2 421.3 157.6Q421.7 157.0 422.4 156.7Q423.1 156.4 423.9 156.4L423.9 156.4Q424.8 156.4 425.4 156.8Q426.1 157.1 426.4 157.7Q426.8 158.3 426.8 159.0L426.8 159.0Q426.8 159.8 426.3 160.3Q425.9 160.9 425.2 161.1L425.2 161.1L425.2 161.2Q425.8 161.3 426.2 161.6Q426.6 161.9 426.9 162.4Q427.1 162.8 427.1 163.4L427.1 163.4Q427.1 164.2 426.7 164.8Q426.3 165.4 425.5 165.8Q424.8 166.1 423.9 166.1ZM430.4 166L429.1 166L433.3 157.7L433.3 157.6L428.5 157.6L428.5 156.5L434.6 156.5L434.6 157.7L430.4 166ZM439.7 164.1L435.2 164.1L435.2 163.1L439.4 156.5L440.8 156.5L440.8 163.0L442.1 163.0L442.1 164.1L440.8 164.1L440.8 166L439.7 166L439.7 164.1ZM436.5 163.0L439.7 163.0L439.7 158.1L439.6 158.1L436.5 162.9L436.5 163.0ZM449.5 168.5L449.5 168.5Q448.1 168.5 447.0 168.1Q445.9 167.7 445.1 167.0Q444.4 166.2 444.0 165.2Q443.6 164.1 443.6 162.7L443.6 162.7Q443.6 161.3 444.0 160.2Q444.4 159.2 445.2 158.4Q445.9 157.7 447.0 157.3Q448.0 156.9 449.4 156.9L449.4 156.9Q450.7 156.9 451.7 157.3Q452.6 157.7 453.3 158.4Q454.0 159.2 454.3 160.1Q454.6 161.0 454.6 161.9L454.6 161.9Q454.6 162.6 454.6 163.3Q454.5 164.0 454.3 164.5Q454.1 165.1 453.6 165.5Q453.2 165.8 452.5 165.8L452.5 165.8Q452.1 165.8 451.7 165.7Q451.4 165.6 451.1 165.4Q450.8 165.1 450.7 164.7L450.7 164.7L450.7 164.7Q450.5 165.1 450.1 165.5Q449.6 165.8 448.9 165.8L448.9 165.8Q448.1 165.8 447.5 165.3Q446.9 164.9 446.7 164.2Q446.4 163.5 446.4 162.6L446.4 162.6Q446.4 161.8 446.7 161.1Q447.1 160.4 447.6 160.0Q448.2 159.6 449.0 159.6L449.0 159.6Q449.6 159.6 450.0 159.8Q450.4 160.1 450.6 160.3L450.6 160.3L450.7 160.3L450.7 159.8L451.7 159.8L451.7 164.0Q451.7 164.3 451.9 164.6Q452.1 164.9 452.5 164.9L452.5 164.9Q453.0 164.9 453.2 164.6Q453.4 164.3 453.5 163.6Q453.6 163.0 453.6 161.9L453.6 161.9Q453.6 161.1 453.4 160.4Q453.1 159.7 452.6 159.1Q452.0 158.5 451.2 158.1Q450.4 157.8 449.3 157.8L449.3 157.8Q448.2 157.8 447.4 158.1Q446.5 158.5 445.9 159.1Q445.3 159.7 445.0 160.6Q444.7 161.5 444.7 162.7L444.7 162.7Q444.7 163.9 445.0 164.8Q445.3 165.7 445.9 166.3Q446.6 166.9 447.5 167.3Q448.4 167.6 449.5 167.6L449.5 167.6Q450.0 167.6 450.5 167.5Q451.0 167.4 451.4 167.3Q451.8 167.2 452.0 167.1L452.0 167.1L452.2 168.0Q451.9 168.1 451.5 168.2Q451.0 168.3 450.5 168.4Q450.0 168.5 449.5 168.5ZM449.0 164.8L449.0 164.8Q449.6 164.8 450.0 164.5Q450.3 164.3 450.5 163.8Q450.7 163.3 450.7 162.6L450.7 162.6Q450.7 161.8 450.5 161.4Q450.3 160.9 449.9 160.8Q449.6 160.6 449.0 160.6L449.0 160.6Q448.5 160.6 448.1 160.9Q447.7 161.1 447.6 161.6Q447.4 162.0 447.4 162.6L447.4 162.6Q447.4 163.1 447.5 163.7Q447.7 164.2 448.0 164.5Q448.4 164.8 449.0 164.8ZM459.3 168.8L459.3 168.8Q458.5 168.8 457.9 168.6Q457.4 168.4 457.0 168.1Q456.6 167.7 456.4 167.4L456.4 167.4L457.3 166.8Q457.5 167.0 457.7 167.2Q457.9 167.5 458.3 167.6Q458.7 167.8 459.3 167.8L459.3 167.8Q460.2 167.8 460.7 167.4Q461.3 167.0 461.3 166.1L461.3 166.1L461.3 164.7L461.1 164.7Q461.0 164.9 460.8 165.2Q460.6 165.5 460.2 165.7Q459.8 165.9 459.1 165.9L459.1 165.9Q458.2 165.9 457.5 165.5Q456.9 165.1 456.5 164.3Q456.1 163.5 456.1 162.4L456.1 162.4Q456.1 161.3 456.5 160.5Q456.9 159.7 457.5 159.3Q458.2 158.8 459.1 158.8L459.1 158.8Q459.8 158.8 460.2 159.0Q460.6 159.3 460.8 159.6Q461.1 159.8 461.2 160.0L461.2 160.0L461.3 160.0L461.3 158.9L462.4 158.9L462.4 166.2Q462.4 167.1 462.0 167.7Q461.6 168.3 460.9 168.5Q460.2 168.8 459.3 168.8ZM459.3 164.9L459.3 164.9Q459.9 164.9 460.4 164.6Q460.8 164.3 461.0 163.7Q461.3 163.2 461.3 162.4L461.3 162.4Q461.3 161.6 461.0 161.1Q460.8 160.5 460.4 160.2Q459.9 159.8 459.3 159.8L459.3 159.8Q458.6 159.8 458.1 160.2Q457.7 160.5 457.5 161.1Q457.2 161.7 457.2 162.4L457.2 162.4Q457.2 163.1 457.5 163.7Q457.7 164.2 458.2 164.6Q458.6 164.9 459.3 164.9ZM465.5 166L464.4 166L464.4 158.9L465.5 158.9L465.5 160.2Q465.7 159.8 465.9 159.5L465.9 159.5Q466.2 159.2 466.6 159.0Q467.0 158.8 467.5 158.8L467.5 158.8Q468.3 158.8 468.8 159.3L468.8 159.3Q469.1 159.6 469.3 160.2L469.3 160.2Q469.4 159.9 469.7 159.6L469.7 159.6Q470.0 159.2 470.5 159.0Q471.0 158.8 471.5 158.8L471.5 158.8Q472.2 158.8 472.7 159.0Q473.2 159.3 473.5 159.8Q473.8 160.4 473.8 161.2L473.8 161.2L473.8 166L472.6 166L472.6 161.2Q472.6 160.5 472.2 160.1Q471.8 159.8 471.2 159.8L471.2 159.8Q470.7 159.8 470.4 160.0Q470.0 160.2 469.8 160.6Q469.7 160.9 469.7 161.4L469.7 161.4L469.7 166L468.5 166L468.5 161.1Q468.5 160.5 468.1 160.2Q467.7 159.8 467.1 159.8L467.1 159.8Q466.7 159.8 466.4 160.0Q466.0 160.2 465.8 160.6Q465.5 161.0 465.5 161.5L465.5 161.5L465.5 166ZM477.8 166.2L477.8 166.2Q477.1 166.2 476.6 165.9Q476.0 165.7 475.7 165.2Q475.4 164.7 475.4 164.0L475.4 164.0Q475.4 163.4 475.6 163.0Q475.8 162.6 476.2 162.4Q476.6 162.2 477.1 162.1Q477.6 162.0 478.1 161.9L478.1 161.9Q478.8 161.8 479.2 161.8Q479.6 161.7 479.7 161.6Q479.9 161.5 479.9 161.2L479.9 161.2L479.9 161.2Q479.9 160.8 479.8 160.5Q479.6 160.1 479.3 160.0Q478.9 159.8 478.5 159.8L478.5 159.8Q477.9 159.8 477.6 160.0Q477.2 160.1 477.0 160.4Q476.8 160.6 476.7 160.9L476.7 160.9L475.6 160.5Q475.8 159.8 476.3 159.5Q476.8 159.1 477.3 159.0Q477.9 158.8 478.4 158.8L478.4 158.8Q478.8 158.8 479.2 158.9Q479.7 159.0 480.1 159.2Q480.5 159.5 480.8 160.0Q481.1 160.5 481.1 161.3L481.1 161.3L481.1 166L480.0 166L480.0 165.0L479.9 165.0Q479.8 165.3 479.5 165.5Q479.2 165.8 478.8 166.0Q478.4 166.2 477.8 166.2ZM478.0 165.2L478.0 165.2Q478.6 165.2 479.0 164.9Q479.5 164.7 479.7 164.3Q479.9 163.9 479.9 163.4L479.9 163.4L479.9 162.5Q479.9 162.5 479.6 162.6Q479.4 162.7 479.1 162.7Q478.8 162.8 478.5 162.8Q478.2 162.8 478.1 162.9L478.1 162.9Q477.7 162.9 477.3 163.0Q476.9 163.2 476.7 163.4Q476.5 163.6 476.5 164.0L476.5 164.0Q476.5 164.4 476.7 164.7Q476.9 164.9 477.2 165.0Q477.5 165.2 478.0 165.2ZM484.2 166L483.1 166L483.1 158.9L484.2 158.9L484.2 166ZM483.7 157.7L483.7 157.7Q483.3 157.7 483.1 157.5Q482.9 157.3 482.9 157.0L482.9 157.0Q482.9 156.7 483.1 156.4Q483.3 156.2 483.7 156.2L483.7 156.2Q484.0 156.2 484.2 156.4Q484.5 156.7 484.5 157.0L484.5 157.0Q484.5 157.3 484.2 157.5Q484.0 157.7 483.7 157.7ZM486.2 156.5L487.4 156.5L487.4 166L486.2 166L486.2 156.5ZM490.3 166.1L490.3 166.1Q489.9 166.1 489.6 165.8Q489.4 165.6 489.4 165.2L489.4 165.2Q489.4 164.9 489.6 164.6Q489.9 164.4 490.3 164.4L490.3 164.4Q490.6 164.4 490.9 164.6Q491.1 164.9 491.1 165.2L491.1 165.2Q491.1 165.6 490.9 165.8Q490.6 166.1 490.3 166.1ZM496.0 166.2L496.0 166.2Q495.1 166.2 494.3 165.7Q493.6 165.2 493.2 164.4Q492.8 163.6 492.8 162.5L492.8 162.5Q492.8 161.4 493.2 160.6Q493.6 159.7 494.3 159.3Q495.1 158.8 496.0 158.8L496.0 158.8Q496.5 158.8 497.0 158.9Q497.4 159.1 497.8 159.3Q498.2 159.6 498.5 159.9Q498.7 160.3 498.9 160.8L498.9 160.8L497.8 161.1Q497.7 160.8 497.6 160.6Q497.4 160.4 497.2 160.2Q496.9 160.0 496.7 159.9Q496.4 159.8 496.0 159.8L496.0 159.8Q495.3 159.8 494.8 160.2Q494.4 160.6 494.2 161.2Q493.9 161.8 493.9 162.5L493.9 162.5Q493.9 163.2 494.2 163.8Q494.4 164.4 494.8 164.8Q495.3 165.1 496.0 165.1L496.0 165.1Q496.4 165.1 496.7 165.0Q497.0 164.9 497.2 164.8Q497.4 164.6 497.6 164.3Q497.7 164.1 497.8 163.8L497.8 163.8L498.9 164.1Q498.8 164.6 498.5 165.0Q498.2 165.4 497.8 165.6Q497.5 165.9 497 166.0Q496.5 166.2 496.0 166.2ZM503.4 166.2L503.4 166.2Q502.5 166.2 501.8 165.7Q501.0 165.2 500.6 164.4Q500.2 163.6 500.2 162.5L500.2 162.5Q500.2 161.4 500.6 160.6Q501.0 159.7 501.8 159.3Q502.5 158.8 503.4 158.8L503.4 158.8Q504.4 158.8 505.1 159.3Q505.9 159.7 506.3 160.6Q506.7 161.4 506.7 162.5L506.7 162.5Q506.7 163.6 506.3 164.4Q505.9 165.2 505.1 165.7Q504.4 166.2 503.4 166.2ZM503.4 165.1L503.4 165.1Q504.2 165.1 504.6 164.8Q505.1 164.4 505.3 163.8Q505.5 163.2 505.5 162.5L505.5 162.5Q505.5 161.8 505.3 161.2Q505.1 160.6 504.6 160.2Q504.2 159.8 503.4 159.8L503.4 159.8Q502.7 159.8 502.3 160.2Q501.8 160.6 501.6 161.2Q501.4 161.8 501.4 162.5L501.4 162.5Q501.4 163.2 501.6 163.8Q501.8 164.4 502.3 164.8Q502.7 165.1 503.4 165.1ZM509.5 166L508.3 166L508.3 158.9L509.5 158.9L509.5 160.2Q509.6 159.8 509.8 159.5L509.8 159.5Q510.2 159.2 510.6 159.0Q511.0 158.8 511.5 158.8L511.5 158.8Q512.2 158.8 512.7 159.3L512.7 159.3Q513.1 159.6 513.3 160.2L513.3 160.2Q513.4 159.9 513.6 159.6L513.6 159.6Q514.0 159.2 514.5 159.0Q514.9 158.8 515.5 158.8L515.5 158.8Q516.1 158.8 516.6 159.0Q517.1 159.3 517.4 159.8Q517.7 160.4 517.7 161.2L517.7 161.2L517.7 166L516.6 166L516.6 161.2Q516.6 160.5 516.2 160.1Q515.7 159.8 515.2 159.8L515.2 159.8Q514.7 159.8 514.3 160.0Q514.0 160.2 513.8 160.6Q513.6 160.9 513.6 161.4L513.6 161.4L513.6 166L512.5 166L512.5 161.1Q512.5 160.5 512.1 160.2Q511.7 159.8 511.1 159.8L511.1 159.8Q510.7 159.8 510.3 160.0Q509.9 160.2 509.7 160.6Q509.5 161.0 509.5 161.5L509.5 161.5L509.5 166Z "/></g></svg>